NotoFangsongKSSVertical.glyphspackage
{
glyphname = period;
layers = (
{
layerId = master01;
shapes = (
{
closed = 1;
nodes = (
(159,-7,o),
(188,10,o),
(188,61,cs),
(188,113,o),
(159,129,o),
(125,129,cs),
(90,129,o),
(62,113,o),
(62,61,cs),
(62,10,o),
(90,-7,o),
(125,-7,cs)
);
}
);
width = 250;
}
);
unicode = 46;
}
{
glyphname = uni4F53;
layers = (
{
layerId = master01;
shapes = (
{
closed = 1;
nodes = (
(390.333,162,o),
(477.333,293.667,o),
(536,467,c),
(594,460,l),
(526,272,o),
(432.667,145.667,o),
(294,15,c),
(273,38,l),
(273,38,l)
);
},
{
closed = 1;
nodes = (
(742,353.333,o),
(798,259.333,o),
(832,208,cs),
(885.333,126.667,o),
(915,100.667,o),
(979,82,c),
(978,59,l),
(852,55,ls),
(846,55,o),
(841,58.333,o),
(837,65,c),
(775,195.667,o),
(709.333,327,o),
(640,459,c),
(664,490,l),
(664,490,l)
);
},
{
closed = 1;
nodes = (
(149,412.667,o),
(265.667,565.667,o),
(303,667,cs),
(310.333,686.333,o),
(314,706.667,o),
(314,728,cs),
(314,741.333,o),
(312.667,753,o),
(310,763,c),
(322,770,l),
(395,664,l),
(386.333,654,o),
(372.667,635.333,o),
(354,608,cs),
(270.667,486,o),
(168.333,371.333,o),
(47,264,c),
(25,290,l),
(25,290,l)
);
},
{
closed = 1;
nodes = (
(252.667,406,o),
(250,371.667,o),
(250,331,cs),
(250,265,ls),
(249.333,219,o),
(249,90.333,o),
(249,-121,c),
(235,-127,l),
(179,-59,ls),
(177,-57,o),
(177,-54,o),
(179,-50,cs),
(189,-29.333,o),
(194,-7.667,o),
(194,15,cs),
(195.333,97.667,o),
(196,174.333,o),
(196,245,cs),
(196,310.333,o),
(195.667,355.667,o),
(195,381,cs),
(195,397,o),
(191.667,417.667,o),
(185,443,c),
(212,478,l),
(258,434,l),
(258,434,l)
);
},
{
closed = 1;
nodes = (
(455,433.667,o),
(423.333,429.333,o),
(392,424,c),
(326,474,l),
(331,486,l),
(364.333,482.667,o),
(389.667,481,o),
(407,481,cs),
(418.333,481,o),
(434,481.667,o),
(454,483,cs),
(564.667,489,o),
(664.333,498,o),
(753,510,cs),
(781.667,513.333,o),
(808,521,o),
(832,533,cs),
(834.667,534.333,o),
(837.667,534,o),
(841,532,cs),
(923,490,l),
(920,473,l),
(853.333,470.333,o),
(587,447.667,o),
(487,437,cs)
);
},
{
closed = 1;
nodes = (
(548.667,61.667,o),
(518,56.667,o),
(492,50,c),
(431,97,l),
(436,109,l),
(463.333,107,o),
(485,106,o),
(501,106,cs),
(513.667,106,o),
(530,106.667,o),
(550,108,cs),
(594.667,111.333,o),
(626.333,114.333,o),
(645,117,cs),
(678.333,121,o),
(689,127,o),
(709,139,cs),
(712.333,141,o),
(715.333,141,o),
(718,139,c),
(792,100,l),
(789,84,l),
(740.333,80.667,o),
(682.667,75.333,o),
(616,68,cs),
(584,65,l),
(584,65,l)
);
},
{
closed = 1;
nodes = (
(649.333,654.333,o),
(646,620,o),
(646,580,cs),
(645,212,ls),
(643.667,45.333,o),
(643,-77.333,o),
(643,-156,c),
(630,-162,l),
(570,-94,ls),
(568.667,-92.667,o),
(568.667,-89.667,o),
(570,-85,cs),
(578,-67,o),
(582.667,-45.333,o),
(584,-20,cs),
(587.333,72,o),
(589,202.333,o),
(589,371,cs),
(589,476.333,o),
(588,563.333,o),
(586,632,cs),
(584.667,673.333,o),
(572.333,720,o),
(543,752,c),
(554,764,l),
(656,683,l),
(656,683,l)
);
}
);
width = 1000;
}
);
unicode = 20307;
}
{
glyphname = uni5B8B;
layers = (
{
layerId = master01;
shapes = (
{
closed = 1;
nodes = (
(606.333,210,o),
(676.667,133,o),
(744,63,cs),
(817.333,-14.333,o),
(862,-38,o),
(954,-50,c),
(954,-74,l),
(787,-83,ls),
(777.667,-83,o),
(769.667,-79.333,o),
(767,-74,c),
(673.667,55.333,o),
(588,167.667,o),
(510,263,c),
(533,294,l),
(533,294,l)
);
},
{
closed = 1;
nodes = (
(508,275,l),
(386,105,o),
(238.333,-27.333,o),
(65,-122,c),
(49,-97,l),
(205.667,1.667,o),
(335,129.333,o),
(437,286,c),
(490,286,l),
(490,286,l)
);
},
{
closed = 1;
nodes = (
(209,480.667,o),
(189.333,433.667,o),
(158,387,c),
(142,385,l),
(107,458,l),
(105,463,l),
(105,466.333,o),
(107,469.333,o),
(111,472,cs),
(145.667,498.667,o),
(163.667,524.667,o),
(173,582,cs),
(174.333,591.333,o),
(175,598.667,o),
(175,604,cs),
(175,615.333,o),
(173,629,o),
(169,645,c),
(188,651,l),
(209.333,622.333,o),
(220,591.667,o),
(220,559,cs),
(220,549.667,o),
(219,539.333,o),
(217,528,cs)
);
},
{
closed = 1;
nodes = (
(461.333,741,o),
(506.667,711.667,o),
(552,677,cs),
(556,674.333,o),
(557.333,670.667,o),
(556,666,cs),
(541,585,ls),
(539.667,578.333,o),
(537.667,575,o),
(535,575,cs),
(532.333,575,o),
(529.667,577.667,o),
(527,583,cs),
(489.667,647.667,o),
(448.333,702.667,o),
(403,748,c),
(416,765,l),
(416,765,l)
);
},
{
closed = 1;
nodes = (
(369,584.333,o),
(621.333,605,o),
(760,621,cs),
(784,623.667,o),
(817.667,633.667,o),
(843,655,cs),
(846.333,657.667,o),
(849.333,657.667,o),
(852,655,cs),
(922,582,ls),
(926,578,o),
(925.667,575,o),
(921,573,c),
(884,550,ls),
(860.667,536,o),
(826.333,503.667,o),
(781,453,c),
(761,464,l),
(809,560,ls),
(814.333,569.333,o),
(814,574.333,o),
(806,573,cs),
(203,525,l),
(205,575,l),
(205,575,l)
);
},
{
closed = 1;
nodes = (
(272,264.667,o),
(231.333,258.667,o),
(194,250,c),
(116,301,l),
(121,314,l),
(151,312,o),
(178,311,o),
(202,311,cs),
(220,311,o),
(246.333,311.667,o),
(281,313,cs),
(399.667,321,o),
(524,331.667,o),
(654,345,cs),
(723.333,353,o),
(751,357.333,o),
(783,376,cs),
(785.667,377.333,o),
(788.667,377,o),
(792,375,cs),
(885,328,l),
(882,313,l),
(758.667,305.667,o),
(621.667,295.333,o),
(471,282,cs),
(316,268,l),
(316,268,l)
);
},
{
closed = 1;
nodes = (
(533.333,400.333,o),
(530,366,o),
(530,326,cs),
(529,87,ls),
(527.667,-22.333,o),
(527,-102.333,o),
(527,-153,c),
(514,-159,l),
(454,-91,ls),
(452.667,-89.667,o),
(452.667,-86.667,o),
(454,-82,cs),
(462,-64,o),
(466.667,-42.333,o),
(468,-17,cs),
(470.667,55,o),
(472,141,o),
(472,241,cs),
(472,283,o),
(471.333,328.667,o),
(470,378,cs),
(468.667,419.333,o),
(456.333,466,o),
(427,498,c),
(438,510,l),
(540,429,l),
(540,429,l)
);
}
);
width = 1000;
}
);
unicode = 23435;
}
{
glyphname = uni6B4C;
layers = (
{
layerId = master01;
shapes = (
{
closed = 1;
nodes = (
(790.333,99.667,o),
(817,51.667,o),
(829,31,cs),
(870.333,-41,o),
(913.333,-76.667,o),
(972,-90,c),
(971,-110,l),
(834,-118,ls),
(828,-118,o),
(824,-114.667,o),
(822,-108,cs),
(801.333,-51.333,o),
(763.667,36.333,o),
(709,155,cs),
(690,196,l),
(704,256,l),
(749,175,l),
(749,175,l)
);
},
{
closed = 1;
nodes = (
(276,473.333,o),
(278,505.333,o),
(278,522,cs),
(278,524,ls),
(278,528,o),
(275.667,530,o),
(271,530,cs),
(247.667,528.667,o),
(218.667,525.333,o),
(184,520,c),
(170,558,l),
(202,560.667,o),
(226.667,564,o),
(244,568,cs),
(266.667,573.333,o),
(275.667,580.667,o),
(293,598,cs),
(295.667,600.667,o),
(299,600.667,o),
(303,598,cs),
(354,560,ls),
(356.667,558,o),
(356.667,555.333,o),
(354,552,cs),
(341,533,ls),
(337.667,528.333,o),
(335.333,523.667,o),
(334,519,cs),
(332.667,513.667,o),
(320,463,o),
(320,435,c),
(272,426,l),
(272,426,l)
);
},
{
closed = 1;
nodes = (
(192.667,448,o),
(213,448.667,o),
(233,450,c),
(265.909,456.582,o),
(272.644,451.322,o),
(296,463,cs),
(301.333,465.667,o),
(304.667,467,o),
(306,467,cs),
(308.667,467,o),
(315,462.667,o),
(319,460,cs),
(363,431,l),
(359,416,l),
(311,414,o),
(272.167,411.667,o),
(242.5,409,cs),
(212.833,406.333,o),
(195,404.667,o),
(189,404,c),
(172,448,l),
(172,448,l)
);
},
{
closed = 1;
nodes = (
(462.333,234.667,o),
(459,202,o),
(459,168,cs),
(459,125,ls),
(459,57,o),
(460,0,o),
(462,-46,cs),
(463.333,-72.667,o),
(441.667,-115.667,o),
(423,-137,cs),
(419.667,-141,o),
(416.333,-141.333,o),
(413,-138,cs),
(365,-90,o),
(339.333,-68.667,o),
(278,-30,c),
(290,-8,l),
(390,-45,ls),
(394,-47,o),
(396.667,-45.333,o),
(398,-40,c),
(404,14,o),
(407,73.667,o),
(407,139,cs),
(406,206,ls),
(403.333,258,o),
(400.333,286.333,o),
(387,305,c),
(401,318,l),
(469,266,l),
(469,266,l)
);
},
{
closed = 1;
nodes = (
(655,530,o),
(696.333,534.333,o),
(753,541,cs),
(791,545,ls),
(820.333,549,o),
(844,554.667,o),
(880,588,c),
(883.333,590,o),
(886,590,o),
(888,588,cs),
(948,525,l),
(950.667,523,o),
(950.333,520.333,o),
(947,517,cs),
(905,482,ls),
(891,470,o),
(861.667,429,o),
(817,359,c),
(797,371,l),
(842,491,ls),
(844,495.667,o),
(842.333,498,o),
(837,498,cs),
(610,478,l),
(629,528,l),
(629,528,l)
);
},
{
closed = 1;
nodes = (
(200.333,531.333,o),
(200,515,o),
(200,493,cs),
(200,449.667,o),
(202.333,408,o),
(207,368,c),
(193,359,l),
(146,412,ls),
(143.333,414.667,o),
(143,418,o),
(145,422,cs),
(148.333,429.333,o),
(150.333,436.333,o),
(151,443,cs),
(151.667,449.667,o),
(152,462.333,o),
(152,481,cs),
(152,530.333,o),
(144,552,o),
(116,584,c),
(126,597,l),
(201,542,l),
(201,542,l)
);
},
{
closed = 1;
nodes = (
(267,90.333,o),
(269,128,o),
(269,156,cs),
(269,158,ls),
(269,162,o),
(266.667,164,o),
(262,164,cs),
(240,162.667,o),
(207,158.667,o),
(163,152,c),
(149,192,l),
(173.667,194,o),
(199,197.333,o),
(225,202,cs),
(248.333,206,o),
(268,216,o),
(284,232,cs),
(287.333,235.333,o),
(290.667,235.333,o),
(294,232,cs),
(342,194,ls),
(344.667,192,o),
(345,189.667,o),
(343,187,cs),
(329,167,ls),
(325.667,162.333,o),
(323.333,157.667,o),
(322,153,cs),
(315.333,123.667,o),
(307,72,o),
(307,52,c),
(263,43,l),
(263,43,l)
);
},
{
closed = 1;
nodes = (
(580,476,o),
(617.667,586.667,o),
(631,682,cs),
(631.667,686,o),
(632,692,o),
(632,700,cs),
(632,722.667,o),
(627.667,740.333,o),
(619,753,c),
(633,764,l),
(716,684,l),
(703.333,660,o),
(690,628.333,o),
(676,589,cs),
(642,497.667,o),
(597.333,412.667,o),
(542,334,c),
(518,350,l),
(518,350,l)
);
},
{
closed = 1;
nodes = (
(599.667,-31.667,o),
(671,120.667,o),
(671,306,cs),
(671,322.667,o),
(670.667,335,o),
(670,343,cs),
(668.667,374.333,o),
(662,399.667,o),
(650,419,c),
(661,430,l),
(748,368,l),
(740.667,339.333,o),
(735.333,308.333,o),
(732,275,cs),
(716,73.667,o),
(637.333,-60.333,o),
(476,-163,c),
(461,-141,l),
(461,-141,l)
);
},
{
closed = 1;
nodes = (
(193.667,628.667,o),
(163,623.667,o),
(137,617,c),
(69,663,l),
(74,675,l),
(98.667,672.333,o),
(123,671,o),
(147,671,cs),
(160.333,671,o),
(176.333,671.667,o),
(195,673,cs),
(295,680.333,o),
(362,687,o),
(396,693,cs),
(418,697,o),
(439.333,704.333,o),
(460,715,cs),
(463.333,716.333,o),
(466.333,716.333,o),
(469,715,cs),
(552,676,l),
(549,660,l),
(459.667,656,o),
(295.667,640,o),
(229,632,cs)
);
},
{
closed = 1;
nodes = (
(158.667,281.667,o),
(128,276.667,o),
(102,270,c),
(34,315,l),
(39,327,l),
(63.667,324.333,o),
(88,323,o),
(112,323,cs),
(125.333,323,o),
(141.333,323.667,o),
(160,325,cs),
(225.333,329,o),
(374,344,o),
(414,352,cs),
(445.333,357.333,o),
(466.667,363,o),
(478,369,cs),
(481.333,370.333,o),
(484.333,370.333,o),
(487,369,cs),
(570,334,l),
(567,318,l),
(475,312.667,o),
(282,294.333,o),
(194,285,cs)
);
},
{
closed = 1;
nodes = (
(464.667,592,o),
(462,559.333,o),
(462,516,cs),
(461,329,l),
(449,323,l),
(396,388,ls),
(394,390,o),
(394,393,o),
(396,397,cs),
(404.667,419,o),
(409,439.667,o),
(409,459,cs),
(409,570,ls),
(409,600,o),
(402.333,629.333,o),
(389,658,c),
(412,667,l),
(470,614,l),
(470,614,l)
);
},
{
closed = 1;
nodes = (
(173.667,72,o),
(194,72.667,o),
(214,74,c),
(246.909,80.582,o),
(253.644,75.322,o),
(277,87,cs),
(282.333,89.667,o),
(285.667,91,o),
(287,91,cs),
(289.667,91,o),
(296,86.667,o),
(300,84,cs),
(344,55,l),
(340,40,l),
(292,38,o),
(253.167,35.667,o),
(223.5,33,cs),
(193.833,30.333,o),
(176,28.667,o),
(170,28,c),
(153,72,l),
(153,72,l)
);
},
{
closed = 1;
nodes = (
(182.333,176.333,o),
(182,158,o),
(182,132,cs),
(182,68,o),
(184.333,16,o),
(189,-24,c),
(175,-33,l),
(126,21,ls),
(123.333,23.667,o),
(123,27,o),
(125,31,cs),
(130.333,45.667,o),
(132,52.333,o),
(132,71,cs),
(132,126,ls),
(132,175.333,o),
(124,197,o),
(96,229,c),
(106,242,l),
(183,187,l),
(183,187,l)
);
}
);
width = 1000;
}
);
unicode = 27468;
}
{
glyphname = u18B13;
layers = (
{
layerId = master01;
shapes = (
{
closed = 1;
nodes = (
(313.667,407,o),
(355,411,o),
(377,413,cs),
(407,416.333,o),
(465.5,422.333,o),
(552.5,431,cs),
(639.5,439.667,o),
(688,445,o),
(698,447,cs),
(726.667,453,o),
(748.333,463.667,o),
(763,479,c),
(767,481.667,o),
(770.667,481.667,o),
(774,479,cs),
(826,436,l),
(829.333,434,o),
(829.333,431,o),
(826,427,cs),
(812,408,ls),
(808.667,403.333,o),
(806.333,398.333,o),
(805,393,cs),
(799.667,363.667,o),
(786.333,254.667,o),
(781,200,c),
(719,191,l),
(728.333,264.333,o),
(737.333,352.667,o),
(740,390,cs),
(740,394,ls),
(740,396.667,o),
(737.667,398,o),
(733,398,cs),
(625,388.667,o),
(308,358.667,o),
(252,352,c),
(253,401,l),
(253,401,l)
);
},
{
closed = 1;
nodes = (
(281,367,o),
(278,332.667,o),
(278,290,cs),
(277,70,l),
(264,64,l),
(205,132,ls),
(203,134,o),
(203,137,o),
(205,141,cs),
(215,162.333,o),
(220,184,o),
(220,206,cs),
(220.667,224.667,o),
(221,249.667,o),
(221,281,cs),
(221,310.333,o),
(220.667,332.333,o),
(220,347,cs),
(218.667,387,o),
(207,435,o),
(179,467,c),
(189,479,l),
(287,393,l),
(287,393,l)
);
},
{
closed = 1;
nodes = (
(189.667,-110.333,o),
(149,-116,o),
(111,-124,c),
(36,-65,l),
(41,-52,l),
(81,-56,o),
(116.333,-58,o),
(147,-58,cs),
(159,-58,o),
(176.333,-57.333,o),
(199,-56,cs),
(348.333,-49.333,o),
(526.667,-37,o),
(734,-19,cs),
(800.667,-15,o),
(832.333,-9.667,o),
(863,9,cs),
(865.667,10.333,o),
(867.667,10.5,o),
(869,9.5,cs),
(870.333,8.5,o),
(871.333,8,o),
(872,8,c),
(963,-46,l),
(960,-61,l),
(758.667,-70.333,o),
(511,-86.667,o),
(279,-104,cs),
(233,-107,l),
(233,-107,l)
);
},
{
closed = 1;
nodes = (
(295.333,609,o),
(254.667,602.333,o),
(214,593,c),
(136,650,l),
(141,664,l),
(169.667,661.333,o),
(198.333,660,o),
(227,660,cs),
(252.333,660,o),
(277,661,o),
(301,663,cs),
(372.333,669,o),
(451.333,676.333,o),
(538,685,cs),
(564.667,688.333,o),
(592.667,691.333,o),
(622,694,cs),
(686,700.667,o),
(719,707,o),
(751,727,cs),
(753.667,728.333,o),
(756.667,728,o),
(760,726,cs),
(853,673,l),
(850,658,l),
(626,643.333,o),
(521.333,633,o),
(336,613,cs)
);
},
{
closed = 1;
nodes = (
(356.667,189,o),
(481.333,200,o),
(610,212,cs),
(674,218.667,o),
(707,225.333,o),
(739,244,cs),
(741.667,245.333,o),
(744.667,245,o),
(748,243,cs),
(841,194,l),
(838,179,l),
(588.667,163,o),
(469.333,154.667,o),
(240,132,c),
(236,179,l),
(236,179,l)
);
},
{
closed = 1;
nodes = (
(535,562.667,o),
(532,528.333,o),
(532,491,cs),
(532,-65,l),
(472,-72,l),
(472,244,ls),
(472,419.333,o),
(471.667,520.667,o),
(471,548,cs),
(469.667,578.667,o),
(459.667,618.667,o),
(441,648,c),
(468,655,l),
(541,594,l),
(541,594,l)
);
}
);
width = 1000;
}
);
unicode = 101139;
}
{
glyphname = u18B1B;
layers = (
{
layerId = master01;
shapes = (
{
closed = 1;
nodes = (
(540,599,l),
(538.667,589,o),
(537.5,577.167,o),
(536.5,563.5,cs),
(535.5,549.833,o),
(534.667,539.333,o),
(534,532,cs),
(533,511,ls),
(527.667,379,o),
(504.167,272.333,o),
(427.5,167,cs),
(389.167,114.333,o),
(335.667,65.667,o),
(267,21,c),
(249,44,l),
(414.333,172,o),
(464,313.667,o),
(464,495,cs),
(464,523.667,o),
(463,552.333,o),
(461,581,cs),
(458.333,610.333,o),
(447,642.333,o),
(431,657,c),
(453,663,l),
(453,663,l)
);
},
{
closed = 1;
nodes = (
(550.333,440.667,o),
(693.333,451.667,o),
(714,455,cs),
(761.333,464.333,o),
(796.333,480.333,o),
(819,503,cs),
(822.333,506.333,o),
(825.667,506.333,o),
(829,503,cs),
(889,440,l),
(892.333,437.333,o),
(892.333,434.333,o),
(889,431,cs),
(864,408,ls),
(856,401.333,o),
(854,399,o),
(854,391,cs),
(854,253,o),
(852.5,153.333,o),
(849.5,92,cs),
(846.5,30.667,o),
(840,-21.667,o),
(830,-65,cs),
(822.667,-97,o),
(811,-120.667,o),
(795,-136,cs),
(793,-138,o),
(791,-139,o),
(789,-139,cs),
(785.667,-139,o),
(782.667,-137.333,o),
(780,-134,cs),
(754.667,-103.333,o),
(705.333,-62,o),
(632,-10,c),
(643,10,l),
(751,-38,ls),
(755,-40,o),
(758,-41,o),
(760,-41,cs),
(763.333,-41,o),
(765.667,-37.333,o),
(767,-30,cs),
(781,20.667,o),
(788,115.333,o),
(788,254,cs),
(788,316.667,o),
(787.333,365,o),
(786,399,cs),
(786,408.333,o),
(782.667,411.333,o),
(776,410,c),
(721.333,405.333,o),
(635.667,398.667,o),
(519,390,cs),
(351.667,377.333,o),
(245.667,368.667,o),
(201,364,c),
(197,416,l),
(285,422,l),
(285,422,l)
);
},
{
closed = 1;
nodes = (
(222.667,385,o),
(220,350.667,o),
(220,310,cs),
(220,-133,l),
(206,-139,l),
(143,-71,ls),
(141,-69,o),
(141,-66,o),
(143,-62,cs),
(153,-41.333,o),
(158,-19.667,o),
(158,3,cs),
(159.333,75,o),
(160,134.667,o),
(160,182,cs),
(160,231.333,o),
(159.333,290.667,o),
(158,360,cs),
(156.667,400,o),
(143,454,o),
(115,486,c),
(127,497,l),
(228,413,l),
(228,413,l)
);
},
{
closed = 1;
nodes = (
(236.333,606.333,o),
(194.667,600.333,o),
(156,593,c),
(77,651,l),
(82,664,l),
(114,660.667,o),
(147.667,659,o),
(183,659,cs),
(210.333,659,o),
(230.667,659.333,o),
(244,660,cs),
(426,674.667,o),
(574.667,687,o),
(690,697,cs),
(754,702.333,o),
(788,708.667,o),
(820,726,cs),
(822.667,727.333,o),
(825.667,727,o),
(829,725,cs),
(923,672,l),
(920,658,l),
(705.333,646,o),
(506.333,629.667,o),
(281,611,cs)
);
},
{
closed = 1;
nodes = (
(555.667,270.667,o),
(646.333,223.667,o),
(701,189,c),
(705,185,o),
(707,181.667,o),
(707,179,cs),
(712,90,l),
(696,81,l),
(628,162.333,o),
(568.667,215.333,o),
(466,282,c),
(477,304,l),
(477,304,l)
);
}
);
width = 1000;
}
);
unicode = 101147;
}
{
glyphname = u18B23;
layers = (
{
layerId = master01;
shapes = (
{
closed = 1;
nodes = (
(197.333,230.333,o),
(155.667,224.333,o),
(117,217,c),
(38,274,l),
(43,287,l),
(70.333,284.333,o),
(98,283,o),
(126,283,cs),
(153.333,283,o),
(179.667,284,o),
(205,286,cs),
(393,300,o),
(561.333,314.333,o),
(710,329,cs),
(776.667,335.667,o),
(809,341.333,o),
(841,360,cs),
(843.667,361.333,o),
(846.667,361,o),
(850,359,cs),
(944,307,l),
(941,292,l),
(751,278.667,o),
(534.667,261,o),
(292,239,cs),
(242,235,l),
(242,235,l)
);
},
{
closed = 1;
nodes = (
(313.333,590.667,o),
(272.667,584,o),
(224,574,c),
(147,630,l),
(152,643,l),
(181.333,640.333,o),
(211,639,o),
(241,639,cs),
(263.667,639,o),
(286.667,640,o),
(310,642,cs),
(401.333,648.667,o),
(499,658.333,o),
(603,671,cs),
(669.667,679,o),
(699,684.333,o),
(731,703,c),
(734.333,704.333,o),
(737.333,704,o),
(740,702,c),
(832,652,l),
(829,637,l),
(646.333,623.667,o),
(448,604,o),
(412,600,cs),
(346,594,l),
(346,594,l)
);
},
{
closed = 1;
nodes = (
(501.333,539.667,o),
(498,505.667,o),
(498,463,cs),
(498,-2,ls),
(498,-43.333,o),
(503.667,-54.667,o),
(533,-56,cs),
(568.333,-58,o),
(606.667,-59,o),
(648,-59,cs),
(728,-59,o),
(810.667,-55.333,o),
(848,-50,cs),
(869.333,-47.333,o),
(873.667,-42.333,o),
(875,-21,cs),
(884,130,l),
(908,130,l),
(914.667,63.333,o),
(932,-35.667,o),
(948,-81,c),
(948.667,-81.667,o),
(949,-83,o),
(949,-85,cs),
(949,-88.333,o),
(947.333,-90.667,o),
(944,-92,cs),
(915.333,-104.667,o),
(878,-112.333,o),
(832,-115,cs),
(763.333,-119.667,o),
(703,-122,o),
(651,-122,cs),
(623.667,-122,o),
(580,-120.667,o),
(520,-118,cs),
(458.667,-115.333,o),
(434,-85.667,o),
(434,-15,cs),
(434,518,ls),
(434,556.667,o),
(423.333,592.667,o),
(402,626,c),
(429,630,l),
(508,565,l),
(508,565,l)
);
}
);
width = 1000;
}
);
unicode = 101155;
}
{
glyphname = u18B2B;
layers = (
{
layerId = master01;
shapes = (
{
closed = 1;
nodes = (
(590.667,407,o),
(643.667,364.333,o),
(711,313,cs),
(787,255.667,o),
(865,222.333,o),
(965,209,c),
(965,181,l),
(779,166,ls),
(773,166,o),
(767.667,168.333,o),
(763,173,cs),
(703.667,236.333,o),
(617.333,321.333,o),
(504,428,c),
(552,441,l),
(552,441,l)
);
},
{
closed = 1;
nodes = (
(572.667,583,o),
(559,561.333,o),
(545,538,cs),
(451.667,378,o),
(281,200,o),
(77,84,c),
(59,110,l),
(256.333,243.333,o),
(419.333,423.667,o),
(490,593,cs),
(496.667,609.667,o),
(500,628.667,o),
(500,650,cs),
(500,658.667,o),
(499.667,665.333,o),
(499,670,c),
(527,677,l),
(586,603,l),
(586,603,l)
);
},
{
closed = 1;
nodes = (
(394,630.667,o),
(354.667,625.333,o),
(320,618,c),
(246,673,l),
(251,686,l),
(281.667,682.667,o),
(313,681,o),
(345,681,cs),
(357,681,o),
(376.333,681.667,o),
(403,683,cs),
(459.667,686.333,o),
(502,689.667,o),
(530,693,cs),
(578,699.667,o),
(605,704.333,o),
(637,723,c),
(640.333,724.333,o),
(643.333,724,o),
(646,722,cs),
(737,670,l),
(734,655,l),
(674,651.667,o),
(588.333,645.667,o),
(477,637,cs),
(438,634,l),
(438,634,l)
);
},
{
closed = 1;
nodes = (
(232.333,393.333,o),
(190.667,387.333,o),
(152,380,c),
(73,437,l),
(78,450,l),
(108,447.333,o),
(138.667,446,o),
(170,446,cs),
(186,446,o),
(209.333,446.667,o),
(240,448,cs),
(398.667,460,o),
(550,473,o),
(694,487,cs),
(764.667,495,o),
(793,498.333,o),
(825,517,cs),
(827.667,518.333,o),
(830.667,518,o),
(834,516,cs),
(928,464,l),
(925,449,l),
(718.333,435,o),
(502.333,418,o),
(277,398,cs)
);
},
{
closed = 1;
nodes = (
(809.333,716.333,o),
(858.667,684.333,o),
(904,649,c),
(906.667,647.667,o),
(909.333,642,o),
(908,638,c),
(896,546,l),
(880,542,l),
(848,607.333,o),
(798.333,676,o),
(741,728,c),
(756,745,l),
(756,745,l)
);
},
{
closed = 1;
nodes = (
(292,-43.333,o),
(409.667,85.333,o),
(455,196,cs),
(465,220,o),
(470,244,o),
(470,268,cs),
(470,272.667,o),
(469.333,280.333,o),
(468,291,c),
(481,296,l),
(543,179,l),
(537,173,o),
(528,162,o),
(516,146,cs),
(509.333,136.667,o),
(504,129.667,o),
(500,125,cs),
(410.667,10.333,o),
(312.333,-79.667,o),
(175,-169,c),
(156,-142,l),
(156,-142,l)
);
},
{
closed = 1;
nodes = (
(615,76,o),
(694,27.333,o),
(790,-46,cs),
(792.667,-48,o),
(794,-51,o),
(794,-55,cs),
(787,-154,l),
(770,-157,l),
(690,-58.333,o),
(580.333,45.333,o),
(463,124,c),
(483,148,l),
(483,148,l)
);
}
);
width = 1000;
}
);
unicode = 101163;
}
{
glyphname = u18B31;
layers = (
{
layerId = master01;
shapes = (
{
closed = 1;
nodes = (
(298,188.667,o),
(272.667,85.833,o),
(202,-9.5,cs),
(166.667,-57.167,o),
(116,-103.667,o),
(50,-149,c),
(34,-127,l),
(150,-36.333,o),
(207.667,62.5,o),
(229,184.5,cs),
(239.667,245.5,o),
(244.667,319.667,o),
(244,407,cs),
(244,448.333,o),
(231.333,496,o),
(202,528,c),
(213,540,l),
(317,454,l),
(312.333,435.333,o),
(308.667,400.667,o),
(306,350,cs)
);
},
{
closed = 1;
nodes = (
(331.333,599.333,o),
(290.667,593,o),
(242,583,c),
(165,639,l),
(170,652,l),
(200,650,o),
(226.667,649,o),
(250,649,cs),
(277.333,649,o),
(303.333,650,o),
(328,652,cs),
(490.667,666,o),
(601.667,676,o),
(661,682,cs),
(723.667,688.667,o),
(758,695.333,o),
(790,714,c),
(793.333,715.333,o),
(796.333,715.333,o),
(799,714,cs),
(891,664,l),
(888,649,l),
(806,643,o),
(717.667,635.5,o),
(623,626.5,cs),
(528.333,617.5,o),
(465,611.667,o),
(433,609,cs),
(417.667,607,o),
(394.667,604.667,o),
(364,602,cs)
);
},
{
closed = 1;
nodes = (
(582,181.667,o),
(580.667,345,o),
(578,419,cs),
(576.667,459,o),
(565,507,o),
(537,539,c),
(547,551,l),
(653,465,l),
(646.333,436.333,o),
(643,402,o),
(643,362,cs),
(643,-64,l),
(582,-71,l),
(582,-71,l)
);
},
{
closed = 1;
nodes = (
(425,-106,o),
(393.667,-110,o),
(361,-116,c),
(295,-61,l),
(300,-49,l),
(326,-52.333,o),
(352,-54,o),
(378,-54,cs),
(398,-54,o),
(412.667,-53.667,o),
(422,-53,cs),
(556.667,-47.667,o),
(710,-37.667,o),
(782,-27,cs),
(811.333,-23.667,o),
(837,-16.333,o),
(859,-5,cs),
(861.667,-3.667,o),
(864.667,-4,o),
(868,-6,cs),
(950,-52,l),
(947,-69,l),
(876.333,-71.667,o),
(497.667,-98.667,o),
(455,-104,cs)
);
},
{
closed = 1;
nodes = (
(518.333,206.667,o),
(486.333,201.333,o),
(455,194,c),
(386,245,l),
(391,257,l),
(417,255,o),
(439.333,254,o),
(458,254,cs),
(474,254,o),
(493.333,254.667,o),
(516,256,cs),
(561,259,ls),
(640.333,263.667,o),
(687.667,267.333,o),
(703,270,cs),
(725,273.333,o),
(747.333,280,o),
(770,290,cs),
(772.667,291.333,o),
(775.667,291.333,o),
(779,290,cs),
(865,248,l),
(862,231,l),
(763.333,225.667,o),
(589.667,214,o),
(551,210,cs)
);
}
);
width = 1000;
}
);
unicode = 101169;
}
{
glyphname = u18B38;
layers = (
{
layerId = master01;
shapes = (
{
closed = 1;
nodes = (
(422.333,-36.667,o),
(559.667,-28,o),
(667,-20,cs),
(735,-13.333,o),
(765,-9.667,o),
(797,9,cs),
(799.667,10.333,o),
(802.667,10,o),
(806,8,cs),
(898,-49,l),
(895,-64,l),
(829,-67,ls),
(629.667,-77,o),
(453.333,-87.333,o),
(300,-98,cs),
(266.667,-100.667,o),
(245.667,-105.333,o),
(237,-112,cs),
(206,-135,ls),
(201.333,-138.333,o),
(198,-138.333,o),
(196,-135,cs),
(151,-72,ls),
(148.333,-68,o),
(148.333,-64.667,o),
(151,-62,c),
(169.667,-48.667,o),
(183.333,-16.333,o),
(186,29,cs),
(187.333,49,o),
(188,73.667,o),
(188,103,cs),
(188,137.667,o),
(169.667,186.667,o),
(143,216,c),
(154,228,l),
(256,145,l),
(251.333,132.333,o),
(248.5,115.833,o),
(247.5,95.5,cs),
(246.5,75.167,o),
(245.333,33,o),
(244,-31,cs),
(244,-43,o),
(245.667,-46,o),
(255,-46,cs)
);
},
{
closed = 1;
nodes = (
(274,367.667,o),
(248.333,362.667,o),
(195,352,c),
(117,410,l),
(122,423,l),
(149.333,419.667,o),
(179.333,418,o),
(212,418,cs),
(235.333,418,o),
(258.667,419,o),
(282,421,cs),
(327.333,423.667,o),
(436,431.333,o),
(608,444,cs),
(698,451,ls),
(763.333,456.333,o),
(796,462.333,o),
(828,481,cs),
(830.667,482.333,o),
(833.667,482,o),
(837,480,cs),
(930,428,l),
(927,413,l),
(859,409,ls),
(620.333,394.333,o),
(520.667,387.667,o),
(318,369,c)
);
},
{
closed = 1;
nodes = (
(491,344,ls),
(491,449.333,o),
(490,545,o),
(488,631,cs),
(486.667,669.667,o),
(472.333,719,o),
(443,751,c),
(454,763,l),
(561,677,l),
(555,645.667,o),
(552,611.333,o),
(552,574,cs),
(552,296.667,o),
(552.333,88.333,o),
(553,-51,c),
(490,-58,l),
(490,28,l),
(490,28,l)
);
}
);
width = 1000;
}
);
unicode = 101176;
}
{
glyphname = u18B39;
layers = (
{
layerId = master01;
shapes = (
{
closed = 1;
nodes = (
(266,367.667,o),
(240.333,362.667,o),
(187,352,c),
(109,410,l),
(114,423,l),
(141.333,419.667,o),
(171.333,418,o),
(204,418,cs),
(228,418,o),
(251.333,419,o),
(274,421,cs),
(319.333,423.667,o),
(428,431.333,o),
(600,444,cs),
(690,451,ls),
(755.333,456.333,o),
(788,462.333,o),
(820,481,cs),
(822.667,482.333,o),
(825.667,482,o),
(829,480,cs),
(922,428,l),
(919,413,l),
(851,409,ls),
(612.333,394.333,o),
(512.667,387.667,o),
(310,369,c)
);
},
{
closed = 1;
nodes = (
(471,344,ls),
(471,449.333,o),
(470,545,o),
(468,631,cs),
(466.667,669.667,o),
(452.333,719,o),
(423,751,c),
(434,763,l),
(541,677,l),
(535,645.667,o),
(532,611.333,o),
(532,574,cs),
(532,296.667,o),
(532.333,88.333,o),
(533,-51,c),
(470,-58,l),
(470,28,l),
(470,28,l)
);
},
{
closed = 1;
nodes = (
(865.667,140,o),
(862.333,113.667,o),
(861,83,cs),
(858.333,13.667,o),
(856.333,-25,o),
(847,-73,cs),
(840.333,-105,o),
(824.333,-140.667,o),
(811,-154,cs),
(807,-158,o),
(804,-158,o),
(802,-154,cs),
(750,-47,l),
(762,-50.333,o),
(770.5,-53.333,o),
(775.5,-56,cs),
(780.5,-58.667,o),
(783.333,-60,o),
(784,-60,cs),
(786.667,-60,o),
(787,-53.333,o),
(787,-52,cs),
(797.667,9.333,o),
(799,45.667,o),
(799,119,cs),
(799,157.667,o),
(783.333,207,o),
(754,239,c),
(765,251,l),
(871,162,l),
(871,162,l)
);
},
{
closed = 1;
nodes = (
(326.333,-59.667,o),
(452.667,-51,o),
(610,-39,cs),
(678,-32.333,o),
(708,-28.667,o),
(740,-10,cs),
(742.667,-8.667,o),
(745.667,-9,o),
(749,-11,cs),
(841,-64,l),
(838,-79,l),
(724,-85,ls),
(698.667,-86.333,o),
(645.333,-89.167,o),
(564,-93.5,cs),
(482.667,-97.833,o),
(386.667,-104.333,o),
(276,-113,cs),
(242.667,-115.667,o),
(221.667,-120.333,o),
(213,-127,cs),
(182,-150,ls),
(177.333,-153.333,o),
(174,-153.333,o),
(172,-150,cs),
(127,-87,ls),
(124.333,-83,o),
(124.333,-79.667,o),
(127,-77,c),
(145.667,-63.667,o),
(159.333,-31.333,o),
(162,14,cs),
(163.333,34,o),
(164,58.667,o),
(164,88,cs),
(164,122.667,o),
(145.667,171.667,o),
(119,201,c),
(130,213,l),
(232,130,l),
(228,117.333,o),
(225.333,100.5,o),
(224,79.5,cs),
(222.667,58.5,o),
(221.333,15.333,o),
(220,-50,cs),
(220,-62,o),
(221.667,-65,o),
(231,-65,cs)
);
}
);
width = 1000;
}
);
unicode = 101177;
}
{
glyphname = u18B50;
layers = (
{
layerId = master01;
shapes = (
{
closed = 1;
nodes = (
(806,-115,ls),
(805.333,-115,o),
(804.5,-115.167,o),
(803.5,-115.5,cs),
(802.5,-115.833,o),
(801.333,-115.667,o),
(800,-115,c),
(792,-115,o),
(784.333,-111,o),
(777,-103,c),
(685,21.667,o),
(600.333,122,o),
(523,198,c),
(551,228,l),
(566.333,213.333,o),
(609,172,o),
(679,104,cs),
(709,74,o),
(724,59,o),
(724,59,c),
(792,-5,o),
(829.333,-34.333,o),
(876,-53,cs),
(899.333,-62.333,o),
(927,-68.667,o),
(959,-72,c),
(958,-98,l),
(958,-98,l)
);
},
{
closed = 1;
nodes = (
(517.333,424,o),
(631.333,435.667,o),
(682,445,cs),
(726.667,453.667,o),
(760.667,469.667,o),
(784,493,cs),
(786.667,495.667,o),
(788.667,497,o),
(790,497,cs),
(792,497,o),
(794.667,495.333,o),
(798,492,cs),
(854,433,ls),
(856,431,o),
(857,429,o),
(857,427,cs),
(857,424.333,o),
(855.667,421.667,o),
(853,419,cs),
(851,417,o),
(846.333,413.333,o),
(839,408,cs),
(831.667,402.667,o),
(822.667,393.667,o),
(812,381,cs),
(749.333,307.667,o),
(689,263.333,o),
(625,230,cs),
(593,213.333,o),
(548.333,192.667,o),
(491,168,c),
(474,199,l),
(618,271,o),
(676.667,312.333,o),
(742,387,cs),
(746.667,392.333,o),
(749,396.333,o),
(749,399,cs),
(749,402.333,o),
(744.667,403.333,o),
(736,402,cs),
(494,371,l),
(472,424,l),
(472,424,l)
);
},
{
closed = 1;
nodes = (
(288.333,161.333,o),
(256,78.833,o),
(188,-0.5,cs),
(154,-40.167,o),
(108.333,-79,o),
(51,-117,c),
(34,-94,l),
(174,12.667,o),
(232,134.667,o),
(252,300,cs),
(253.333,308,o),
(254,319,o),
(254,333,cs),
(254,363.667,o),
(246.333,397,o),
(231,433,c),
(245,443,l),
(334,357,l),
(326.667,337.667,o),
(320.333,314.667,o),
(315,288,cs)
);
},
{
closed = 1;
nodes = (
(516,405.667,o),
(519,110.667,o),
(523,8,cs),
(524.333,-16,o),
(523.333,-37.667,o),
(520,-57,cs),
(512,-101,o),
(504,-120,o),
(488,-144,cs),
(483.333,-152,o),
(479,-156,o),
(475,-156,cs),
(471.667,-156,o),
(467.667,-153.667,o),
(463,-149,cs),
(398.333,-81.667,o),
(339.667,-28,o),
(287,12,c),
(301,36,l),
(436,-47,ls),
(438,-48.333,o),
(440.333,-49,o),
(443,-49,cs),
(449.667,-49,o),
(453.667,-42.667,o),
(455,-30,cs),
(457.667,0,o),
(459,69,o),
(459,177,cs),
(459,349,o),
(456.667,562.333,o),
(454,625,cs),
(452.667,667.667,o),
(438,728,o),
(410,760,c),
(421,772,l),
(525,686,l),
(519,654.667,o),
(516,620.333,o),
(516,583,cs)
);
},
{
closed = 1;
nodes = (
(221.333,525.667,o),
(180.333,520,o),
(141,512,c),
(64,570,l),
(69,583,l),
(99.667,579.667,o),
(132.667,578,o),
(168,578,cs),
(182,578,o),
(202.333,578.667,o),
(229,580,cs),
(286,584,ls),
(409.333,592,o),
(531.333,601,o),
(652,611,cs),
(713.333,616.333,o),
(748.667,624.333,o),
(782,643,cs),
(784.667,644.333,o),
(787.667,644,o),
(791,642,cs),
(883,590,l),
(880,575,l),
(734,566.333,o),
(570.333,554.333,o),
(389,539,cs),
(264,529,l),
(264,529,l)
);
}
);
width = 1000;
}
);
unicode = 101200;
}
{
glyphname = u18B54;
layers = (
{
layerId = master01;
shapes = (
{
closed = 1;
nodes = (
(269,299.667,o),
(228.333,293.667,o),
(185,285,c),
(109,340,l),
(114,353,l),
(144.667,349.667,o),
(177.333,348,o),
(212,348,cs),
(225.333,348,o),
(245.333,348.667,o),
(272,350,cs),
(415,359,ls),
(539,367,o),
(621.667,373,o),
(663,377,cs),
(729.667,382.333,o),
(760,387.333,o),
(792,406,c),
(795.333,407.333,o),
(798.333,407.333,o),
(801,406,cs),
(892,356,l),
(889,341,l),
(635.667,326.333,o),
(441.667,313.667,o),
(307,303,cs)
);
},
{
closed = 1;
nodes = (
(465,487,o),
(464.333,576,o),
(463,624,cs),
(461.667,662.667,o),
(446.333,712,o),
(417,744,c),
(428,756,l),
(536,670,l),
(529.333,641.333,o),
(526,607,o),
(526,567,cs),
(526,-38,l),
(464,-45,l),
(465,357,l),
(465,357,l)
);
},
{
closed = 1;
nodes = (
(192.333,-94,o),
(151.333,-99.667,o),
(106,-109,c),
(29,-51,l),
(34,-38,l),
(64.667,-41.333,o),
(97.667,-43,o),
(133,-43,cs),
(147,-43,o),
(167.333,-42.333,o),
(194,-41,cs),
(419.333,-29,o),
(602.333,-16.667,o),
(743,-4,cs),
(811,2.667,o),
(841,6.333,o),
(873,25,cs),
(875.667,26.333,o),
(878.667,26,o),
(882,24,cs),
(974,-29,l),
(971,-44,l),
(713,-56.667,o),
(465.667,-72.667,o),
(229,-92,cs)
);
}
);
width = 1000;
}
);
unicode = 101204;
}
{
glyphname = u18B56;
layers = (
{
layerId = master01;
shapes = (
{
closed = 1;
nodes = (
(383.333,318.333,o),
(406,332,o),
(428,354,cs),
(431.333,357.333,o),
(434.333,357.333,o),
(437,354,cs),
(499,293,ls),
(502.333,290.333,o),
(502.333,287.333,o),
(499,284,cs),
(471,259,ls),
(467,255.667,o),
(462.667,248.667,o),
(458,238,cs),
(395.333,62,o),
(238.333,-83,o),
(41,-155,c),
(28,-129,l),
(213.333,-43.667,o),
(349.667,99,o),
(391,255,cs),
(392,259,l),
(392,264.333,o),
(389,266.333,o),
(383,265,c),
(308.333,258.333,o),
(250.667,251.667,o),
(210,245,cs),
(200.667,243.667,o),
(155.667,235.667,o),
(133,229,c),
(64,278,l),
(69,291,l),
(79.667,289.667,o),
(95.667,289,o),
(117,289,cs),
(141,289,o),
(162.667,290,o),
(182,292,cs),
(259,300,ls),
(300.333,303.333,o),
(334,307.667,o),
(360,313,cs)
);
},
{
closed = 1;
nodes = (
(590,660,o),
(575,703.333,o),
(547,738,c),
(558,750,l),
(664,663,l),
(657.333,637.667,o),
(654,603.667,o),
(654,561,cs),
(654,-3,ls),
(654,-44.333,o),
(659.667,-55.667,o),
(689,-57,cs),
(701,-57.667,o),
(720,-58,o),
(746,-58,cs),
(798.667,-58,o),
(841.667,-55.667,o),
(875,-51,cs),
(896.333,-49.667,o),
(900.667,-43.333,o),
(902,-22,cs),
(910,135,l),
(934,135,l),
(940.667,53.667,o),
(956.333,-26,o),
(975,-82,c),
(975.667,-82.667,o),
(976,-84,o),
(976,-86,cs),
(976,-89.333,o),
(974.333,-91.667,o),
(971,-93,cs),
(946.333,-103.667,o),
(909,-111.333,o),
(859,-116,cs),
(829.667,-119.333,o),
(794.667,-121,o),
(754,-121,cs),
(738,-121,o),
(712,-120.333,o),
(676,-119,cs),
(614.667,-116.333,o),
(590,-86.667,o),
(590,-16,cs),
(590,616,l),
(590,616,l)
);
},
{
closed = 1;
nodes = (
(699.667,393.667,o),
(787.333,356,o),
(880,310,cs),
(883.333,308.667,o),
(885,305.667,o),
(885,301,cs),
(887,204,l),
(872,197,l),
(806.667,263.667,o),
(708.333,342.333,o),
(611,393,c),
(617,423,l),
(617,423,l)
);
},
{
closed = 1;
nodes = (
(173.333,476,o),
(142.333,471.333,o),
(107,464,c),
(40,517,l),
(45,529,l),
(69,526.333,o),
(92,525,o),
(114,525,cs),
(129.333,525,o),
(147,525.667,o),
(167,527,cs),
(209.667,528.333,o),
(337,539.667,o),
(397,545,cs),
(433.084,548.608,o),
(451.597,560.298,o),
(461,565,cs),
(463.667,566.333,o),
(466.667,566,o),
(470,564,cs),
(552,518,l),
(549,501,l),
(471.667,498.333,o),
(245.333,483.333,o),
(200,478,cs)
);
},
{
closed = 1;
nodes = (
(258,440.667,o),
(256.667,557,o),
(254,631,cs),
(252.667,672.333,o),
(240.333,719,o),
(211,751,c),
(222,763,l),
(330,677,l),
(323.333,648.333,o),
(320,614,o),
(320,574,cs),
(320,289,l),
(258,282,l),
(258,282,l)
);
}
);
width = 1000;
}
);
unicode = 101206;
}
{
glyphname = u18B5E;
layers = (
{
layerId = master01;
shapes = (
{
closed = 1;
nodes = (
(521,71,l),
(261,-72,ls),
(213.667,-97.333,o),
(180,-117.333,o),
(160,-132,c),
(63,-94,l),
(63,-81,l),
(109.667,-67.667,o),
(154.333,-52,o),
(197,-34,cs),
(508,99,l),
(508,99,l)
);
},
{
closed = 1;
nodes = (
(558,656,o),
(543,699.333,o),
(515,734,c),
(526,746,l),
(632,659,l),
(625.333,633.667,o),
(622,599.667,o),
(622,557,cs),
(622,-10,ls),
(622,-51.333,o),
(627.667,-62.667,o),
(657,-64,cs),
(683.667,-65.333,o),
(704.667,-66,o),
(720,-66,cs),
(772,-66,o),
(820.667,-62.667,o),
(866,-56,c),
(887.333,-54.667,o),
(891.667,-48.333,o),
(893,-27,cs),
(901,171,l),
(925,171,l),
(933,75,o),
(948.667,-36.333,o),
(966,-87,c),
(966.667,-87.667,o),
(967,-89,o),
(967,-91,cs),
(967,-94.333,o),
(965.333,-96.667,o),
(962,-98,cs),
(937.333,-108.667,o),
(900,-116.333,o),
(850,-121,cs),
(808.667,-125.667,o),
(764.333,-128,o),
(717,-128,cs),
(701.667,-128,o),
(677.333,-127.333,o),
(644,-126,cs),
(582.667,-123.333,o),
(558,-93.667,o),
(558,-23,cs),
(558,612,l),
(558,612,l)
);
},
{
closed = 1;
nodes = (
(207.667,287.667,o),
(176.667,282.333,o),
(146,275,c),
(78,325,l),
(83,337,l),
(104.333,335,o),
(123.333,334,o),
(140,334,cs),
(147.333,334,o),
(169,335,o),
(205,337,cs),
(253,341,o),
(309,346.667,o),
(345,352,cs),
(366.333,355.333,o),
(381.833,359.333,o),
(391.5,364,cs),
(401.167,368.667,o),
(407,371.667,o),
(409,373,cs),
(411.667,374.333,o),
(414.667,374.333,o),
(418,373,cs),
(501,331,l),
(498,314,l),
(432.667,310,o),
(303,297.667,o),
(239,291,cs)
);
},
{
closed = 1;
nodes = (
(266,581,o),
(251,624.333,o),
(223,659,c),
(234,671,l),
(336,584,l),
(329.333,558.667,o),
(326,524.667,o),
(326,482,cs),
(326,4,l),
(266,-28,l),
(266,537,l),
(266,537,l)
);
}
);
width = 1000;
}
);
unicode = 101214;
}
{
glyphname = u18B66;
layers = (
{
layerId = master01;
shapes = (
{
closed = 1;
nodes = (
(678,39,ls),
(799.333,-54.333,o),
(858,-87.667,o),
(954,-97,c),
(953,-123,l),
(785,-134,ls),
(777,-134,o),
(771.667,-132.667,o),
(769,-130,cs),
(671,-38.667,o),
(584.667,39.333,o),
(510,104,c),
(539,145,l),
(575,117,l),
(575,117,l)
);
},
{
closed = 1;
nodes = (
(347.667,650,o),
(344,615.667,o),
(342,571,cs),
(338.667,451,o),
(336.333,322.333,o),
(335,185,cs),
(334,101,l),
(322,94,l),
(259,164,ls),
(257,166,o),
(257.333,169,o),
(260,173,cs),
(270.667,191.667,o),
(272.667,203.333,o),
(274,226,cs),
(278,318,o),
(280,422,o),
(280,538,cs),
(279,628,ls),
(277.667,669.333,o),
(266.333,717,o),
(237,749,c),
(248,761,l),
(353,674,l),
(353,674,l)
);
},
{
closed = 1;
nodes = (
(195.333,352.333,o),
(155,345.667,o),
(117,337,c),
(39,395,l),
(44,408,l),
(60.667,406.667,o),
(83.667,406,o),
(113,406,cs),
(143,406,o),
(172.667,407,o),
(202,409,cs),
(294.667,415.667,o),
(420.333,426,o),
(579,440,cs),
(649.667,446.667,o),
(700.333,451.333,o),
(731,454,cs),
(791,459.333,o),
(826.667,467.333,o),
(860,486,cs),
(863.333,488,o),
(866.333,488,o),
(869,486,cs),
(961,433,l),
(958,417,l),
(888,412,ls),
(600.667,390.667,o),
(384,372.333,o),
(238,357,cs)
);
},
{
closed = 1;
nodes = (
(366.667,-28.333,o),
(502.167,102.5,o),
(553.5,272.5,cs),
(579.167,357.5,o),
(595.667,470.667,o),
(603,612,cs),
(605.667,657.333,o),
(592.333,715.667,o),
(559,753,c),
(570,765,l),
(679,679,l),
(674.333,663.667,o),
(671.333,639.667,o),
(670,607,cs),
(654,285.667,o),
(586.667,109.167,o),
(424,-11.5,cs),
(342.667,-71.833,o),
(227.333,-125,o),
(78,-171,c),
(68,-139,l),
(68,-139,l)
);
}
);
width = 1000;
}
);
unicode = 101222;
}
{
glyphname = u18B67;
layers = (
{
layerId = master01;
shapes = (
{
closed = 1;
nodes = (
(416.333,197,o),
(524.333,120.333,o),
(667,27,cs),
(789.667,-54.333,o),
(854,-83.667,o),
(954,-89,c),
(954,-115,l),
(786,-138,l),
(782,-138,ls),
(776.667,-138,o),
(772.667,-137,o),
(770,-135,cs),
(632.667,-24.333,o),
(425.667,138.667,o),
(295,236,c),
(295,293,l),
(295,293,l)
);
},
{
closed = 1;
nodes = (
(196.333,422.333,o),
(156,415.667,o),
(118,407,c),
(40,465,l),
(45,478,l),
(73,476,o),
(98,475,o),
(120,475,cs),
(139.333,475,o),
(167,476.333,o),
(203,479,cs),
(339,490,ls),
(506.333,502.667,o),
(637,514,o),
(731,524,cs),
(793.667,530.667,o),
(828,537.333,o),
(860,556,cs),
(863.333,558,o),
(866.333,558,o),
(869,556,cs),
(961,503,l),
(958,487,l),
(893,482,ls),
(605.667,460.667,o),
(387.667,442.333,o),
(239,427,cs)
);
},
{
closed = 1;
nodes = (
(350,644,o),
(345,618.333,o),
(345,573,cs),
(338,322,ls),
(334,206,o),
(331.333,122,o),
(330,70,c),
(317,64,l),
(256,135,ls),
(254,137,o),
(254,140,o),
(256,144,cs),
(265.333,161.333,o),
(270.667,182.667,o),
(272,208,cs),
(277.333,286.667,o),
(281,463,o),
(281,591,cs),
(281,641,ls),
(281,678.333,o),
(268.667,723.667,o),
(242,753,c),
(254,765,l),
(358,676,l),
(358,676,l)
);
},
{
closed = 1;
nodes = (
(376,-32,o),
(517.167,101,o),
(572.5,273,cs),
(600.167,359,o),
(619,474,o),
(629,618,cs),
(633,662,o),
(618.333,721.667,o),
(585,759,c),
(596,771,l),
(706,685,l),
(702.667,674.333,o),
(700.5,660.833,o),
(699.5,644.5,cs),
(698.5,628.167,o),
(697.667,617.667,o),
(697,613,cs),
(675.667,283.667,o),
(604,106.667,o),
(436,-12,cs),
(352,-71.333,o),
(232.667,-124.667,o),
(78,-172,c),
(68,-140,l),
(68,-140,l)
);
}
);
width = 1000;
}
);
unicode = 101223;
}
{
glyphname = u18B69;
layers = (
{
layerId = master01;
shapes = (
{
closed = 1;
nodes = (
(387.667,40,o),
(510.333,15.667,o),
(669,-19,cs),
(727,-32.333,o),
(775,-39.667,o),
(813,-41,cs),
(847,-42,ls),
(887,-42,o),
(929,-39,o),
(973,-33,c),
(978,-53,l),
(804,-130,ls),
(800,-132,o),
(795.667,-133,o),
(791,-133,cs),
(786.333,-133,o),
(782,-132,o),
(778,-130,cs),
(638,-73.333,o),
(486.333,-28.333,o),
(323,5,cs),
(287.667,11.667,o),
(257.333,15,o),
(232,15,cs),
(214.667,15,o),
(198.333,13.667,o),
(183,11,cs),
(145.667,4.333,o),
(114.333,-6.333,o),
(89,-21,c),
(28,20,l),
(33,34,l),
(84.333,44.667,o),
(120,51.333,o),
(140,54,cs),
(177.333,58.667,o),
(205.333,61,o),
(224,61,cs),
(247.333,61,o),
(273,58.667,o),
(301,54,cs)
);
},
{
closed = 1;
nodes = (
(286,629,o),
(271,672.667,o),
(243,706,c),
(254,718,l),
(360,632,l),
(353.333,606.667,o),
(350,572.667,o),
(350,530,cs),
(347,24,l),
(286,35,l),
(286,585,l),
(286,585,l)
);
},
{
closed = 1;
nodes = (
(626,676,o),
(611,719.667,o),
(583,753,c),
(594,765,l),
(700,679,l),
(693.333,653.667,o),
(690,619.667,o),
(690,577,cs),
(686,-55,l),
(626,-44,l),
(626,632,l),
(626,632,l)
);
},
{
closed = 1;
nodes = (
(194,375,o),
(153.667,369.333,o),
(109,360,c),
(34,418,l),
(39,431,l),
(69,427.667,o),
(101.333,426,o),
(136,426,cs),
(150,426,o),
(169.667,426.667,o),
(195,428,cs),
(308.333,434.667,o),
(467,447.333,o),
(671,466,cs),
(739,472,ls),
(804.333,477.333,o),
(835,482.333,o),
(867,501,cs),
(869.667,502.333,o),
(872.333,501.333,o),
(875,500,cs),
(965,447,l),
(962,432,l),
(806,423.333,o),
(606,408.667,o),
(362,388,cs),
(230,377,l),
(230,377,l)
);
}
);
width = 1000;
}
);
unicode = 101225;
}
{
glyphname = u18B6F;
layers = (
{
layerId = master01;
shapes = (
{
closed = 1;
nodes = (
(244,487.333,o),
(203.333,481.333,o),
(162,472,c),
(86,530,l),
(91,543,l),
(120.333,540.333,o),
(150,539,o),
(180,539,cs),
(195.333,539,o),
(218.333,539.667,o),
(249,541,cs),
(397.667,551,o),
(546.333,563.333,o),
(695,578,cs),
(764.333,586,o),
(792,589.333,o),
(824,608,cs),
(826,609.333,o),
(829,609,o),
(833,607,cs),
(924,555,l),
(921,540,l),
(761,530,o),
(563.667,514.667,o),
(329,494,cs),
(284,490,l),
(284,490,l)
);
},
{
closed = 1;
nodes = (
(397.667,395,o),
(339.833,267.5,o),
(240.5,121.5,cs),
(190.833,48.5,o),
(133,-20.333,o),
(67,-85,c),
(45,-63,l),
(219.667,137,o),
(332,360.667,o),
(416,638,cs),
(424,666,o),
(428,692,o),
(428,716,cs),
(428,732.667,o),
(426,748,o),
(422,762,c),
(438,770,l),
(511,658,l),
(498.333,639.333,o),
(483.667,609,o),
(467,567,cs)
);
},
{
closed = 1;
nodes = (
(403.667,355.333,o),
(565,370.333,o),
(613,377,cs),
(659,383.667,o),
(694,399,o),
(718,423,cs),
(721.333,426.333,o),
(724.333,426.333,o),
(727,423,cs),
(785,364,ls),
(788.333,361.333,o),
(788.333,358.333,o),
(785,355,cs),
(770.333,342.333,o),
(756.333,328,o),
(743,312,cs),
(651,204,o),
(574.333,151,o),
(433,95,c),
(416,129,l),
(546.667,189,o),
(599.667,235.333,o),
(673,318,cs),
(677.667,323.333,o),
(680,327.333,o),
(680,330,cs),
(680,333.333,o),
(675.667,334.333,o),
(667,333,cs),
(320,296,l),
(329,350,l),
(329,350,l)
);
},
{
closed = 1;
nodes = (
(364.667,173,o),
(491.333,100.667,o),
(650,12,cs),
(771.333,-56,o),
(854,-84.667,o),
(954,-94,c),
(955,-120,l),
(786,-146,l),
(782,-146,ls),
(776.667,-146,o),
(772.667,-145,o),
(770,-143,cs),
(632.667,-51,o),
(412.333,88.333,o),
(255,183,c),
(270,229,l),
(270,229,l)
);
}
);
width = 1000;
}
);
unicode = 101231;
}
{
glyphname = u18B77;
layers = (
{
layerId = master01;
shapes = (
{
closed = 1;
nodes = (
(230.667,-30.333,o),
(346.167,105.667,o),
(405.5,287,cs),
(435.167,377.667,o),
(452,483,o),
(456,603,cs),
(457.333,655,o),
(448,714,o),
(416,750,c),
(427,762,l),
(542,676,l),
(535.333,654.667,o),
(531,631,o),
(529,605,cs),
(507.667,345,o),
(447.667,161.167,o),
(317,16.5,cs),
(251.667,-55.833,o),
(165.333,-118,o),
(58,-170,c),
(44,-141,l),
(44,-141,l)
);
},
{
closed = 1;
nodes = (
(229,373.333,o),
(188.333,367.333,o),
(147,358,c),
(71,416,l),
(76,429,l),
(105.333,426.333,o),
(135,425,o),
(165,425,cs),
(180.333,425,o),
(203.333,425.667,o),
(234,427,cs),
(410,438.333,o),
(567.667,450.667,o),
(707,464,cs),
(776.333,472,o),
(804,475.333,o),
(836,494,cs),
(838,495.333,o),
(841,495,o),
(845,493,cs),
(936,441,l),
(933,426,l),
(737.667,414,o),
(516.333,397.333,o),
(269,376,cs)
);
},
{
closed = 1;
nodes = (
(611.333,251,o),
(697.667,120,o),
(763,34,cs),
(819,-40.667,o),
(864.333,-66.333,o),
(963,-89,c),
(962,-116,l),
(768,-125,ls),
(760.667,-125,o),
(756,-122.667,o),
(754,-118,cs),
(708.667,-23.333,o),
(621,137,o),
(491,363,c),
(504,427,l),
(504,427,l)
);
},
{
closed = 1;
nodes = (
(428.333,85,o),
(489.667,43,o),
(531,11,c),
(533.667,7.667,o),
(535,3.333,o),
(535,-2,cs),
(532,-104,l),
(511,-112,l),
(476.333,-46.667,o),
(421,33.333,o),
(361,96,c),
(375,113,l),
(375,113,l)
);
}
);
width = 1000;
}
);
unicode = 101239;
}
{
glyphname = u18B7F;
layers = (
{
layerId = master01;
shapes = (
{
closed = 1;
nodes = (
(386.667,404.667,o),
(245.667,251.333,o),
(59,134,c),
(39,159,l),
(211,284.333,o),
(361.333,457.667,o),
(444,635,cs),
(459.333,667,o),
(467,700.333,o),
(467,735,cs),
(467,739.667,o),
(466.333,748,o),
(465,760,c),
(482,765,l),
(537,646,l),
(521,628.667,o),
(504,602,o),
(480,562,cs)
);
},
{
closed = 1;
nodes = (
(230,491.333,o),
(189.333,485.333,o),
(148,476,c),
(72,534,l),
(77,547,l),
(106.333,544.333,o),
(136,543,o),
(166,543,cs),
(181.333,543,o),
(204.333,543.667,o),
(235,545,cs),
(378.333,554.333,o),
(533.333,566.667,o),
(700,582,cs),
(769.333,590,o),
(797,593.333,o),
(829,612,cs),
(831,613.333,o),
(834,613,o),
(838,611,cs),
(929,559,l),
(926,544,l),
(732.667,532,o),
(514,515.333,o),
(270,494,cs)
);
},
{
closed = 1;
nodes = (
(791,203,ls),
(786.333,203,o),
(782,205.667,o),
(778,211,cs),
(708.667,301.667,o),
(587.333,438.667,o),
(502,528,c),
(535,554,l),
(610,478,ls),
(658.667,428,o),
(695,392.333,o),
(719,371,cs),
(788.333,308.333,o),
(827.5,279.667,o),
(877.5,261,cs),
(902.5,251.667,o),
(932.667,245,o),
(968,241,c),
(968,215,l),
(968,215,l)
);
},
{
closed = 1;
nodes = (
(765.333,178,o),
(761.667,151.667,o),
(757,111,cs),
(755.667,102.333,o),
(751.667,77,o),
(745,35,cs),
(739.667,0.333,o),
(723.667,-32.667,o),
(709,-46,cs),
(705,-50,o),
(702,-50,o),
(700,-46,cs),
(659,40,l),
(685,56,l),
(692.333,90.667,o),
(696,124.333,o),
(696,157,cs),
(696,191.667,o),
(685,221.667,o),
(663,247,c),
(674,259,l),
(768,190,l),
(768,190,l)
);
},
{
closed = 1;
nodes = (
(573.667,10.333,o),
(454.333,3.667,o),
(327,-5,cs),
(293.667,-7.667,o),
(272.667,-12.333,o),
(264,-19,cs),
(240,-37,ls),
(235.333,-40.333,o),
(232,-40.333,o),
(230,-37,c),
(183,21,ls),
(180.333,25,o),
(180.333,28.333,o),
(183,31,c),
(201.667,44.333,o),
(210.333,58.333,o),
(213,97,cs),
(214,132,ls),
(214,164,o),
(195.667,204.333,o),
(169,235,c),
(180,247,l),
(279,174,l),
(275,164.667,o),
(272.333,152.667,o),
(271,138,cs),
(269.667,123.333,o),
(268.667,96.667,o),
(268,58,cs),
(268,46,o),
(269.667,43,o),
(279,43,cs),
(356.333,45,o),
(456.333,51,o),
(579,61,cs),
(647,67.667,o),
(679.667,71.333,o),
(709,86,cs),
(713.667,88.667,o),
(716.667,89.667,o),
(718,89,cs),
(724,86,l),
(708,16,l),
(685,15,l),
(685,15,l)
);
},
{
closed = 1;
nodes = (
(510.333,270.333,o),
(507,236,o),
(507,192,cs),
(501,-163,l),
(489,-170,l),
(428,-100,ls),
(425.333,-97.333,o),
(425.333,-94.333,o),
(428,-91,c),
(436.667,-75.667,o),
(441.667,-55.667,o),
(443,-31,cs),
(445,15,o),
(446,75,o),
(446,149,cs),
(446,196.333,o),
(445.667,229.667,o),
(445,249,cs),
(445,289,o),
(433,336.667,o),
(405,370,c),
(416,382,l),
(517,295,l),
(517,295,l)
);
}
);
width = 1000;
}
);
unicode = 101247;
}
{
glyphname = u18B81;
layers = (
{
layerId = master01;
shapes = (
{
closed = 1;
nodes = (
(279.333,-34,o),
(392.667,94.667,o),
(442,268,cs),
(466.667,354.667,o),
(482.333,465,o),
(489,599,cs),
(491.667,648.333,o),
(480,712.667,o),
(448,750,c),
(459,762,l),
(574,676,l),
(569.333,660.667,o),
(565.667,637,o),
(563,605,cs),
(536.333,298.333,o),
(492.5,134.333,o),
(358.5,1,cs),
(291.5,-65.667,o),
(193.333,-124.333,o),
(64,-175,c),
(50,-146,l),
(50,-146,l)
);
},
{
closed = 1;
nodes = (
(277,478.333,o),
(236.333,472.333,o),
(195,463,c),
(119,521,l),
(124,534,l),
(153.333,531.333,o),
(183,530,o),
(213,530,cs),
(228.333,530,o),
(251.333,530.667,o),
(282,532,cs),
(410.667,540,o),
(546.667,551,o),
(690,565,cs),
(759.333,573,o),
(787,576.333,o),
(819,595,cs),
(821,596.333,o),
(824,596,o),
(828,594,cs),
(919,542,l),
(916,527,l),
(750,516.333,o),
(550.333,501,o),
(317,481,cs)
);
},
{
closed = 1;
nodes = (
(579.333,241.667,o),
(660.667,129.333,o),
(756,10,cs),
(814.667,-62,o),
(856.667,-83,o),
(962,-107,c),
(961,-134,l),
(770,-143,ls),
(763.333,-143,o),
(758.667,-140.667,o),
(756,-136,cs),
(700,-34.667,o),
(573.333,165.333,o),
(556,192,cs),
(499,283,l),
(512,347,l),
(512,347,l)
);
},
{
closed = 1;
nodes = (
(231,318.333,o),
(279.333,274.333,o),
(318,225,cs),
(320,222.333,o),
(321,219.667,o),
(321,217,cs),
(321,213.667,o),
(320,209,o),
(318,203,cs),
(289,132,l),
(274,134,l),
(246,207.333,o),
(190.667,305,o),
(140,365,c),
(159,381,l),
(159,381,l)
);
},
{
closed = 1;
nodes = (
(682.333,229.667,o),
(745.667,307.333,o),
(767,358,cs),
(781,389.333,o),
(787,417,o),
(785,441,c),
(800,445,l),
(856,345,l),
(838,326,ls),
(812,298,o),
(799.333,284.333,o),
(800,285,cs),
(740.667,227,o),
(685.667,181.667,o),
(635,149,c),
(617,171,l),
(617,171,l)
);
}
);
width = 1000;
}
);
unicode = 101249;
}
{
glyphname = u18B92;
layers = (
{
layerId = master01;
shapes = (
{
closed = 1;
nodes = (
(194,422.333,o),
(153.333,416.333,o),
(112,407,c),
(36,465,l),
(41,478,l),
(70.333,475.333,o),
(100,474,o),
(130,474,cs),
(145.333,474,o),
(168.333,474.667,o),
(199,476,cs),
(396.333,488,o),
(575,502.667,o),
(735,520,cs),
(804.333,528,o),
(832,531.333,o),
(864,550,cs),
(866,551.333,o),
(869,551,o),
(873,549,cs),
(964,497,l),
(961,482,l),
(773,469.333,o),
(530.667,450.333,o),
(234,425,cs)
);
},
{
closed = 1;
nodes = (
(663.667,103.667,o),
(465.667,-95.333,o),
(83,-170,c),
(74,-137,l),
(299.333,-77,o),
(447.333,12.167,o),
(542,171.5,cs),
(589.333,251.167,o),
(621.667,352,o),
(639,474,c),
(713,477,l),
(713,477,l)
);
},
{
closed = 1;
nodes = (
(531.333,103.333,o),
(682,40.667,o),
(826,-34,cs),
(829.333,-35.333,o),
(831.667,-39.667,o),
(833,-47,cs),
(853,-156,l),
(842,-163,l),
(694,-51,o),
(553.667,26.667,o),
(391,96,cs),
(357.667,110.667,o),
(313.333,124.667,o),
(288,126,c),
(286,163,l),
(306,163,o),
(328,175,o),
(336,195,cs),
(377.333,304.333,o),
(423.667,485.667,o),
(449,619,cs),
(451,628.333,o),
(452,639,o),
(452,651,cs),
(452,684.333,o),
(444.333,722.333,o),
(431,749,c),
(444,759,l),
(547,645,l),
(531.667,620.333,o),
(517.333,584.667,o),
(504,538,cs),
(468.667,415.333,o),
(425.333,287.333,o),
(374,154,c)
);
},
{
closed = 1;
nodes = (
(832.333,298.333,o),
(876.333,237.333,o),
(913,172,c),
(914.333,167.333,o),
(914.333,163.333,o),
(913,160,cs),
(872,62,l),
(850,62,l),
(828.667,168,o),
(798.667,261,o),
(760,341,c),
(781,355,l),
(781,355,l)
);
},
{
closed = 1;
nodes = (
(223.333,183,o),
(180.333,93,o),
(151,53,c),
(132,51,l),
(90,139,ls),
(88.667,142.333,o),
(89.333,144.667,o),
(92,146,cs),
(113.333,156,o),
(129,166,o),
(139,176,cs),
(183,221.333,o),
(206,292.333,o),
(202,351,c),
(223,355,l),
(233,315,o),
(238,284,o),
(238,262,cs),
(238,248.667,o),
(236.667,237,o),
(234,227,cs)
);
}
);
width = 1000;
}
);
unicode = 101266;
}
{
glyphname = u18B93;
layers = (
{
layerId = master01;
shapes = (
{
closed = 1;
nodes = (
(408,669,o),
(393,712.333,o),
(365,747,c),
(376,759,l),
(482,672,l),
(475.333,646.667,o),
(472,612.667,o),
(472,570,cs),
(472,-17,ls),
(472,-58.333,o),
(477.667,-69.667,o),
(507,-71,cs),
(557,-74.333,o),
(605,-76,o),
(651,-76,cs),
(729,-76,o),
(795,-71.667,o),
(849,-63,c),
(870.333,-61.667,o),
(874.667,-55.333,o),
(876,-34,cs),
(884,164,l),
(908,164,l),
(916,68,o),
(931.667,-43.333,o),
(949,-94,c),
(949.667,-94.667,o),
(950,-96,o),
(950,-98,cs),
(950,-101.333,o),
(948.333,-103.667,o),
(945,-105,cs),
(920.333,-115.667,o),
(883,-123.333,o),
(833,-128,cs),
(769,-134,o),
(704.333,-137,o),
(639,-137,cs),
(587,-137,o),
(538.667,-135.667,o),
(494,-133,cs),
(432.667,-130.333,o),
(408,-100.667,o),
(408,-30,cs),
(408,625,l),
(408,625,l)
);
},
{
closed = 1;
nodes = (
(253,423.333,o),
(212.333,417.333,o),
(171,408,c),
(95,466,l),
(100,479,l),
(138.667,475.667,o),
(169.333,474,o),
(192,474,cs),
(214,474,o),
(236,475,o),
(258,477,cs),
(381,487,ls),
(469.667,493.667,o),
(554,501,o),
(634,509,cs),
(699.333,515.667,o),
(731,521.333,o),
(763,540,cs),
(765,541.333,o),
(768,541,o),
(772,539,cs),
(863,487,l),
(860,472,l),
(718.667,462,o),
(568.333,450,o),
(409,436,cs),
(293,426,l),
(293,426,l)
);
},
{
closed = 1;
nodes = (
(611.333,144,o),
(685,237.333,o),
(721,316,cs),
(731,338.667,o),
(736,362,o),
(736,386,cs),
(736,396.667,o),
(735.333,404.667,o),
(734,410,c),
(749,415,l),
(819,296,l),
(810.333,290,o),
(801.167,281.833,o),
(791.5,271.5,cs),
(781.833,261.167,o),
(774.667,253.667,o),
(770,249,cs),
(692.667,163.667,o),
(609.667,86,o),
(543,38,c),
(522,64,l),
(522,64,l)
);
},
{
closed = 1;
nodes = (
(199.333,230.333,o),
(256.333,168.333,o),
(291,123,cs),
(293.667,120.333,o),
(294,116.333,o),
(292,111,cs),
(261,-3,l),
(248,-4,l),
(209.333,102.667,o),
(169.667,183.667,o),
(99,293,c),
(120,309,l),
(120,309,l)
);
}
);
width = 1000;
}
);
unicode = 101267;
}
{
glyphname = u18BA0;
layers = (
{
layerId = master01;
shapes = (
{
closed = 1;
nodes = (
(870.333,546.667,o),
(867,514,o),
(867,480,cs),
(866,383,ls),
(864.667,304.333,o),
(864,248.667,o),
(864,216,cs),
(864,163.333,o),
(865,117,o),
(867,77,cs),
(868.333,50.333,o),
(848,7.333,o),
(828,-14,c),
(825.333,-18,o),
(820,-19,o),
(816,-15,cs),
(753.333,50.333,o),
(715,84.667,o),
(631,150,c),
(645,171,l),
(785,93,ls),
(787.667,91,o),
(790.333,90,o),
(793,90,cs),
(796.333,90,o),
(798,93.333,o),
(798,100,cs),
(804,202.667,o),
(807,313.667,o),
(807,433,cs),
(807,478.333,o),
(806.667,506.667,o),
(806,518,cs),
(804,565.333,o),
(788.333,607.333,o),
(759,644,c),
(772,658,l),
(877,578,l),
(877,578,l)
);
},
{
closed = 1;
nodes = (
(667,224.667,o),
(443.333,187.667,o),
(270,157,cs),
(230.667,150.333,o),
(207.667,144.333,o),
(201,139,cs),
(176,120,ls),
(171.333,116.667,o),
(168,116.667,o),
(166,120,cs),
(121,183,ls),
(118.333,187,o),
(118.333,190.333,o),
(121,193,cs),
(139.667,207.667,o),
(155.667,240,o),
(157,284,cs),
(157.667,332,o),
(158,409,o),
(158,515,cs),
(158,549.667,o),
(139.667,598.667,o),
(113,628,c),
(124,640,l),
(226,557,l),
(220.667,541.667,o),
(217.667,521,o),
(217,495,cs),
(215.667,473.667,o),
(215,430.333,o),
(215,365,cs),
(215,305,o),
(214.667,257,o),
(214,221,cs),
(214,209,o),
(217,204.667,o),
(225,206,cs),
(346.333,223.333,o),
(683.333,284,o),
(830,312,c),
(819,250,l),
(819,250,l)
);
},
{
closed = 1;
nodes = (
(528.333,655.333,o),
(525,621,o),
(525,581,cs),
(525,502.333,o),
(524.333,378.333,o),
(523,209,cs),
(521,83,o),
(520,-41,o),
(520,-163,c),
(507,-169,l),
(442,-101,ls),
(440.667,-99.667,o),
(440.667,-96.667,o),
(442,-92,cs),
(450,-74,o),
(454.667,-52.333,o),
(456,-27,cs),
(460.667,116.333,o),
(463,263.667,o),
(463,415,cs),
(463,499.667,o),
(462,574,o),
(460,638,cs),
(458.667,679.333,o),
(446.333,726,o),
(417,758,c),
(428,770,l),
(535,684,l),
(535,684,l)
);
}
);
width = 1000;
}
);
unicode = 101280;
}
{
glyphname = u18BB7;
layers = (
{
layerId = master01;
shapes = (
{
closed = 1;
nodes = (
(499.333,660.667,o),
(653.333,673.333,o),
(684,678,cs),
(724,683.333,o),
(749,696.667,o),
(773,722,cs),
(776.333,725.333,o),
(779.667,725.333,o),
(783,722,cs),
(841,663,ls),
(844.333,660.333,o),
(844.333,657.333,o),
(841,654,cs),
(816,631,ls),
(808,624.333,o),
(806,622,o),
(806,614,cs),
(804.667,447.333,o),
(804,307.667,o),
(804,195,cs),
(804,97,o),
(804.667,35,o),
(806,9,cs),
(807.333,-15,o),
(806.333,-36.667,o),
(803,-56,cs),
(795,-98.667,o),
(787,-115.667,o),
(771,-141,cs),
(766.333,-149,o),
(762.333,-153,o),
(759,-153,cs),
(755.667,-153,o),
(751.333,-150.667,o),
(746,-146,cs),
(680,-88,o),
(622.667,-41.333,o),
(574,-6,c),
(588,18,l),
(634,-6,o),
(677.667,-27,o),
(719,-45,cs),
(723,-46.333,o),
(725.333,-47,o),
(726,-47,cs),
(732.667,-47,o),
(736.667,-40.667,o),
(738,-28,cs),
(742.667,29.333,o),
(745,246,o),
(745,622,cs),
(745,631.333,o),
(741.667,634.333,o),
(735,633,cs),
(677,627.667,o),
(622.667,623,o),
(572,619,cs),
(521.333,615,o),
(477,611.333,o),
(439,608,cs),
(372.333,603.333,o),
(300.667,597.667,o),
(224,591,c),
(222,640,l),
(222,640,l)
);
},
{
closed = 1;
nodes = (
(260.667,605,o),
(258,570.667,o),
(258,530,cs),
(258,-149,l),
(244,-155,l),
(183,-89,ls),
(181,-87,o),
(181,-84,o),
(183,-80,cs),
(193,-59.333,o),
(198,-37.667,o),
(198,-15,cs),
(200,102.333,o),
(201,202.667,o),
(201,286,cs),
(201,369.333,o),
(200,469,o),
(198,585,cs),
(196.667,627.667,o),
(184,680,o),
(156,712,c),
(167,723,l),
(266,633,l),
(266,633,l)
);
},
{
closed = 1;
nodes = (
(192.333,241,o),
(151.333,235.333,o),
(106,226,c),
(29,284,l),
(34,297,l),
(64.667,293.667,o),
(97.667,292,o),
(133,292,cs),
(147,292,o),
(167.333,292.667,o),
(194,294,cs),
(406.667,304.667,o),
(590.333,317,o),
(745,331,cs),
(813,337.667,o),
(843,341.333,o),
(875,360,cs),
(877.667,361.333,o),
(880.667,361,o),
(884,359,cs),
(976,306,l),
(973,291,l),
(716.333,278.333,o),
(468.333,262.333,o),
(229,243,cs)
);
},
{
closed = 1;
nodes = (
(534.333,453.333,o),
(531,419,o),
(531,375,cs),
(529,253,o),
(527.333,118,o),
(526,-30,cs),
(525,-101,l),
(513,-108,l),
(453,-38,ls),
(450.333,-35.333,o),
(450.333,-32.333,o),
(453,-29,c),
(461.667,-13.667,o),
(466.667,6.333,o),
(468,31,cs),
(470.667,128.333,o),
(472,223.333,o),
(472,316,cs),
(472,370,o),
(471.667,408.667,o),
(471,432,cs),
(471,472,o),
(459,519.667,o),
(431,553,c),
(442,565,l),
(541,478,l),
(541,478,l)
);
}
);
width = 1000;
}
);
unicode = 101303;
}
{
glyphname = u18BB8;
layers = (
{
layerId = master01;
shapes = (
{
closed = 1;
nodes = (
(207.667,603,o),
(205,568.667,o),
(205,528,cs),
(205,-151,l),
(191,-157,l),
(134,-91,ls),
(132,-89,o),
(132,-86,o),
(134,-82,cs),
(144,-61.333,o),
(149,-39.667,o),
(149,-17,cs),
(151,100.333,o),
(152,200.667,o),
(152,284,cs),
(152,367.333,o),
(151,467,o),
(149,583,cs),
(147.667,625.667,o),
(135,678,o),
(107,710,c),
(118,721,l),
(213,631,l),
(213,631,l)
);
},
{
closed = 1;
nodes = (
(519.667,663.667,o),
(705.667,678.333,o),
(735,683,cs),
(775,688.333,o),
(800,701.667,o),
(824,727,cs),
(827.333,730.333,o),
(830.667,730.333,o),
(834,727,cs),
(892,668,ls),
(895.333,665.333,o),
(895.333,662.333,o),
(892,659,cs),
(867,636,ls),
(859,629.333,o),
(857,627,o),
(857,619,cs),
(855.667,448.333,o),
(855,304.333,o),
(855,187,cs),
(855,86.333,o),
(855.667,22.667,o),
(857,-4,cs),
(858.333,-28,o),
(857.333,-49.667,o),
(854,-69,cs),
(846,-113,o),
(838,-132,o),
(822,-156,cs),
(817.333,-164,o),
(813,-168,o),
(809,-168,cs),
(805.667,-168,o),
(801.667,-165.667,o),
(797,-161,cs),
(740.333,-105,o),
(668.333,-51.667,o),
(581,-1,c),
(594,24,l),
(770,-55,ls),
(774,-56.333,o),
(776.333,-57,o),
(777,-57,cs),
(783.667,-57,o),
(787.667,-50.667,o),
(789,-38,cs),
(793.667,20.667,o),
(796,242.333,o),
(796,627,cs),
(796,636.333,o),
(792.667,639.333,o),
(786,638,c),
(513,615,ls),
(379,605,o),
(267,595.667,o),
(177,587,c),
(177,639,l),
(177,639,l)
);
},
{
closed = 1;
nodes = (
(408.333,246.667,o),
(367.667,240.333,o),
(323,231,c),
(247,284,l),
(252,297,l),
(281.333,294.333,o),
(311,293,o),
(341,293,cs),
(364.333,293,o),
(387.333,294,o),
(410,296,cs),
(459.333,299.333,o),
(493,302.333,o),
(511,305,cs),
(571,313,o),
(605.667,321.333,o),
(639,340,cs),
(642.333,341.333,o),
(645.333,341,o),
(648,339,c),
(740,291,l),
(737,276,l),
(659,270,o),
(591.333,264,o),
(534,258,cs),
(445,250,l),
(445,250,l)
);
}
);
width = 1000;
}
);
unicode = 101304;
}
{
glyphname = u18BBA;
layers = (
{
layerId = master01;
shapes = (
{
closed = 1;
nodes = (
(493.667,662.667,o),
(629.333,674,o),
(654,678,cs),
(694,683.333,o),
(719,696.667,o),
(743,722,cs),
(746.333,725.333,o),
(749.667,725.333,o),
(753,722,cs),
(811,663,ls),
(814.333,660.333,o),
(814.333,657.333,o),
(811,654,cs),
(786,631,ls),
(778,624.333,o),
(776,622,o),
(776,614,cs),
(774.667,446,o),
(774,305,o),
(774,191,cs),
(774,92.333,o),
(774.667,29.667,o),
(776,3,cs),
(777.333,-21,o),
(776.333,-42.667,o),
(773,-62,cs),
(765,-106,o),
(757,-125,o),
(741,-149,cs),
(736.333,-157,o),
(732.333,-161,o),
(729,-161,cs),
(725.667,-161,o),
(721.333,-158.667,o),
(716,-154,cs),
(648.667,-94.667,o),
(591,-47.667,o),
(543,-13,c),
(558,12,l),
(604,-12,o),
(647.667,-33,o),
(689,-51,cs),
(693,-52.333,o),
(695.333,-53,o),
(696,-53,cs),
(702.667,-53,o),
(706.667,-46.667,o),
(708,-34,cs),
(712.667,24,o),
(715,242.667,o),
(715,622,cs),
(715,631.333,o),
(711.667,634.333,o),
(705,633,cs),
(649,627.667,o),
(526.333,617.667,o),
(337,603,cs),
(249,596,l),
(247,644,l),
(247,644,l)
);
},
{
closed = 1;
nodes = (
(289.667,605,o),
(287,570.667,o),
(287,530,cs),
(287,-149,l),
(273,-155,l),
(212,-89,ls),
(210,-87,o),
(210,-84,o),
(212,-80,cs),
(222,-59.333,o),
(227,-37.667,o),
(227,-15,cs),
(229,102.333,o),
(230,202.667,o),
(230,286,cs),
(230,369.333,o),
(229,469,o),
(227,585,cs),
(225.667,627.667,o),
(213,680,o),
(185,712,c),
(196,723,l),
(295,633,l),
(295,633,l)
);
},
{
closed = 1;
nodes = (
(192.333,241,o),
(151.333,235.333,o),
(106,226,c),
(29,284,l),
(34,297,l),
(64.667,293.667,o),
(97.667,292,o),
(133,292,cs),
(147,292,o),
(167.333,292.667,o),
(194,294,cs),
(406.667,304.667,o),
(590.333,317,o),
(745,331,cs),
(813,337.667,o),
(843,341.333,o),
(875,360,cs),
(877.667,361.333,o),
(880.667,361,o),
(884,359,cs),
(976,306,l),
(973,291,l),
(716.333,278.333,o),
(468.333,262.333,o),
(229,243,cs)
);
}
);
width = 1000;
}
);
unicode = 101306;
}
{
glyphname = u18BBE;
layers = (
{
layerId = master01;
shapes = (
{
closed = 1;
nodes = (
(439.333,663.667,o),
(560.667,674,o),
(584,678,cs),
(624,683.333,o),
(649,696.667,o),
(673,722,cs),
(676.333,725.333,o),
(679.667,725.333,o),
(683,722,cs),
(741,663,ls),
(744.333,660.333,o),
(744.333,657.333,o),
(741,654,cs),
(716,631,ls),
(708,624.333,o),
(706,622,o),
(706,614,cs),
(704.667,446,o),
(704,305,o),
(704,191,cs),
(704,92.333,o),
(704.667,29.667,o),
(706,3,cs),
(707.333,-21,o),
(706.333,-42.667,o),
(703,-62,cs),
(695,-106,o),
(687,-125,o),
(671,-149,cs),
(666.333,-157,o),
(662.333,-161,o),
(659,-161,cs),
(655.667,-161,o),
(651.333,-158.667,o),
(646,-154,cs),
(578.667,-94.667,o),
(521,-47.667,o),
(473,-13,c),
(488,12,l),
(534,-12,o),
(577.667,-33,o),
(619,-51,cs),
(623,-52.333,o),
(625.333,-53,o),
(626,-53,cs),
(632.667,-53,o),
(636.667,-46.667,o),
(638,-34,cs),
(642.667,24,o),
(645,242.667,o),
(645,622,cs),
(645,631.333,o),
(641.667,634.333,o),
(635,633,cs),
(553,625,o),
(415.667,613.667,o),
(223,599,c),
(220,647,l),
(220,647,l)
);
},
{
closed = 1;
nodes = (
(259.667,605,o),
(257,570.667,o),
(257,530,cs),
(257,-149,l),
(243,-155,l),
(182,-89,ls),
(180,-87,o),
(180,-84,o),
(182,-80,cs),
(192,-59.333,o),
(197,-37.667,o),
(197,-15,cs),
(199,102.333,o),
(200,202.667,o),
(200,286,cs),
(200,369.333,o),
(199,469,o),
(197,585,cs),
(195.667,627.667,o),
(183,680,o),
(155,712,c),
(166,723,l),
(265,633,l),
(265,633,l)
);
},
{
closed = 1;
nodes = (
(191.333,361,o),
(150.333,355.333,o),
(105,346,c),
(28,404,l),
(33,417,l),
(63.667,413.667,o),
(96.667,412,o),
(132,412,cs),
(146,412,o),
(166.333,412.667,o),
(193,414,cs),
(405.667,424.667,o),
(589.333,437,o),
(744,451,cs),
(812,457.667,o),
(842,461.333,o),
(874,480,cs),
(876.667,481.333,o),
(879.667,481,o),
(883,479,cs),
(975,426,l),
(972,411,l),
(715.333,398.333,o),
(467.333,382.333,o),
(228,363,cs)
);
},
{
closed = 1;
nodes = (
(766.667,248.333,o),
(841,214.333,o),
(897,183,cs),
(902.333,179.667,o),
(905.333,175.333,o),
(906,170,cs),
(921,66,l),
(905,56,l),
(829.667,135.333,o),
(748.667,204.667,o),
(662,264,c),
(674,285,l),
(674,285,l)
);
}
);
width = 1000;
}
);
unicode = 101310;
}
{
glyphname = u18BD6;
layers = (
{
layerId = master01;
shapes = (
{
closed = 1;
nodes = (
(361.667,618,o),
(611,660.667,o),
(779,718,cs),
(801.667,726.667,o),
(817.333,741.333,o),
(826,762,c),
(840,763,l),
(890,664,l),
(874,663.333,o),
(856,660.667,o),
(836,656,cs),
(814,652,ls),
(547.333,605.333,o),
(338.333,574.667,o),
(89,560,c),
(87,594,l),
(87,594,l)
);
},
{
closed = 1;
nodes = (
(620,414.667,o),
(617.667,417,o),
(613,417,cs),
(533.667,411.667,o),
(414.333,400.667,o),
(255,384,cs),
(221,380,o),
(187.333,374.667,o),
(154,368,c),
(78,423,l),
(83,436,l),
(114.333,432.667,o),
(142,431,o),
(166,431,cs),
(173.333,431,o),
(198,432,o),
(240,434,cs),
(314,439.333,o),
(402.667,447,o),
(506,457,cs),
(531,459,ls),
(589.667,465.667,o),
(624,474.333,o),
(656,501,cs),
(659.333,504.333,o),
(662.333,504.333,o),
(665,501,c),
(723,445,ls),
(725.667,442.333,o),
(725.333,439.333,o),
(722,436,cs),
(698,415,ls),
(694,411,o),
(690.667,405.333,o),
(688,398,cs),
(663.333,329.333,o),
(648.333,271,o),
(643,223,cs),
(642.333,219,o),
(642,213.333,o),
(642,206,cs),
(642,180.667,o),
(652.333,171.667,o),
(679,169,cs),
(690.333,168.333,o),
(709,168,o),
(735,168,cs),
(788.333,168,o),
(830.333,170.333,o),
(861,175,cs),
(882.333,176.333,o),
(886.667,182.667,o),
(888,204,cs),
(894,355,l),
(918,355,l),
(926,281.667,o),
(944,202.667,o),
(964,144,c),
(964.667,143.333,o),
(965,142,o),
(965,140,cs),
(965,136.667,o),
(963.333,134.333,o),
(960,133,cs),
(935.333,122.333,o),
(898,114.667,o),
(848,110,cs),
(820.667,106.667,o),
(784.667,105,o),
(740,105,cs),
(721.333,105,o),
(695.333,105.667,o),
(662,107,cs),
(605.333,110.333,o),
(577,141.667,o),
(577,201,cs),
(577,210.333,o),
(577.333,217.667,o),
(578,223,cs),
(582,256.333,o),
(591.333,297.667,o),
(602,335,cs),
(606,349.667,o),
(616,385.333,o),
(620,408,cs),
(620,410,l),
(620,410,l)
);
},
{
closed = 1;
nodes = (
(433.667,316,o),
(399,155.333,o),
(287,14,cs),
(231,-56.667,o),
(152.667,-113.667,o),
(52,-157,c),
(39,-132,l),
(224.333,-29.333,o),
(313.167,119.667,o),
(348.5,273,cs),
(366.167,349.667,o),
(381.333,449.333,o),
(394,572,cs),
(395.333,585.333,o),
(396,595.333,o),
(396,602,c),
(465,616,l),
(459,556,l),
(459,556,l)
);
},
{
closed = 1;
nodes = (
(216,219.667,o),
(191,229,o),
(155,229,cs),
(144.333,229,o),
(132.333,228,o),
(119,226,c),
(113,240,l),
(214,286,l),
(228,271.333,o),
(248.667,253.667,o),
(276,233,cs),
(410.667,141,o),
(511,75.333,o),
(577,36,cs),
(693,-34.667,o),
(744,-61.167,o),
(812,-80.5,cs),
(846,-90.167,o),
(887,-97,o),
(935,-101,c),
(936,-128,l),
(742,-154,l),
(737,-154,ls),
(729.667,-154,o),
(724,-152.333,o),
(720,-149,cs),
(509.333,8.333,o),
(350.667,125,o),
(244,201,cs)
);
}
);
width = 1000;
}
);
unicode = 101334;
}
{
glyphname = u18BD9;
layers = (
{
layerId = master01;
shapes = (
{
closed = 1;
nodes = (
(417,551.667,o),
(578.667,566.667,o),
(668,580,cs),
(704,585.333,o),
(728,596,o),
(752,620,cs),
(755.333,623.333,o),
(759,623.333,o),
(763,620,cs),
(812,575,ls),
(814.667,573,o),
(814.667,570,o),
(812,566,cs),
(793,542,ls),
(788.333,536.667,o),
(786,529.667,o),
(786,521,cs),
(786,451.667,o),
(785.333,347,o),
(784,207,cs),
(783,49,l),
(771,43,l),
(709,111,ls),
(708.333,111.667,o),
(708.167,113,o),
(708.5,115,cs),
(708.833,117,o),
(709,118.667,o),
(709,120,c),
(717,138,o),
(721.667,159.667,o),
(723,185,cs),
(726.333,300.333,o),
(728,409,o),
(728,511,cs),
(728,528.333,o),
(727,532.333,o),
(715,531,cs),
(692,529,ls),
(629.333,523.667,o),
(377,501.667,o),
(325,495,cs),
(319,494.333,o),
(298.667,491.333,o),
(264,486,c),
(309,545,l),
(309,545,l)
);
},
{
closed = 1;
nodes = (
(168.667,390.667,o),
(283.333,543.667,o),
(338,673,cs),
(344,687.667,o),
(347,704.333,o),
(347,723,cs),
(347,737,o),
(345,751.333,o),
(341,766,c),
(355,773,l),
(431,668,l),
(421.667,656,o),
(408.333,637,o),
(391,611,cs),
(297.667,472.333,o),
(192.333,350.333,o),
(47,237,c),
(26,260,l),
(26,260,l)
);
},
{
closed = 1;
nodes = (
(333.667,182,o),
(383,186.333,o),
(413,189,cs),
(478.333,194.333,o),
(511.333,201.333,o),
(542,220,cs),
(544.667,221.333,o),
(547.667,221,o),
(551,219,cs),
(644,167,l),
(641,152,l),
(265,128,l),
(265,176,l),
(265,176,l)
);
},
{
closed = 1;
nodes = (
(459.667,380.667,o),
(491,387.333,o),
(523,406,cs),
(525.667,407.333,o),
(528.667,407,o),
(532,405,cs),
(625,354,l),
(622,339,l),
(543,333,ls),
(472.333,328.333,o),
(379.667,321.667,o),
(265,313,c),
(265,362,l),
(393,374,l),
(393,374,l)
);
},
{
closed = 1;
nodes = (
(294.333,342.667,o),
(291,308.667,o),
(291,262,cs),
(291,-5,ls),
(291,-63.667,o),
(300.667,-80.333,o),
(346,-83,cs),
(407.333,-86.333,o),
(466.667,-88,o),
(524,-88,cs),
(632.667,-88,o),
(732,-83.667,o),
(822,-75,cs),
(868.667,-69.667,o),
(880.667,-56.667,o),
(882,-22,cs),
(890,156,l),
(914,156,l),
(922,66.667,o),
(939.667,-47,o),
(957,-99,cs),
(958,-103,l),
(958,-107.667,o),
(955.667,-111,o),
(951,-113,cs),
(926.333,-123.667,o),
(889,-131.333,o),
(839,-136,cs),
(744.333,-144.667,o),
(642.667,-149,o),
(534,-149,cs),
(476.667,-149,o),
(410.667,-147.333,o),
(336,-144,cs),
(260,-140,o),
(230,-104.667,o),
(230,-18,cs),
(230,317,ls),
(230,353,o),
(222.333,384.333,o),
(207,411,c),
(224,430,l),
(301,364,l),
(301,364,l)
);
}
);
width = 1000;
}
);
unicode = 101337;
}
{
glyphname = u18BDA;
layers = (
{
layerId = master01;
shapes = (
{
closed = 1;
nodes = (
(294.333,342.667,o),
(291,308.667,o),
(291,262,cs),
(291,-5,ls),
(291,-63.667,o),
(300.667,-80.333,o),
(346,-83,cs),
(407.333,-86.333,o),
(466.667,-88,o),
(524,-88,cs),
(632.667,-88,o),
(732,-83.667,o),
(822,-75,cs),
(868.667,-69.667,o),
(880.667,-56.667,o),
(882,-22,cs),
(890,156,l),
(914,156,l),
(922,64,o),
(938.667,-47,o),
(956,-99,cs),
(957,-103,l),
(957,-107.667,o),
(954.667,-111,o),
(950,-113,cs),
(924.667,-123.667,o),
(887.667,-131.333,o),
(839,-136,cs),
(744.333,-144.667,o),
(642.667,-149,o),
(534,-149,cs),
(476.667,-149,o),
(410.667,-147.333,o),
(336,-144,cs),
(260,-140,o),
(230,-104.667,o),
(230,-18,cs),
(230,317,ls),
(230,353,o),
(222.333,384.333,o),
(207,411,c),
(224,430,l),
(301,364,l),
(301,364,l)
);
},
{
closed = 1;
nodes = (
(311.667,181,o),
(349.667,184.333,o),
(373,187,cs),
(438.333,192.333,o),
(471.333,199.333,o),
(502,218,cs),
(504.667,219.333,o),
(507.667,219,o),
(511,217,cs),
(604,165,l),
(601,150,l),
(545.667,147.333,o),
(474,142.667,o),
(386,136,cs),
(259,128,l),
(259,177,l),
(259,177,l)
);
},
{
closed = 1;
nodes = (
(424.667,378.667,o),
(456,385.333,o),
(488,404,cs),
(490.667,405.333,o),
(493.667,405,o),
(497,403,cs),
(590,352,l),
(587,337,l),
(259,313,l),
(259,363,l),
(358,372,l),
(358,372,l)
);
},
{
closed = 1;
nodes = (
(439.333,559.333,o),
(541.333,570,o),
(608,580,cs),
(644,585.333,o),
(668,596,o),
(692,620,cs),
(695.333,623.333,o),
(699,623.333,o),
(703,620,cs),
(752,575,l),
(755.333,573,o),
(755.333,570,o),
(752,566,cs),
(733,542,ls),
(728.333,536.667,o),
(726,529.667,o),
(726,521,cs),
(726,467,o),
(725.333,387.333,o),
(724,282,cs),
(723,49,l),
(711,43,l),
(649,111,ls),
(648.333,111.667,o),
(648.167,113,o),
(648.5,115,cs),
(648.833,117,o),
(649,118.667,o),
(649,120,c),
(657,138,o),
(661.667,159.667,o),
(663,185,cs),
(666.333,300.333,o),
(668,409,o),
(668,511,cs),
(668,528.333,o),
(667,532.333,o),
(655,531,cs),
(588,525,ls),
(560,522.333,o),
(506.333,517.5,o),
(427,510.5,cs),
(347.667,503.5,o),
(295,498.333,o),
(269,495,c),
(302,548,l),
(302,548,l)
);
},
{
closed = 1;
nodes = (
(168.667,390.667,o),
(283.333,543.667,o),
(338,673,cs),
(344,687.667,o),
(347,704.667,o),
(347,724,cs),
(347,739.333,o),
(345,754.333,o),
(341,769,c),
(355,773,l),
(431,668,l),
(421.667,656,o),
(408.333,637,o),
(391,611,cs),
(297.667,472.333,o),
(192.333,350.333,o),
(47,237,c),
(26,260,l),
(26,260,l)
);
},
{
closed = 1;
nodes = (
(822.667,414.667,o),
(869.333,372.333,o),
(908,331,cs),
(910.667,328.333,o),
(912,325.333,o),
(912,322,cs),
(912,318.667,o),
(911,314.333,o),
(909,309,cs),
(886,220,l),
(871,220,l),
(844.333,289.333,o),
(792.667,385,o),
(750,441,c),
(768,458,l),
(768,458,l)
);
}
);
width = 1000;
}
);
unicode = 101338;
}
{
glyphname = u18BDD;
layers = (
{
layerId = master01;
shapes = (
{
closed = 1;
nodes = (
(367.333,604,o),
(537,656.333,o),
(649,711,cs),
(673.667,722.333,o),
(688,738.333,o),
(692,759,c),
(706,761,l),
(765,666,l),
(744.333,662.667,o),
(719.333,656.667,o),
(690,648,cs),
(499.333,594.667,o),
(365.667,561.667,o),
(195,535,c),
(190,568,l),
(190,568,l)
);
},
{
closed = 1;
nodes = (
(486,97,l),
(255,-92,ls),
(237.667,-106,o),
(222,-122,o),
(208,-140,cs),
(204,-144,o),
(200.333,-144.333,o),
(197,-141,cs),
(145,-90,ls),
(140.333,-85.333,o),
(139.667,-81.333,o),
(143,-78,cs),
(163,-60.667,o),
(172,-47.333,o),
(172,-30,cs),
(172.667,-3.333,o),
(173,43.333,o),
(173,110,cs),
(173,270.667,o),
(171,408,o),
(167,522,cs),
(165.667,563.333,o),
(153.333,610,o),
(124,642,c),
(135,654,l),
(240,568,l),
(233.333,539.333,o),
(230,505,o),
(230,465,cs),
(230,262.333,o),
(232,94.667,o),
(236,-38,c),
(468,119,l),
(468,119,l)
);
},
{
closed = 1;
nodes = (
(375.667,416.333,o),
(351.333,438,o),
(306,450,c),
(307,467,l),
(422,469,l),
(427.333,443.667,o),
(433.333,429.333,o),
(460,384,cs),
(513.333,298.667,o),
(581.333,200.333,o),
(664,89,cs),
(760,-40.333,o),
(826,-91.333,o),
(930,-110,c),
(928,-139,l),
(760,-147,ls),
(751.333,-147,o),
(745,-143.667,o),
(741,-137,cs),
(697,-73,o),
(609,60.333,o),
(477,263,cs),
(401,379,l),
(401,379,l)
);
},
{
closed = 1;
nodes = (
(625,257.333,o),
(695,367.333,o),
(715,430,cs),
(720.333,444.667,o),
(723,458.667,o),
(723,472,cs),
(723,483.333,o),
(721.667,495.333,o),
(719,508,c),
(733,516,l),
(804,412,l),
(790.667,398.667,o),
(776.667,382.333,o),
(762,363,cs),
(703.333,284.333,o),
(639.667,215.667,o),
(571,157,c),
(549,176,l),
(549,176,l)
);
}
);
width = 1000;
}
);
unicode = 101341;
}
{
glyphname = u18BEC;
layers = (
{
layerId = master01;
shapes = (
{
closed = 1;
nodes = (
(428,638,o),
(492.667,646,o),
(544,654,cs),
(584,660,o),
(615,675.333,o),
(637,700,cs),
(640.333,704,o),
(644,704,o),
(648,700,cs),
(708,640,ls),
(712.667,635.333,o),
(712.667,630.667,o),
(708,626,cs),
(684,603,ls),
(680,599.667,o),
(677.333,593,o),
(676,583,cs),
(665.333,403.667,o),
(660,206.333,o),
(660,-9,cs),
(660,-41,o),
(677.667,-57.667,o),
(713,-59,cs),
(737,-60.333,o),
(755,-61,o),
(767,-61,cs),
(801.667,-61,o),
(832,-58.333,o),
(858,-53,cs),
(875.333,-50.333,o),
(884.667,-41.333,o),
(886,-26,cs),
(893,163,l),
(916,163,l),
(924.667,91.667,o),
(932,37.333,o),
(938,0,cs),
(944,-37.333,o),
(950.667,-64.667,o),
(958,-82,cs),
(959.333,-86,o),
(960,-88.333,o),
(960,-89,cs),
(960,-92.333,o),
(958.333,-95,o),
(955,-97,cs),
(937,-107,o),
(905.333,-114,o),
(860,-118,cs),
(820.667,-122.667,o),
(786.667,-125,o),
(758,-125,cs),
(738,-125,o),
(718,-124,o),
(698,-122,cs),
(632.667,-116.667,o),
(600,-83,o),
(600,-21,cs),
(600,158.333,o),
(603.333,361.667,o),
(610,589,cs),
(610,592,ls),
(610,601.333,o),
(606,605.333,o),
(598,604,cs),
(498.667,594.667,o),
(416.333,585.667,o),
(351,577,c),
(350,630,l),
(350,630,l)
);
},
{
closed = 1;
nodes = (
(368,139.333,o),
(273.667,-26,o),
(51,-162,c),
(33,-137,l),
(226.333,7,o),
(303,164.333,o),
(303,403,cs),
(303,591,ls),
(303,632.333,o),
(290.333,680,o),
(261,712,c),
(272,724,l),
(379,630,l),
(374.14,612.991,o),
(368,593.476,o),
(368,547,cs),
(368,386,l),
(368,386,l)
);
},
{
closed = 1;
nodes = (
(673.667,228.667,o),
(702.667,231,o),
(724,233,cs),
(788,237,o),
(822,243.333,o),
(854,262,cs),
(856.667,263.333,o),
(859.667,263,o),
(863,261,cs),
(955,208,l),
(952,193,l),
(846,187,ls),
(798,185,o),
(728,181.333,o),
(636,176,c),
(637,226,l),
(637,226,l)
);
},
{
closed = 1;
nodes = (
(773,448.333,o),
(804,453.333,o),
(836,472,cs),
(838.667,473.333,o),
(841.667,473,o),
(845,471,cs),
(937,418,l),
(934,403,l),
(880,401,o),
(808.667,397.333,o),
(720,392,cs),
(642,388,l),
(643,439,l),
(705,443,l),
(705,443,l)
);
}
);
width = 1000;
}
);
unicode = 101356;
}
{
glyphname = u18BED;
layers = (
{
layerId = master01;
shapes = (
{
closed = 1;
nodes = (
(405.333,636.667,o),
(460.333,644.333,o),
(515,653,cs),
(557,659,o),
(588.333,674,o),
(609,698,cs),
(612.333,702,o),
(616,702,o),
(620,698,cs),
(680,638,ls),
(684.667,633.333,o),
(684.667,628.667,o),
(680,624,cs),
(658,602,ls),
(654,598,o),
(651.333,591.333,o),
(650,582,cs),
(639.333,402,o),
(634,204,o),
(634,-12,cs),
(634,-44,o),
(651.667,-60.667,o),
(687,-62,cs),
(712.333,-64,o),
(736.333,-65,o),
(759,-65,cs),
(799,-65,o),
(833,-62,o),
(861,-56,cs),
(878.333,-53.333,o),
(887.667,-44.333,o),
(889,-29,cs),
(896,92,l),
(918,92,l),
(934,1.333,o),
(944,-46,o),
(960,-82,cs),
(961.333,-86,o),
(962,-88.333,o),
(962,-89,cs),
(962,-92.333,o),
(960.333,-95,o),
(957,-97,cs),
(938.333,-107,o),
(906.667,-115,o),
(862,-121,cs),
(828.667,-125.667,o),
(793.333,-128,o),
(756,-128,cs),
(724.667,-128,o),
(696.667,-126.667,o),
(672,-124,cs),
(606.667,-118.667,o),
(574,-85,o),
(574,-23,cs),
(574,155.667,o),
(577.333,359.333,o),
(584,588,cs),
(584,591,ls),
(584,600.333,o),
(580,604.333,o),
(572,603,cs),
(489.333,595.667,o),
(415.667,587,o),
(351,577,c),
(350,630,l),
(350,630,l)
);
},
{
closed = 1;
nodes = (
(367,139.333,o),
(273.667,-26,o),
(51,-162,c),
(33,-137,l),
(226.333,5.667,o),
(303,163,o),
(303,403,cs),
(303,591,ls),
(303,632.333,o),
(290.333,680,o),
(261,712,c),
(272,724,l),
(378,630,l),
(373.14,612.991,o),
(367,593.476,o),
(367,547,cs),
(367,386,l),
(367,386,l)
);
},
{
closed = 1;
nodes = (
(666.667,169,o),
(684,170,o),
(702,172,cs),
(768.667,176,o),
(801.333,181.333,o),
(832,200,cs),
(834.667,201.333,o),
(837.667,201,o),
(841,199,cs),
(933,148,l),
(930,133,l),
(614,120,l),
(615,167,l),
(650,169,l),
(650,169,l)
);
},
{
closed = 1;
nodes = (
(632.667,339.667,o),
(661.667,342,o),
(683,344,cs),
(751,349.333,o),
(782.333,354.333,o),
(813,373,cs),
(815.667,374.333,o),
(818.667,374,o),
(822,372,cs),
(914,322,l),
(911,307,l),
(805,301,ls),
(757,299,o),
(687,295.333,o),
(595,290,c),
(596,337,l),
(596,337,l)
);
},
{
closed = 1;
nodes = (
(632.667,508.667,o),
(661.667,511,o),
(683,513,cs),
(751,518.333,o),
(782.333,523.333,o),
(813,542,cs),
(815.667,543.333,o),
(818.667,543,o),
(822,541,cs),
(914,491,l),
(911,476,l),
(805,470,ls),
(757,468,o),
(687,464.333,o),
(595,459,c),
(596,506,l),
(596,506,l)
);
}
);
width = 1000;
}
);
unicode = 101357;
}
{
glyphname = u18BEE;
layers = (
{
layerId = master01;
shapes = (
{
closed = 1;
nodes = (
(578,29,l),
(285,-116,ls),
(271,-123.333,o),
(253.667,-137.333,o),
(233,-158,cs),
(228.333,-162,o),
(224.667,-162,o),
(222,-158,cs),
(176,-101,ls),
(172,-97,o),
(171.667,-93,o),
(175,-89,c),
(197.667,-73,o),
(207.667,-61,o),
(209,-45,cs),
(227.667,93.667,o),
(252.333,336,o),
(267,504,cs),
(267.667,508,o),
(268,514.667,o),
(268,524,cs),
(268,566.667,o),
(258,601.333,o),
(238,628,c),
(251,639,l),
(345,542,l),
(335,514.667,o),
(327.667,480.667,o),
(323,440,cs),
(301,246,o),
(284,79.333,o),
(272,-60,c),
(569,52,l),
(569,52,l)
);
},
{
closed = 1;
nodes = (
(693.333,486,o),
(680,371.333,o),
(680,272,cs),
(680,78.667,o),
(732,-49,o),
(848,-77,cs),
(853,-78,l),
(859.667,-78,o),
(863.667,-74.333,o),
(865,-67,cs),
(888,109,l),
(913,107,l),
(912,21,ls),
(912,-57,o),
(916.333,-110.333,o),
(925,-139,cs),
(926,-143,l),
(926,-147.667,o),
(922.333,-150,o),
(915,-150,cs),
(854.333,-152.667,o),
(801.667,-140,o),
(757,-112,cs),
(665,-55.333,o),
(619,71.667,o),
(619,269,cs),
(619,373,o),
(631.333,491.333,o),
(656,624,cs),
(657,628,l),
(657,634.667,o),
(653.667,637.333,o),
(647,636,cs),
(470,618,ls),
(400,612,o),
(332.667,605.333,o),
(268,598,cs),
(224.667,593.333,o),
(190.333,588.333,o),
(165,583,c),
(88,638,l),
(93,651,l),
(121,647,o),
(149.333,645,o),
(178,645,cs),
(186,645,o),
(211,646,o),
(253,648,cs),
(366.333,657.333,o),
(528,672.333,o),
(588,679,cs),
(632.667,684.333,o),
(668.333,700.333,o),
(695,727,cs),
(698.333,730.333,o),
(701.333,730.333,o),
(704,727,cs),
(757,663,ls),
(760.333,659.667,o),
(760.333,656.333,o),
(757,653,cs),
(733,632,ls),
(729,629.333,o),
(722.667,624,o),
(720,616,c)
);
}
);
width = 1000;
}
);
unicode = 101358;
}
{
glyphname = u18BF5;
layers = (
{
layerId = master01;
shapes = (
{
closed = 1;
nodes = (
(683,625.333,o),
(680,627.333,o),
(674,626,c),
(608.667,619.333,o),
(548.333,613.667,o),
(493,609,cs),
(402.333,601,o),
(337.333,594.667,o),
(298,590,cs),
(254.667,585.333,o),
(220.333,580.333,o),
(195,575,c),
(118,630,l),
(123,643,l),
(151,639,o),
(179.333,637,o),
(208,637,cs),
(216,637,o),
(241,638,o),
(283,640,cs),
(396.333,649.333,o),
(558,664.333,o),
(618,671,cs),
(662.667,676.333,o),
(698.333,692.333,o),
(725,719,cs),
(728.333,722.333,o),
(731.333,722.333,o),
(734,719,cs),
(790,655,ls),
(793.333,651.667,o),
(793.333,648.333,o),
(790,645,cs),
(766,624,ls),
(760,618.667,o),
(755.333,612.333,o),
(752,605,cs),
(662,403,ls),
(661.333,401.667,o),
(661,400,o),
(661,398,cs),
(661,394,o),
(663.333,392.333,o),
(668,393,cs),
(700,395.667,o),
(733,399.333,o),
(767,404,cs),
(812.333,410.667,o),
(820.667,415.333,o),
(850,446,cs),
(853.333,450,o),
(857.333,450.333,o),
(862,447,cs),
(921,395,ls),
(925,391.667,o),
(925,388,o),
(921,384,cs),
(904,367,ls),
(897.333,360.333,o),
(893,353,o),
(891,345,cs),
(853.667,171,o),
(814.333,41.667,o),
(773,-43,cs),
(754.333,-81.667,o),
(732.667,-110.333,o),
(708,-129,c),
(704.667,-132.333,o),
(700.667,-134,o),
(696,-134,cs),
(691.333,-134,o),
(686.667,-131.333,o),
(682,-126,cs),
(631.333,-66,o),
(574.667,-8.667,o),
(512,46,c),
(528,68,l),
(682,-31,ls),
(685.333,-33,o),
(688,-34,o),
(690,-34,cs),
(694,-34,o),
(698,-30.667,o),
(702,-24,cs),
(749.333,53.333,o),
(789,176,o),
(821,344,c),
(821,349,ls),
(821,356.333,o),
(816.667,359.667,o),
(808,359,cs),
(756.667,355.667,o),
(709.667,350,o),
(667,342,cs),
(651.667,338.667,o),
(638.333,334,o),
(627,328,cs),
(624.333,326,o),
(621.667,325,o),
(619,325,cs),
(616.333,325,o),
(614,326.333,o),
(612,329,cs),
(577,380,ls),
(576.333,381.333,o),
(575.5,382.833,o),
(574.5,384.5,cs),
(573.5,386.167,o),
(573,387.667,o),
(573,389,cs),
(573,391.667,o),
(575,394,o),
(579,396,cs),
(594.333,404.667,o),
(607.333,422.333,o),
(618,449,cs),
(681,611,l),
(683,620,l),
(683,620,l)
);
},
{
closed = 1;
nodes = (
(404,534.667,o),
(397,511.667,o),
(391,483,cs),
(347,289.667,o),
(295,153,o),
(211,33,cs),
(169,-27,o),
(116.667,-84.667,o),
(54,-140,c),
(33,-119,l),
(198.333,58.333,o),
(281.333,242.333,o),
(320,505,cs),
(322.667,526.333,o),
(324,541.667,o),
(324,551,cs),
(324,574.333,o),
(319.667,596,o),
(311,616,c),
(344,620,l),
(412,552,l),
(412,552,l)
);
},
{
closed = 1;
nodes = (
(374.333,342,o),
(452.333,308,o),
(549,258,c),
(552.673,254.327,o),
(557,252.72,o),
(557,243,cs),
(559,147,l),
(546,142,l),
(487.333,207.333,o),
(380,299.333,o),
(304,338,c),
(315,360,l),
(315,360,l)
);
}
);
width = 1000;
}
);
unicode = 101365;
}
{
glyphname = u18BFC;
layers = (
{
layerId = master01;
shapes = (
{
closed = 1;
nodes = (
(604.333,499.333,o),
(644.333,518.333,o),
(671,549,cs),
(674.333,553,o),
(678,553,o),
(682,549,cs),
(741,487,ls),
(745.667,482.333,o),
(745.667,477.667,o),
(741,473,cs),
(719,450,ls),
(714.333,445.333,o),
(711,438.667,o),
(709,430,cs),
(671,279.333,o),
(648.667,136,o),
(642,0,cs),
(640.667,-37.333,o),
(656.333,-57.333,o),
(695,-60,cs),
(721.667,-61.333,o),
(741.333,-62,o),
(754,-62,cs),
(790.667,-62,o),
(825.333,-59,o),
(858,-53,cs),
(876.667,-49.667,o),
(886,-40.667,o),
(886,-26,cs),
(893,192,l),
(916,192,l),
(924,119.333,o),
(931.667,60.667,o),
(939,16,cs),
(946.333,-28.667,o),
(954,-60.667,o),
(962,-80,cs),
(963.333,-84,o),
(964,-86.333,o),
(964,-87,cs),
(964,-90.333,o),
(962.333,-93,o),
(959,-95,cs),
(943.667,-103.667,o),
(910.667,-111.333,o),
(860,-118,cs),
(825.333,-122.667,o),
(788.667,-125,o),
(750,-125,cs),
(725.333,-125,o),
(701,-124,o),
(677,-122,cs),
(611.667,-116.667,o),
(579,-83,o),
(579,-21,cs),
(579,85.667,o),
(604,244,o),
(640,436,c),
(640,441,ls),
(640,449.667,o),
(636,453,o),
(628,451,cs),
(580,442.333,o),
(538.333,435.667,o),
(503,431,cs),
(476.333,426.333,o),
(440,420.167,o),
(394,412.5,cs),
(348,404.833,o),
(310,398.333,o),
(280,393,cs),
(239.333,386.333,o),
(205.667,379.333,o),
(179,372,c),
(98,423,l),
(103,436,l),
(120.333,434.667,o),
(134,434,o),
(144,434,cs),
(175.333,434,o),
(215,437,o),
(263,443,cs),
(371,457.667,o),
(521.667,483.333,o),
(579,494,cs)
);
},
{
closed = 1;
nodes = (
(202.667,-36,o),
(288.833,61.333,o),
(337.5,236,cs),
(361.833,323.333,o),
(380,443,o),
(392,595,cs),
(392.667,601.667,o),
(393,612.667,o),
(393,628,cs),
(393,681.333,o),
(382.333,721,o),
(361,747,c),
(371,758,l),
(480,672,l),
(472,650,o),
(467,626,o),
(465,600,cs),
(430.333,272,o),
(379,103.167,o),
(271,-9.5,cs),
(217,-65.833,o),
(141,-116,o),
(43,-160,c),
(28,-132,l),
(28,-132,l)
);
}
);
width = 1000;
}
);
unicode = 101372;
}
{
glyphname = u18C02;
layers = (
{
layerId = master01;
shapes = (
{
closed = 1;
nodes = (
(176.333,363,o),
(247.333,513,o),
(274,637,cs),
(276.667,651.667,o),
(278,663.667,o),
(278,673,cs),
(278,691.667,o),
(274.333,709.333,o),
(267,726,c),
(278,734,l),
(364,648,l),
(350,624.667,o),
(339,603.333,o),
(331,584,cs),
(273.667,446.667,o),
(205.333,337.333,o),
(100,216,c),
(79,231,l),
(79,231,l)
);
},
{
closed = 1;
nodes = (
(214.333,-118.333,o),
(172,-124.333,o),
(118,-133,c),
(38,-74,l),
(43,-61,l),
(81,-65.667,o),
(117,-68,o),
(151,-68,cs),
(163.667,-68,o),
(182.667,-67.333,o),
(208,-66,cs),
(402.667,-54,o),
(552,-43,o),
(720,-31,cs),
(792,-25.667,o),
(825.333,-19.667,o),
(860,-1,cs),
(862,0.333,o),
(864.667,0,o),
(868,-2,cs),
(964,-56,l),
(961,-70,l),
(684.333,-84,o),
(445.667,-99,o),
(245,-115,cs)
);
},
{
closed = 1;
nodes = (
(348.333,175.333,o),
(307.667,169,o),
(259,159,c),
(183,214,l),
(188,227,l),
(226.667,223.667,o),
(257.333,222,o),
(280,222,cs),
(302,222,o),
(324,223,o),
(346,225,cs),
(419.333,229.667,o),
(490,235.333,o),
(558,242,cs),
(608,247,ls),
(672,252.333,o),
(705.333,258,o),
(736,278,c),
(739.333,279.333,o),
(742.333,279,o),
(745,277,c),
(837,228,l),
(834,213,l),
(664.667,202.333,o),
(565,195.333,o),
(381,178,cs)
);
},
{
closed = 1;
nodes = (
(488,-71,l),
(488,281,l),
(488,481,l),
(547,485,l),
(547,-64,l),
(547,-64,l)
);
},
{
closed = 1;
nodes = (
(289.333,501.667,o),
(309.333,501,o),
(320,501,cs),
(336,501,o),
(358,501.667,o),
(386,503,cs),
(448.667,507.667,o),
(505.667,512.667,o),
(557,518,cs),
(623,524,ls),
(687,529.333,o),
(719,535.333,o),
(751,554,cs),
(753.667,556,o),
(756.667,556,o),
(760,554,cs),
(852,505,l),
(849,490,l),
(689,479.333,o),
(598.333,473,o),
(421,457,cs),
(388.333,454.333,o),
(347.667,448,o),
(299,438,c),
(248,475,l),
(260,503,l),
(260,503,l)
);
}
);
width = 1000;
}
);
unicode = 101378;
}
{
glyphname = u18C26;
layers = (
{
layerId = master01;
shapes = (
{
closed = 1;
nodes = (
(538,534.333,o),
(503.667,529.333,o),
(477,524,c),
(400,579,l),
(405,592,l),
(431,588,o),
(458.333,586,o),
(487,586,cs),
(509.667,586,o),
(535.667,587.333,o),
(565,590,cs),
(614.333,594.667,o),
(676.667,602,o),
(752,612,cs),
(800.667,621.333,o),
(836.333,637.333,o),
(859,660,cs),
(862.333,663.333,o),
(865.333,663.333,o),
(868,660,cs),
(922,596,ls),
(925.333,592.667,o),
(925.333,589.333,o),
(922,586,cs),
(898,565,ls),
(890,558.333,o),
(888,556,o),
(888,548,cs),
(874.667,241.333,o),
(861,8,o),
(829,-76,cs),
(818.333,-103.333,o),
(801.667,-123.333,o),
(779,-136,cs),
(776.333,-138,o),
(773.333,-139,o),
(770,-139,cs),
(766.667,-139,o),
(764.333,-138,o),
(763,-136,cs),
(731,-88.667,o),
(686.333,-45,o),
(629,-5,c),
(642,16,l),
(752,-33,ls),
(756,-34.333,o),
(759,-35,o),
(761,-35,cs),
(767.667,-35,o),
(772.333,-30.333,o),
(775,-21,cs),
(797.667,52.333,o),
(815.333,327.333,o),
(822,554,cs),
(822,562.667,o),
(818.667,566.667,o),
(812,566,cs),
(580,539,l),
(580,539,l)
);
},
{
closed = 1;
nodes = (
(328,409.667,o),
(324.667,375.333,o),
(324,332,cs),
(320.667,184,o),
(319,20.667,o),
(319,-158,c),
(306,-164,l),
(240,-96,ls),
(238.667,-94.667,o),
(238.667,-91.667,o),
(240,-87,c),
(248,-70.333,o),
(253,-48.667,o),
(255,-22,cs),
(260.333,62,o),
(263,160.333,o),
(263,273,cs),
(263,305,o),
(262.333,343.667,o),
(261,389,cs),
(259.667,415.667,o),
(254.667,440,o),
(246,462,c),
(270,487,l),
(334,435,l),
(334,435,l)
);
},
{
closed = 1;
nodes = (
(165.667,355.667,o),
(271,533.333,o),
(311,656,cs),
(317,676,o),
(320,695.667,o),
(320,715,cs),
(320,731,o),
(318,746.333,o),
(314,761,c),
(326,766,l),
(408,667,l),
(391.333,646.333,o),
(378,627,o),
(368,609,cs),
(284,455.667,o),
(166,289.333,o),
(74,200,c),
(51,221,l),
(51,221,l)
);
}
);
width = 1000;
}
);
unicode = 101414;
}
{
glyphname = u18C27;
layers = (
{
layerId = master01;
shapes = (
{
closed = 1;
nodes = (
(536,530.333,o),
(501.667,525.333,o),
(475,520,c),
(398,575,l),
(403,588,l),
(429,584,o),
(456.333,582,o),
(485,582,cs),
(507.667,582,o),
(533.667,583.333,o),
(563,586,cs),
(629.667,591.333,o),
(750,608,o),
(770,612,cs),
(820,622.667,o),
(855.667,638.667,o),
(877,660,cs),
(880.333,663.333,o),
(883.333,663.333,o),
(886,660,cs),
(938,596,ls),
(941.333,592.667,o),
(941.333,589.333,o),
(938,586,cs),
(914,565,ls),
(906,558.333,o),
(904,556,o),
(904,548,cs),
(901.333,290.667,o),
(886.333,-2.333,o),
(853,-89,cs),
(841,-121,o),
(821.667,-142.333,o),
(803,-153,cs),
(800.333,-155,o),
(797.333,-156,o),
(794,-156,cs),
(790.667,-156,o),
(788.333,-155,o),
(787,-153,cs),
(755,-105.667,o),
(710.667,-62.667,o),
(654,-24,c),
(668,-1,l),
(776,-50,l),
(784,-52,l),
(790.667,-52,o),
(795.667,-47.333,o),
(799,-38,cs),
(824.333,39.333,o),
(840,343.333,o),
(840,554,cs),
(840,562.667,o),
(836.667,566.667,o),
(830,566,cs),
(772.667,559.333,o),
(721.667,553.333,o),
(683,548,cs),
(578,535,l),
(578,535,l)
);
},
{
closed = 1;
nodes = (
(493.333,236.667,o),
(452.667,230.333,o),
(408,221,c),
(332,274,l),
(337,287,l),
(366.333,284.333,o),
(396,283,o),
(426,283,cs),
(449.333,283,o),
(472.333,284,o),
(495,286,cs),
(544.333,289.333,o),
(578,292.333,o),
(596,295,cs),
(664,303,o),
(680,305.333,o),
(712,324,c),
(715.333,325.333,o),
(718.333,325,o),
(721,323,c),
(813,275,l),
(810,260,l),
(730,256.667,o),
(636.667,250,o),
(530,240,cs)
);
},
{
closed = 1;
nodes = (
(317,409.667,o),
(313.667,375.333,o),
(313,332,cs),
(309.667,184,o),
(308,20.667,o),
(308,-158,c),
(295,-164,l),
(230,-96,ls),
(228.667,-94.667,o),
(228.667,-91.667,o),
(230,-87,c),
(238,-70.333,o),
(243,-48.667,o),
(245,-22,cs),
(250.333,62,o),
(253,160.333,o),
(253,273,cs),
(253,305,o),
(252.333,343.667,o),
(251,389,cs),
(249.667,415.667,o),
(244.667,440,o),
(236,462,c),
(260,487,l),
(323,435,l),
(323,435,l)
);
},
{
closed = 1;
nodes = (
(600,454.667,o),
(596.667,420.333,o),
(596,377,cs),
(592.667,229,o),
(591,65.667,o),
(591,-113,c),
(579,-119,l),
(516,-51,ls),
(514.667,-49.667,o),
(514.667,-46.667,o),
(516,-42,cs),
(523.333,-24.667,o),
(528,-3,o),
(530,23,cs),
(535.333,107,o),
(538,205.333,o),
(538,318,cs),
(538,350,o),
(537.333,388.667,o),
(536,434,cs),
(534.667,471.333,o),
(524.667,507.333,o),
(506,542,c),
(521,553,l),
(606,480,l),
(606,480,l)
);
},
{
closed = 1;
nodes = (
(155.667,355.667,o),
(261,533.333,o),
(301,656,cs),
(307,676,o),
(310,695.667,o),
(310,715,cs),
(310,731,o),
(308,746.333,o),
(304,761,c),
(316,766,l),
(398,667,l),
(381.333,646.333,o),
(368,627,o),
(358,609,cs),
(274,455.667,o),
(156,289.333,o),
(64,200,c),
(41,221,l),
(41,221,l)
);
}
);
width = 1000;
}
);
unicode = 101415;
}
{
glyphname = u18C29;
layers = (
{
layerId = master01;
shapes = (
{
closed = 1;
nodes = (
(536,257.333,o),
(533,223,o),
(533,179,cs),
(533,101,o),
(534,40,o),
(536,-4,cs),
(537.333,-34,o),
(536.667,-57.667,o),
(534,-75,cs),
(527.333,-120.333,o),
(516.667,-145.333,o),
(498,-164,c),
(493.333,-167.333,o),
(489.667,-169,o),
(487,-169,cs),
(483.667,-169,o),
(480,-167,o),
(476,-163,cs),
(428,-112.333,o),
(361,-67.333,o),
(273,-14,c),
(284,9,l),
(451,-57,ls),
(453,-57.667,o),
(455.333,-58,o),
(458,-58,cs),
(464.667,-58,o),
(468.667,-52,o),
(470,-40,cs),
(471.333,-25.333,o),
(472,17.667,o),
(472,89,cs),
(472,173.667,o),
(471.667,217.667,o),
(471,221,c),
(469.667,257,o),
(460.667,303.667,o),
(442,337,c),
(472,341,l),
(542,282,l),
(542,282,l)
);
},
{
closed = 1;
nodes = (
(404.333,294.333,o),
(373.333,289.333,o),
(346,284,c),
(278,333,l),
(283,345,l),
(307.667,343,o),
(329.333,342,o),
(348,342,cs),
(363.333,342,o),
(382.333,342.667,o),
(405,344,cs),
(469,349.333,o),
(517.333,354.667,o),
(550,360,cs),
(572,363.333,o),
(591.667,370,o),
(609,380,cs),
(612.333,381.333,o),
(615.333,381.667,o),
(618,381,c),
(700,337,l),
(697,320,l),
(587,314,o),
(501,307,o),
(439,299,cs)
);
},
{
closed = 1;
nodes = (
(141.667,279.333,o),
(246.333,444.667,o),
(297,570,cs),
(305.667,591.333,o),
(310,613.333,o),
(310,636,cs),
(310,650,o),
(308.667,662.333,o),
(306,673,c),
(318,679,l),
(399,578,l),
(386.333,563.333,o),
(372.333,544,o),
(357,520,cs),
(271.667,376,o),
(151.667,222.667,o),
(61,140,c),
(39,162,l),
(39,162,l)
);
},
{
closed = 1;
nodes = (
(719,510.667,o),
(759,448.667,o),
(797,392,cs),
(854.333,308,o),
(894.667,279.667,o),
(968,257,c),
(966,231,l),
(817,224,ls),
(807.667,224,o),
(801.667,226.333,o),
(799,231,cs),
(707,413.667,o),
(649,526,o),
(577,646,cs),
(557,680.667,o),
(533,699.333,o),
(485,718,c),
(485,734,l),
(587,734,l),
(597,708.667,o),
(611.667,680.667,o),
(631,650,cs),
(677,578,l),
(677,578,l)
);
}
);
width = 1000;
}
);
unicode = 101417;
}
{
glyphname = u18C2B;
layers = (
{
layerId = master01;
shapes = (
{
closed = 1;
nodes = (
(150.333,371,o),
(247,506,o),
(279,606,cs),
(281,614,o),
(282,624,o),
(282,636,cs),
(282,658,o),
(278.333,675.333,o),
(271,688,c),
(286,698,l),
(373,597,l),
(363,585,o),
(349,565.333,o),
(331,538,cs),
(316,515,ls),
(242.667,411,o),
(164.667,323.667,o),
(54,225,c),
(29,251,l),
(29,251,l)
);
},
{
closed = 1;
nodes = (
(703,568,o),
(722.167,545.5,o),
(748.5,514.5,cs),
(774.833,483.5,o),
(796,459.667,o),
(812,443,cs),
(881.333,371,o),
(921.333,349,o),
(988,341,c),
(988,313,l),
(844,293,l),
(841,293,ls),
(834.333,293,o),
(829.333,295.333,o),
(826,300,cs),
(767,383,ls),
(696.333,483.667,o),
(638,563.333,o),
(592,622,cs),
(564,658,o),
(542.333,675.667,o),
(489,685,c),
(488,701,l),
(597,716,l),
(609,685.333,o),
(619.333,667,o),
(650,631,cs),
(691,582,l),
(691,582,l)
);
},
{
closed = 1;
nodes = (
(407.333,366.333,o),
(376.333,361.333,o),
(349,356,c),
(281,405,l),
(286,417,l),
(310.667,415,o),
(332.333,414,o),
(351,414,cs),
(366.333,414,o),
(385.333,414.667,o),
(408,416,cs),
(448.667,420,o),
(491.667,425.333,o),
(537,432,cs),
(559,435.333,o),
(578.667,442,o),
(596,452,cs),
(599.333,453.333,o),
(602.333,453.667,o),
(605,453,c),
(687,409,l),
(684,392,l),
(581.333,386,o),
(500.667,379,o),
(442,371,cs)
);
},
{
closed = 1;
nodes = (
(287,134.333,o),
(255.333,129.667,o),
(222,123,cs),
(194,118,l),
(118,174,l),
(123,187,l),
(155.667,184.333,o),
(188,183,o),
(220,183,cs),
(247.333,183,o),
(267.667,183.667,o),
(281,185,cs),
(374.333,191.667,o),
(464.667,199,o),
(562,207,cs),
(650,214,ls),
(718,220.667,o),
(746.333,226.333,o),
(777,245,c),
(780.333,246.333,o),
(783.333,246,o),
(786,244,c),
(878,194,l),
(875,179,l),
(637.667,164.333,o),
(561,158.333,o),
(317,137,cs)
);
},
{
closed = 1;
nodes = (
(529,306.667,o),
(525.667,272.333,o),
(525,229,cs),
(525,205,ls),
(521.667,41.667,o),
(520,-75.333,o),
(520,-146,c),
(507,-152,l),
(446,-84,ls),
(444.667,-82.667,o),
(444.667,-79.667,o),
(446,-75,c),
(454,-58.333,o),
(459,-36.667,o),
(461,-10,cs),
(465.667,68,o),
(468,146,o),
(468,224,cs),
(468,252.667,o),
(467.667,273.333,o),
(467,286,cs),
(465.667,321.333,o),
(456,352.333,o),
(438,379,c),
(456,396,l),
(535,332,l),
(535,332,l)
);
}
);
width = 1000;
}
);
unicode = 101419;
}
{
glyphname = u18C31;
layers = (
{
layerId = master01;
shapes = (
{
closed = 1;
nodes = (
(214.667,-109.667,o),
(182.667,-113.667,o),
(144,-119,cs),
(113,-124,l),
(33,-65,l),
(38,-52,l),
(84.667,-57.333,o),
(123,-60,o),
(153,-60,cs),
(165,-60,o),
(181.667,-59.333,o),
(203,-58,cs),
(400,-47,ls),
(441.333,-44.333,o),
(488.5,-41.5,o),
(541.5,-38.5,cs),
(594.5,-35.5,o),
(656.333,-31.667,o),
(727,-27,cs),
(797.667,-21.667,o),
(832,-15.333,o),
(868,2,cs),
(870,3.333,o),
(872.667,3,o),
(876,1,cs),
(971,-53,l),
(968,-67,l),
(931,-69,ls),
(646.333,-82.333,o),
(416,-95,o),
(240,-107,cs)
);
},
{
closed = 1;
nodes = (
(341.333,160.667,o),
(300.333,154.667,o),
(257,146,c),
(182,202,l),
(187,215,l),
(225,211,o),
(258.333,209,o),
(287,209,cs),
(300.333,209,o),
(319.667,209.667,o),
(345,211,cs),
(403,213.667,o),
(468.667,218.333,o),
(542,225,cs),
(595,230,ls),
(661.667,234,o),
(693.333,240.333,o),
(724,259,c),
(727.333,260.333,o),
(730.333,260,o),
(733,258,cs),
(824,207,l),
(821,192,l),
(655.667,184,o),
(558.667,178.667,o),
(380,164,cs)
);
},
{
closed = 1;
nodes = (
(473.333,73,o),
(476,244.667,o),
(476,436,cs),
(476,528,o),
(475.333,593,o),
(474,631,cs),
(472.667,672.333,o),
(460.333,719,o),
(431,751,c),
(442,763,l),
(546,677,l),
(539.333,648.333,o),
(536,614,o),
(536,574,cs),
(536,430,o),
(534.667,214,o),
(532,-74,c),
(468,-79,l),
(468,-79,l)
);
},
{
closed = 1;
nodes = (
(732,549.333,o),
(799,480,o),
(855,412,cs),
(860.333,406.667,o),
(860.333,403.667,o),
(859,397,cs),
(832,294,l),
(810,290,l),
(770,388.667,o),
(708,506,o),
(636,606,c),
(654,620,l),
(654,620,l)
);
},
{
closed = 1;
nodes = (
(303,432.667,o),
(226.333,336.667,o),
(173,286,c),
(155,288,l),
(129,374,ls),
(128.333,378,o),
(129.333,380.333,o),
(132,381,cs),
(152,385.667,o),
(167.333,392.333,o),
(178,401,cs),
(243.333,451.667,o),
(295.333,522,o),
(290,590,c),
(309,592,l),
(319,556.667,o),
(324,531,o),
(324,515,cs),
(324,505,o),
(322.333,494,o),
(319,482,cs)
);
}
);
width = 1000;
}
);
unicode = 101425;
}
{
glyphname = u18C3B;
layers = (
{
layerId = master01;
shapes = (
{
closed = 1;
nodes = (
(586,563.667,o),
(623.333,536,o),
(694,484,cs),
(803.333,404,o),
(862.333,371,o),
(961,359,c),
(961,337,l),
(801,319,l),
(790,318,ls),
(784,318,o),
(779.333,320,o),
(776,324,cs),
(689.333,411.333,o),
(587.667,503,o),
(471,599,c),
(493,632,l),
(582,567,l),
(582,567,l)
);
},
{
closed = 1;
nodes = (
(251.667,409.667,o),
(405,560.333,o),
(461,679,cs),
(467.667,695,o),
(471,711.667,o),
(471,729,cs),
(471,740.333,o),
(469.667,751,o),
(467,761,c),
(480,767,l),
(554,660,l),
(474,565,ls),
(383.333,457,o),
(233,339.333,o),
(69,246,c),
(49,275,l),
(49,275,l)
);
},
{
closed = 1;
nodes = (
(283.333,151,o),
(250,147,o),
(222,139,c),
(148,195,l),
(154,207,l),
(176.667,201.667,o),
(223.667,199.667,o),
(253,201,cs),
(426.333,214.333,o),
(557.667,227.333,o),
(647,240,cs),
(671,243.333,o),
(693.333,255.333,o),
(714,276,cs),
(716.667,278.667,o),
(719.333,278.667,o),
(722,276,cs),
(779,219,ls),
(781.667,216.333,o),
(781.333,213.333,o),
(778,210,cs),
(754,189,ls),
(744.667,181,o),
(745.333,181.333,o),
(744,172,cs),
(732.667,66.667,o),
(709.333,-20.333,o),
(674,-89,cs),
(658,-119.667,o),
(635,-149.333,o),
(619,-160,cs),
(615.667,-162.667,o),
(613,-164,o),
(611,-164,cs),
(609,-164,o),
(607,-162.667,o),
(605,-160,cs),
(549,-96,o),
(507.333,-54.333,o),
(450,-13,c),
(466,11,l),
(600,-57,ls),
(602.667,-58.333,o),
(604.667,-59,o),
(606,-59,cs),
(610,-59,o),
(613.667,-56.333,o),
(617,-51,cs),
(647.667,3.667,o),
(675.333,99.333,o),
(678,178,cs),
(678,186,o),
(675,189.667,o),
(669,189,cs),
(531,176,ls),
(407,164.667,o),
(336,157.667,o),
(318,155,cs)
);
},
{
closed = 1;
nodes = (
(445,91.667,o),
(378.833,-2.5,o),
(275.5,-72.5,cs),
(223.833,-107.5,o),
(159.667,-138.667,o),
(83,-166,c),
(70,-138,l),
(286.181,-40.818,o),
(384.859,76.318,o),
(442,297,cs),
(447.333,319.667,o),
(450,339.667,o),
(450,357,cs),
(450,383,o),
(445.333,405.667,o),
(436,425,c),
(452,434,l),
(533,329,l),
(521,307,o),
(507.667,275,o),
(493,233,cs)
);
}
);
width = 1000;
}
);
unicode = 101435;
}
{
glyphname = u18C3D;
layers = (
{
layerId = master01;
shapes = (
{
closed = 1;
nodes = (
(568.333,565,o),
(636,501.333,o),
(694,450,cs),
(792.667,362,o),
(853,329.667,o),
(961,307,c),
(961,283,l),
(797,266,l),
(788,266,ls),
(781.333,266,o),
(776,268,o),
(772,272,cs),
(636.667,425.333,o),
(535.333,537.667,o),
(468,609,c),
(491,641,l),
(491,641,l)
);
},
{
closed = 1;
nodes = (
(238,338.667,o),
(402.333,541,o),
(461,685,cs),
(467,700.333,o),
(470,714.333,o),
(470,727,cs),
(470,737.667,o),
(468,749,o),
(464,761,c),
(477,767,l),
(562,667,l),
(544,647,o),
(515,610.333,o),
(475,557,cs),
(380.333,426.333,o),
(223,266.667,o),
(79,160,c),
(58,188,l),
(58,188,l)
);
},
{
closed = 1;
nodes = (
(458,-4.667,o),
(462,114.333,o),
(462,201,cs),
(462,247,ls),
(460.667,283,o),
(449.667,324.667,o),
(427,362,c),
(439,373,l),
(537,288,l),
(531,262.667,o),
(527.667,228.333,o),
(527,185,cs),
(524.333,89,o),
(523,3.667,o),
(523,-71,c),
(454,-66,l),
(454,-66,l)
);
},
{
closed = 1;
nodes = (
(301.667,-103.667,o),
(260.667,-109,o),
(220,-117,c),
(146,-59,l),
(152,-46,l),
(190,-50.667,o),
(226.333,-53,o),
(261,-53,cs),
(282.333,-53,o),
(298.333,-52.667,o),
(309,-52,cs),
(464,-44,ls),
(493.333,-42.667,o),
(515,-41.333,o),
(529,-40,cs),
(637.477,-34.437,o),
(706.189,-30.393,o),
(735,-24.5,cs),
(749.667,-21.5,o),
(762.333,-16.667,o),
(773,-10,c),
(776.333,-8.667,o),
(779.333,-9,o),
(782,-11,cs),
(873,-63,l),
(870,-78,l),
(624.667,-83.333,o),
(555,-86.333,o),
(343,-101,cs)
);
}
);
width = 1000;
}
);
unicode = 101437;
}
{
glyphname = u18C3E;
layers = (
{
layerId = master01;
shapes = (
{
closed = 1;
nodes = (
(578.667,571.667,o),
(595.167,559.5,o),
(615.5,544.5,cs),
(635.833,529.5,o),
(662,510.667,o),
(694,488,cs),
(800.667,413.333,o),
(862.333,382.333,o),
(961,369,c),
(961,342,l),
(800,316,ls),
(797.333,315.333,o),
(793.667,315,o),
(789,315,cs),
(783,315,o),
(778.333,317,o),
(775,321,cs),
(671,425.667,o),
(569.667,519.333,o),
(471,602,c),
(493,635,l),
(566,581,l),
(566,581,l)
);
},
{
closed = 1;
nodes = (
(269.667,408,o),
(404.667,545.667,o),
(464,689,cs),
(470.667,703.667,o),
(474,720,o),
(474,738,cs),
(474,748,o),
(472.333,759,o),
(469,771,c),
(483,777,l),
(564,669,l),
(548,655.667,o),
(522.667,626.333,o),
(504,601,cs),
(400.667,457.667,o),
(257.667,339.667,o),
(75,247,c),
(59,276,l),
(59,276,l)
);
},
{
closed = 1;
nodes = (
(583.333,22.333,o),
(586,101.667,o),
(586,183,cs),
(585,232,ls),
(583.667,268,o),
(572.667,309.667,o),
(550,347,c),
(562,358,l),
(659,273,l),
(653,247.667,o),
(649.667,213.333,o),
(649,170,cs),
(646.333,86,o),
(645,12.667,o),
(645,-50,c),
(578,-55,l),
(578,-55,l)
);
},
{
closed = 1;
nodes = (
(301.667,-103.667,o),
(260.667,-109,o),
(220,-117,c),
(146,-59,l),
(152,-46,l),
(190,-50.667,o),
(226.333,-53,o),
(261,-53,cs),
(282.333,-53,o),
(298.333,-52.667,o),
(309,-52,cs),
(464,-44,ls),
(493.333,-42.667,o),
(515,-41.333,o),
(529,-40,cs),
(637.477,-34.437,o),
(706.189,-30.393,o),
(735,-24.5,cs),
(749.667,-21.5,o),
(762.333,-16.667,o),
(773,-10,c),
(776.333,-8.667,o),
(779.333,-9,o),
(782,-11,cs),
(873,-63,l),
(870,-78,l),
(624.667,-83.333,o),
(555,-86.333,o),
(343,-101,cs)
);
},
{
closed = 1;
nodes = (
(342.333,3.333,o),
(345,82.333,o),
(345,163,cs),
(344,212,ls),
(342.667,248,o),
(331.667,289.667,o),
(309,327,c),
(321,338,l),
(415,253,l),
(409,227.667,o),
(405.667,193.333,o),
(405,150,cs),
(402.333,66,o),
(401,-8,o),
(401,-72,c),
(337,-74,l),
(337,-74,l)
);
}
);
width = 1000;
}
);
unicode = 101438;
}
{
glyphname = u18C42;
layers = (
{
layerId = master01;
shapes = (
{
closed = 1;
nodes = (
(627,550.667,o),
(675,515,o),
(717,485,cs),
(807.667,421,o),
(868.667,394,o),
(962,382,c),
(962,355,l),
(801,328,ls),
(798.333,327.333,o),
(794.667,327,o),
(790,327,cs),
(784,327,o),
(779.333,329,o),
(776,333,cs),
(659.333,451,o),
(557.333,547,o),
(470,621,c),
(494,652,l),
(573,592,l),
(573,592,l)
);
},
{
closed = 1;
nodes = (
(257.667,401.333,o),
(408,554.333,o),
(464,689,cs),
(470.667,703.667,o),
(474,720,o),
(474,738,cs),
(474,748,o),
(472.333,759,o),
(469,771,c),
(483,777,l),
(564,669,l),
(548,655.667,o),
(522.667,626.333,o),
(504,601,cs),
(406.667,466.333,o),
(248.333,336,o),
(75,248,c),
(59,276,l),
(59,276,l)
);
},
{
closed = 1;
nodes = (
(486,34.667,o),
(354,-97,o),
(98,-161,c),
(88,-131,l),
(332,-49.667,o),
(449.333,86.667,o),
(476,320,cs),
(476.667,324,o),
(477,330.667,o),
(477,340,cs),
(477,377.333,o),
(467.667,418.333,o),
(445,449,c),
(458,461,l),
(559,374,l),
(551,355.333,o),
(545.667,328,o),
(539,296,cs),
(534,272,l),
(534,272,l)
);
},
{
closed = 1;
nodes = (
(610,90.667,o),
(717.667,16.667,o),
(807,-52,cs),
(809.667,-54.667,o),
(811,-57.667,o),
(811,-61,cs),
(810,-168,l),
(794,-172,l),
(692.667,-48,o),
(593,48.667,o),
(465,146,c),
(484,170,l),
(484,170,l)
);
},
{
closed = 1;
nodes = (
(279,252.667,o),
(320,213.667,o),
(356,173,cs),
(358.667,169.667,o),
(359,165,o),
(357,159,cs),
(333,71,l),
(315,67,l),
(288.333,152.333,o),
(256.333,222.333,o),
(219,277,c),
(233,290,l),
(233,290,l)
);
},
{
closed = 1;
nodes = (
(615,133.667,o),
(654.333,180,o),
(673,216,cs),
(686.333,237.333,o),
(691.333,257,o),
(690,293,c),
(706,299,l),
(758,196,l),
(747.333,189.333,o),
(730,176.667,o),
(706,158,cs),
(667.333,126.667,o),
(629.667,98,o),
(593,72,c),
(567,91,l),
(567,91,l)
);
}
);
width = 1000;
}
);
unicode = 101442;
}
{
glyphname = u18C44;
layers = (
{
layerId = master01;
shapes = (
{
closed = 1;
nodes = (
(286.333,258.667,o),
(336.333,225.667,o),
(391,185,c),
(395,181,o),
(397,177,o),
(397,173,cs),
(401,79,l),
(382,71,l),
(344.667,131,o),
(287.333,203.667,o),
(226,265,c),
(241,284,l),
(241,284,l)
);
},
{
closed = 1;
nodes = (
(134.333,154.667,o),
(228.333,339.667,o),
(259,465,cs),
(261,473,o),
(262,483,o),
(262,495,cs),
(262,519.667,o),
(257.333,541,o),
(248,559,c),
(262,568,l),
(351,473,l),
(337.667,456.333,o),
(324.333,433,o),
(311,403,cs),
(253.667,271,o),
(149.667,103.333,o),
(55,-10,c),
(29,8,l),
(29,8,l)
);
},
{
closed = 1;
nodes = (
(765.667,285.667,o),
(833,225,o),
(907,151,cs),
(910.333,147.667,o),
(912,143.667,o),
(912,139,cs),
(903,45,l),
(883,40,l),
(839,125.333,o),
(768,226.667,o),
(688,316,c),
(705,333,l),
(705,333,l)
);
},
{
closed = 1;
nodes = (
(583,166,o),
(673,352,o),
(705,480,cs),
(707,488,o),
(708,498,o),
(708,510,cs),
(708,534.667,o),
(703.333,556,o),
(694,574,c),
(708,583,l),
(797,488,l),
(783.667,471.333,o),
(770.333,448,o),
(757,418,cs),
(699.667,286,o),
(595.667,118.333,o),
(501,5,c),
(479,22,l),
(479,22,l)
);
},
{
closed = 1;
nodes = (
(531.333,655.333,o),
(528,621,o),
(528,581,cs),
(528,502.333,o),
(527.333,379,o),
(526,211,cs),
(524,85,o),
(523,-38.667,o),
(523,-160,c),
(510,-166,l),
(447,-98,ls),
(445.667,-96.667,o),
(445.667,-93.667,o),
(447,-89,cs),
(455,-71,o),
(459.667,-49.333,o),
(461,-24,cs),
(465.667,119.333,o),
(468,265.667,o),
(468,415,cs),
(468,499.667,o),
(467,574,o),
(465,638,cs),
(463.667,679.333,o),
(451.333,726,o),
(422,758,c),
(433,770,l),
(538,684,l),
(538,684,l)
);
}
);
width = 1000;
}
);
unicode = 101444;
}
{
glyphname = u18C52;
layers = (
{
layerId = master01;
shapes = (
{
closed = 1;
nodes = (
(292,290,o),
(259.333,302.333,o),
(202,301,c),
(198,316,l),
(302,352,l),
(316.667,334,o),
(335.667,314.333,o),
(359,293,cs),
(441.667,221,o),
(561.667,118.667,o),
(615,76,cs),
(727,-16,o),
(787.5,-54,o),
(841.5,-70,cs),
(868.5,-78,o),
(903.333,-84.333,o),
(946,-89,c),
(946,-116,l),
(746,-137,l),
(743,-137,ls),
(735,-137,o),
(729,-134.333,o),
(725,-129,c),
(578.333,22.333,o),
(444.667,152.667,o),
(324,262,cs)
);
},
{
closed = 1;
nodes = (
(431.333,707,o),
(484,668.667,o),
(528,630,cs),
(532,626,o),
(533,621.333,o),
(531,616,cs),
(509,532,l),
(492,528,l),
(452,611.333,o),
(407.333,678.667,o),
(358,730,c),
(370,745,l),
(370,745,l)
);
},
{
closed = 1;
nodes = (
(569.333,73.667,o),
(385.333,-74,o),
(80,-162,c),
(69,-130,l),
(365,-20.667,o),
(535.667,133,o),
(613,369,cs),
(619.667,389,o),
(623,410.333,o),
(623,433,cs),
(623,455.667,o),
(619.333,479,o),
(612,503,c),
(628,512,l),
(712,408,l),
(696,382.667,o),
(681.667,344.667,o),
(679,338,cs),
(668,311,l),
(668,311,l)
);
},
{
closed = 1;
nodes = (
(212.333,438,o),
(171.333,432,o),
(134,424,c),
(58,480,l),
(63,491,l),
(95,489,o),
(123.667,488,o),
(149,488,cs),
(166.333,488,o),
(191,488.667,o),
(223,490,cs),
(349,498.667,o),
(506,512,o),
(694,530,cs),
(715,532,ls),
(784.333,537.333,o),
(814.333,541,o),
(845,561,cs),
(847.667,562.333,o),
(850.667,562,o),
(854,560,cs),
(946,512,l),
(943,497,l),
(779.667,486.333,o),
(551,468,o),
(257,442,cs)
);
}
);
width = 1000;
}
);
unicode = 101458;
}
{
glyphname = u18C59;
layers = (
{
layerId = master01;
shapes = (
{
closed = 1;
nodes = (
(336.667,414,o),
(474,422.667,o),
(648,436,cs),
(716,442.667,o),
(746,446.333,o),
(778,465,cs),
(780.667,466.333,o),
(783.667,466,o),
(787,464,cs),
(879,408,l),
(876,393,l),
(610.667,381,o),
(498.667,375.333,o),
(272,358,cs),
(238.667,355.333,o),
(217.667,350.667,o),
(209,344,cs),
(178,321,ls),
(173.333,317.667,o),
(170,317.667,o),
(168,321,cs),
(123,384,ls),
(120.333,388,o),
(120.333,391.333,o),
(123,394,c),
(149.667,413.333,o),
(167.333,441.333,o),
(176,478,cs),
(180,493.333,o),
(183.167,510.167,o),
(185.5,528.5,cs),
(187.833,546.833,o),
(189.333,557.667,o),
(190,561,cs),
(190.667,564.333,o),
(191,569.667,o),
(191,577,cs),
(191,610.333,o),
(178.667,656,o),
(160,684,c),
(173,694,l),
(273,591,l),
(265,575.667,o),
(257.667,557,o),
(251,535,cs),
(244.333,513,o),
(236,474.667,o),
(226,420,cs),
(225,415,ls),
(225,408.976,o),
(231.479,410,o),
(236,410,cs)
);
},
{
closed = 1;
nodes = (
(466,708.333,o),
(533.667,668,o),
(583,630,cs),
(588.333,626,o),
(588.333,617,o),
(587,609,cs),
(571,512,l),
(556,511,l),
(513.333,584.333,o),
(435,677.333,o),
(367,732,c),
(380,751,l),
(380,751,l)
);
},
{
closed = 1;
nodes = (
(243.667,109,o),
(174.333,-1.333,o),
(137,-44,c),
(119,-42,l),
(87,45,ls),
(86.333,47.667,o),
(87.667,49.667,o),
(91,51,cs),
(111,57.667,o),
(126,65,o),
(136,73,cs),
(192,123.667,o),
(239.667,205.333,o),
(241,276,c),
(261,275,l),
(266.333,244.333,o),
(272,215,o),
(272,195,cs),
(272,181,o),
(269.667,168.333,o),
(265,157,cs)
);
},
{
closed = 1;
nodes = (
(758,213.667,o),
(825.333,145.667,o),
(876,85,cs),
(881.333,79.667,o),
(881.333,76.667,o),
(880,70,cs),
(852,-37,l),
(830,-41,l),
(791.333,55,o),
(727,174.333,o),
(655,273,c),
(674,289,l),
(674,289,l)
);
},
{
closed = 1;
nodes = (
(533,315,o),
(530,279.333,o),
(530,236,cs),
(530,214,o),
(530.667,180.333,o),
(532,135,cs),
(533.333,79.667,o),
(533.667,40.333,o),
(533,17,cs),
(533,-5.667,o),
(531.667,-24.667,o),
(529,-40,cs),
(522.333,-76,o),
(509.667,-103.333,o),
(491,-122,cs),
(488.333,-124.667,o),
(486.167,-126,o),
(484.5,-126,cs),
(482.833,-126,o),
(480.667,-125,o),
(478,-123,cs),
(413.333,-67,o),
(352.667,-22,o),
(296,12,c),
(309,36,l),
(445,-21,ls),
(446.333,-21.667,o),
(448.333,-22,o),
(451,-22,cs),
(457.667,-22,o),
(461.667,-17.667,o),
(463,-9,cs),
(467,31,o),
(469,83.333,o),
(469,148,cs),
(469,179.333,o),
(468.667,206,o),
(468,228,cs),
(467.333,250,o),
(466.667,265,o),
(466,273,cs),
(463.333,326.333,o),
(451.333,366.667,o),
(430,394,c),
(461,397,l),
(539,343,l),
(539,343,l)
);
}
);
width = 1000;
}
);
unicode = 101465;
}
{
glyphname = u18C5F;
layers = (
{
layerId = master01;
shapes = (
{
closed = 1;
nodes = (
(282.667,177,o),
(223.667,-4,o),
(203,-98,cs),
(201,-107.333,o),
(197.333,-112,o),
(192,-112,cs),
(188.667,-112,o),
(184.667,-109.667,o),
(180,-105,cs),
(69,13,l),
(80,31,l),
(145,11,l),
(150,10,ls),
(154.667,10,o),
(158,12.667,o),
(160,18,cs),
(222.667,174.667,o),
(288.667,320.667,o),
(358,456,c),
(380,445,l),
(380,445,l)
);
},
{
closed = 1;
nodes = (
(218,691.333,o),
(268,656.333,o),
(322,613,c),
(324.667,607.667,o),
(326,603.333,o),
(326,600,cs),
(320,499,l),
(299,491,l),
(267,555,o),
(214,636,o),
(158,700,c),
(172,718,l),
(172,718,l)
);
},
{
closed = 1;
nodes = (
(122.667,428.667,o),
(178.333,392.333,o),
(209,367,cs),
(213,363,o),
(215,359,o),
(215,355,cs),
(208,254,l),
(187,246,l),
(156.333,307.333,o),
(111.333,380,o),
(62,436,c),
(76,454,l),
(76,454,l)
);
},
{
closed = 1;
nodes = (
(507,330,o),
(466.333,323.333,o),
(427,314,c),
(351,369,l),
(356,382,l),
(384.667,379.333,o),
(413,378,o),
(441,378,cs),
(465.667,378,o),
(490,379,o),
(514,381,cs),
(584,387,o),
(656.333,393.667,o),
(731,401,cs),
(797.667,407.667,o),
(828.667,412,o),
(858,432,c),
(861.333,433.333,o),
(864.333,433,o),
(867,431,c),
(960,382,l),
(957,367,l),
(806.333,356.333,o),
(699.667,348.667,o),
(549,334,cs)
);
},
{
closed = 1;
nodes = (
(686.333,655.333,o),
(683,621,o),
(683,581,cs),
(683,502.333,o),
(682.333,379,o),
(681,211,cs),
(679,85,o),
(678,-38.667,o),
(678,-160,c),
(665,-166,l),
(596,-98,ls),
(594.667,-96.667,o),
(594.667,-93.667,o),
(596,-89,cs),
(604,-71,o),
(608.667,-49.333,o),
(610,-24,cs),
(614.667,119.333,o),
(617,265.667,o),
(617,415,cs),
(617,499.667,o),
(616,574,o),
(614,638,cs),
(612.667,679.333,o),
(600.333,726,o),
(571,758,c),
(582,770,l),
(693,684,l),
(693,684,l)
);
}
);
width = 1000;
}
);
unicode = 101471;
}
{
glyphname = u18C60;
layers = (
{
layerId = master01;
shapes = (
{
closed = 1;
nodes = (
(302.667,177,o),
(243.667,-4,o),
(223,-98,cs),
(221,-107.333,o),
(217.333,-112,o),
(212,-112,cs),
(208.667,-112,o),
(204.667,-109.667,o),
(200,-105,cs),
(89,13,l),
(100,31,l),
(165,11,l),
(170,10,ls),
(174.667,10,o),
(178,12.667,o),
(180,18,cs),
(242.667,174.667,o),
(308.667,320.667,o),
(378,456,c),
(400,445,l),
(400,445,l)
);
},
{
closed = 1;
nodes = (
(192.667,697,o),
(255.667,668.333,o),
(293,647,c),
(297,641,o),
(299,637,o),
(299,635,cs),
(307,530,l),
(291,523,l),
(252.333,577.667,o),
(189.333,645.333,o),
(128,696,c),
(138,717,l),
(138,717,l)
);
},
{
closed = 1;
nodes = (
(122.333,432,o),
(181,405.667,o),
(213,387,c),
(218.333,383,o),
(221,379.333,o),
(221,376,cs),
(227,270,l),
(210,264,l),
(172.667,317.333,o),
(118,381.333,o),
(62,428,c),
(73,448,l),
(73,448,l)
);
},
{
closed = 1;
nodes = (
(637,432,o),
(731,441,o),
(753,445,cs),
(793,450.333,o),
(818,463.667,o),
(842,489,cs),
(845.333,492.333,o),
(848.667,492.333,o),
(852,489,cs),
(910,430,ls),
(913.333,427.333,o),
(913.333,424.333,o),
(910,421,cs),
(885,398,ls),
(877,391.333,o),
(875,389,o),
(875,381,cs),
(873.667,278.333,o),
(873,192.333,o),
(873,123,cs),
(874,16,ls),
(874.667,6,o),
(875,-5,o),
(875,-17,cs),
(875,-35,o),
(874,-51,o),
(872,-65,cs),
(864,-109,o),
(856,-128,o),
(840,-152,cs),
(835.333,-160,o),
(831.333,-164,o),
(828,-164,cs),
(824.667,-164,o),
(820.333,-161.667,o),
(815,-157,cs),
(747.667,-97.667,o),
(690,-50.667,o),
(642,-16,c),
(657,9,l),
(703,-15,o),
(746.667,-36,o),
(788,-54,cs),
(792,-55.333,o),
(794.333,-56,o),
(795,-56,cs),
(801.667,-56,o),
(805.667,-49.667,o),
(807,-37,cs),
(811,13.667,o),
(814,243.667,o),
(814,389,cs),
(814,398.333,o),
(810.667,401.333,o),
(804,400,c),
(476,369,l),
(471,418,l),
(471,418,l)
);
},
{
closed = 1;
nodes = (
(509.667,380,o),
(507,345.667,o),
(507,305,cs),
(507,-149,l),
(494,-155,l),
(432,-89,ls),
(430,-87,o),
(430,-84,o),
(432,-80,cs),
(441.333,-60.667,o),
(446,-39,o),
(446,-15,cs),
(446,1.667,o),
(446.333,14.333,o),
(447,23,cs),
(448,173,l),
(447,325,ls),
(446.333,332.333,o),
(446,344,o),
(446,360,cs),
(444.667,402.667,o),
(432.667,455,o),
(406,487,c),
(417,498,l),
(515,408,l),
(515,408,l)
);
},
{
closed = 1;
nodes = (
(622.333,262.667,o),
(692.667,213.333,o),
(738,176,cs),
(741.333,172.667,o),
(743,168.667,o),
(743,164,cs),
(740,62,l),
(720,54,l),
(671.333,139.333,o),
(614,213.333,o),
(548,276,c),
(561,296,l),
(561,296,l)
);
},
{
closed = 1;
nodes = (
(548,627.333,o),
(516.333,622.667,o),
(483,616,cs),
(455,611,l),
(379,664,l),
(384,677,l),
(412.667,674.333,o),
(441,673,o),
(469,673,cs),
(493.667,673,o),
(518,674,o),
(542,676,cs),
(686,688,ls),
(748.667,693.333,o),
(782.333,700,o),
(813,720,c),
(817,721.333,o),
(820,721.333,o),
(822,720,cs),
(914,670,l),
(912,655,l),
(789.333,648.333,o),
(716.667,643.333,o),
(578,630,cs)
);
},
{
closed = 1;
nodes = (
(697,580,l),
(685.667,568,o),
(676.333,555.667,o),
(669,543,cs),
(631,485.667,o),
(587.333,432.333,o),
(538,383,c),
(520,395,l),
(560,456.333,o),
(589,513.667,o),
(607,567,cs),
(615,591,o),
(619,614.667,o),
(619,638,cs),
(619,644,o),
(618.333,651.667,o),
(617,661,c),
(637,670,l),
(637,670,l)
);
}
);
width = 1000;
}
);
unicode = 101472;
}
{
glyphname = u18C61;
layers = (
{
layerId = master01;
shapes = (
{
closed = 1;
nodes = (
(278.667,189.333,o),
(228,-0.333,o),
(208,-95,cs),
(206,-104.333,o),
(202.333,-109,o),
(197,-109,cs),
(193,-109,o),
(189,-106.667,o),
(185,-102,cs),
(79,15,l),
(90,33,l),
(155,13,l),
(160,12,ls),
(164.667,12,o),
(168,14.667,o),
(170,20,cs),
(189.333,66.667,o),
(211.667,125,o),
(237,195,cs),
(277,300.333,o),
(305.333,372.333,o),
(322,411,c),
(344,400,l),
(344,400,l)
);
},
{
closed = 1;
nodes = (
(207.333,685.667,o),
(273,646.667,o),
(309,620,cs),
(312.333,617.333,o),
(314,613,o),
(314,607,cs),
(313,505,l),
(297,499,l),
(258.333,560.333,o),
(198,636.333,o),
(138,695,c),
(150,715,l),
(150,715,l)
);
},
{
closed = 1;
nodes = (
(121,438.333,o),
(179.667,408.667,o),
(217,386,cs),
(222.333,382,o),
(225,378.333,o),
(225,375,cs),
(230,276,l),
(214,269,l),
(175.333,325,o),
(119.333,389,o),
(62,437,c),
(73,457,l),
(73,457,l)
);
},
{
closed = 1;
nodes = (
(426.667,398,o),
(488.667,560.333,o),
(502,675,cs),
(504.667,700.333,o),
(496,739,o),
(484,759,c),
(497,771,l),
(593,685,l),
(587.667,674.333,o),
(579,652.667,o),
(567,620,cs),
(557,594,ls),
(507,462,o),
(442.333,341,o),
(363,231,c),
(340,246,l),
(340,246,l)
);
},
{
closed = 1;
nodes = (
(611.667,509.333,o),
(660,514.333,o),
(716,521,cs),
(737,524,ls),
(793,530.667,o),
(819.333,535,o),
(846,551,c),
(848.667,553.667,o),
(851.667,554,o),
(855,552,cs),
(947,505,l),
(944,490,l),
(825.333,480.667,o),
(664,465.667,o),
(460,445,c),
(488,497,l),
(571,506,l),
(571,506,l)
);
},
{
closed = 1;
nodes = (
(776.667,407.333,o),
(767.667,385,o),
(761,361,cs),
(698.333,126.333,o),
(562,-26.333,o),
(314,-149,c),
(299,-121,l),
(527,13.667,o),
(648.667,163.667,o),
(694,373,cs),
(700.667,405,o),
(704,432,o),
(704,454,cs),
(704,470.667,o),
(702.667,484.667,o),
(700,496,c),
(727,502,l),
(788,428,l),
(788,428,l)
);
},
{
closed = 1;
nodes = (
(603,208.667,o),
(625.333,180.667,o),
(650,148,cs),
(690.667,96.667,o),
(722.333,58.333,o),
(745,33,cs),
(799.667,-25.667,o),
(838.667,-52.667,o),
(880,-66,cs),
(900.667,-72.667,o),
(926.667,-78,o),
(958,-82,c),
(958,-110,l),
(790,-122,l),
(786,-122,ls),
(779.333,-122,o),
(774.667,-119.667,o),
(772,-115,cs),
(750,-83,ls),
(662,45.667,o),
(588,148.667,o),
(528,226,cs),
(504,258,o),
(479,273,o),
(423,281,c),
(421,299,l),
(530,317,l),
(542,286.333,o),
(552.333,268,o),
(583,232,cs)
);
}
);
width = 1000;
}
);
unicode = 101473;
}
{
glyphname = u18C62;
layers = (
{
layerId = master01;
shapes = (
{
closed = 1;
nodes = (
(300,163.667,o),
(241.667,-15.333,o),
(223,-98,cs),
(221,-107.333,o),
(217.333,-112,o),
(212,-112,cs),
(208.667,-112,o),
(204.667,-109.667,o),
(200,-105,cs),
(89,13,l),
(100,31,l),
(165,11,l),
(170,10,ls),
(174.667,10,o),
(178,12.667,o),
(180,18,cs),
(228,138,o),
(287.333,264,o),
(358,396,c),
(380,385,l),
(380,385,l)
);
},
{
closed = 1;
nodes = (
(192,696.333,o),
(247.333,670,o),
(304,638,c),
(308,632,o),
(310,628,o),
(310,626,cs),
(316,520,l),
(302,514,l),
(259.333,572.667,o),
(193.333,642.667,o),
(128,696,c),
(138,717,l),
(138,717,l)
);
},
{
closed = 1;
nodes = (
(123.667,430.667,o),
(183.667,403,o),
(217,383,cs),
(222.333,379,o),
(225,375.333,o),
(225,372,cs),
(229,268,l),
(214,260,l),
(175.333,316,o),
(119.333,380,o),
(62,428,c),
(73,448,l),
(73,448,l)
);
},
{
closed = 1;
nodes = (
(548,627.333,o),
(516.333,622.667,o),
(483,616,cs),
(455,611,l),
(379,664,l),
(384,677,l),
(412.667,674.333,o),
(441,673,o),
(469,673,cs),
(493.667,673,o),
(518,674,o),
(542,676,cs),
(686,688,ls),
(748.667,693.333,o),
(782.333,700,o),
(813,720,c),
(817,721.333,o),
(820,721.333,o),
(822,720,cs),
(914,670,l),
(912,655,l),
(789.333,648.333,o),
(716.667,643.333,o),
(578,630,cs)
);
},
{
closed = 1;
nodes = (
(689,580,l),
(677.667,568,o),
(668.333,555.667,o),
(661,543,cs),
(631,497.667,o),
(593.667,452.667,o),
(549,408,c),
(525,420,l),
(556.333,465.333,o),
(581,514.333,o),
(599,567,cs),
(607,591,o),
(611,614.667,o),
(611,638,cs),
(611,644,o),
(610.333,651.667,o),
(609,661,c),
(629,670,l),
(629,670,l)
);
},
{
closed = 1;
nodes = (
(490.667,394,o),
(488,361,o),
(488,323,cs),
(488,-148,l),
(473,-154,l),
(409,-86,ls),
(407,-84,o),
(407,-81,o),
(409,-77,cs),
(418.333,-58.333,o),
(423.667,-36.667,o),
(425,-12,cs),
(426.333,32.667,o),
(427,97.333,o),
(427,182,cs),
(427,266,o),
(426.333,329.667,o),
(425,373,cs),
(423.667,411.667,o),
(412.333,458.333,o),
(387,493,c),
(400,504,l),
(496,422,l),
(496,422,l)
);
},
{
closed = 1;
nodes = (
(499.667,-48,o),
(549.667,-45,o),
(605,-41,cs),
(626,-39,ls),
(687.333,-33.667,o),
(709.667,-31.667,o),
(735,-17,c),
(735.667,-17,o),
(737,-16.833,o),
(739,-16.5,cs),
(741,-16.167,o),
(742.667,-16.667,o),
(744,-18,c),
(812,-50,l),
(798,-78,l),
(677,-84,ls),
(583,-88,o),
(510.667,-91.667,o),
(460,-95,c),
(455,-50,l),
(455,-50,l)
);
},
{
closed = 1;
nodes = (
(612.667,448,o),
(702.333,456.333,o),
(725,461,cs),
(769,469.667,o),
(804.667,485.333,o),
(832,508,cs),
(835.333,511.333,o),
(838.333,511.333,o),
(841,508,c),
(908,448,ls),
(910.667,446,o),
(910.667,443.667,o),
(908,441,cs),
(884,416,ls),
(877.333,408,o),
(874,402.333,o),
(874,399,cs),
(868,136.333,o),
(862,-20,o),
(856,-70,cs),
(851.333,-107.333,o),
(842.667,-135,o),
(830,-153,c),
(828,-157,o),
(825.5,-159,o),
(822.5,-159,cs),
(819.5,-159,o),
(817.333,-157.667,o),
(816,-155,cs),
(762,-35,l),
(790,-39,l),
(801.333,39,o),
(807,188.667,o),
(807,410,cs),
(807,417.333,o),
(803.667,420.667,o),
(797,420,cs),
(719.667,412,o),
(605.667,402.333,o),
(455,391,c),
(456,436,l),
(456,436,l)
);
},
{
closed = 1;
nodes = (
(504.333,274.667,o),
(551,280,o),
(593,286,cs),
(614.333,289.333,o),
(629.833,293.333,o),
(639.5,298,cs),
(649.167,302.667,o),
(655,305.667,o),
(657,307,cs),
(660.333,309,o),
(663.333,309,o),
(666,307,c),
(742,270,l),
(739,253,l),
(673.667,249,o),
(528.333,235,o),
(459,227,c),
(453,270,l),
(453,270,l)
);
},
{
closed = 1;
nodes = (
(515,114.667,o),
(565.667,120,o),
(613,126,cs),
(634.333,129.333,o),
(649.833,133.333,o),
(659.5,138,cs),
(669.167,142.667,o),
(675,145.667,o),
(677,147,cs),
(680.333,149,o),
(683.333,149,o),
(686,147,c),
(762,110,l),
(759,93,l),
(691,89,o),
(539,75,o),
(467,67,c),
(461,110,l),
(461,110,l)
);
}
);
width = 1000;
}
);
unicode = 101474;
}
{
glyphname = u18C78;
layers = (
{
layerId = master01;
shapes = (
{
closed = 1;
nodes = (
(674.333,490.667,o),
(740,562.667,o),
(772,616,cs),
(788,643.333,o),
(796.667,670,o),
(798,696,c),
(813,698,l),
(862,577,l),
(850,571,o),
(827.667,555.333,o),
(795,530,cs),
(735.667,482,o),
(675.667,442.333,o),
(615,411,c),
(597,436,l),
(597,436,l)
);
},
{
closed = 1;
nodes = (
(245.333,611,o),
(293.667,562,o),
(335,506,c),
(337.667,503.333,o),
(339,499,o),
(339,493,cs),
(339,491,o),
(338.333,486.667,o),
(337,480,cs),
(309,382,l),
(293,381,l),
(271.667,469,o),
(225.333,568,o),
(172,636,c),
(190,653,l),
(190,653,l)
);
},
{
closed = 1;
nodes = (
(465,241.667,o),
(461.333,241.667,o),
(458,245,c),
(405,314,ls),
(402.333,318,o),
(402.333,321.333,o),
(405,324,cs),
(435.667,352,o),
(441.333,378,o),
(456,450,cs),
(468,507.333,o),
(484,604,o),
(488,660,cs),
(489,675,ls),
(489,699,o),
(483.333,719.333,o),
(472,736,c),
(484,746,l),
(566,668,l),
(557.333,652.667,o),
(550.333,632,o),
(545,606,cs),
(530.333,534,o),
(515.667,446.333,o),
(501,343,cs),
(500,337,ls),
(500,330.333,o),
(504,327.333,o),
(512,328,cs),
(608.667,334.667,o),
(691.667,342.667,o),
(761,352,cs),
(799.667,357.333,o),
(825.333,371.333,o),
(852,398,cs),
(855.333,401.333,o),
(858.333,401.333,o),
(861,398,c),
(925,338,ls),
(928.333,335.333,o),
(928.333,332.333,o),
(925,329,cs),
(900,304,ls),
(895.149,299.149,o),
(890,296.398,o),
(890,287,cs),
(882,155,o),
(842,-1.667,o),
(802,-83,cs),
(784.667,-116.333,o),
(760.333,-147.333,o),
(743,-158,cs),
(741.667,-158.667,o),
(740,-159,o),
(738,-159,cs),
(734.667,-159,o),
(731.333,-157.333,o),
(728,-154,cs),
(680.667,-97.333,o),
(633,-51.333,o),
(585,-16,c),
(598,7,l),
(725,-51,l),
(730.333,-52.333,o),
(733.667,-53,o),
(735,-53,cs),
(740.333,-53,o),
(744.667,-49.667,o),
(748,-43,cs),
(790.667,45,o),
(823.333,185.667,o),
(826,295,cs),
(826,302.333,o),
(822.333,305.667,o),
(815,305,cs),
(520,277,ls),
(512,276.333,o),
(505,273.333,o),
(499,268,cs),
(469,245,l),
(469,245,l)
);
},
{
closed = 1;
nodes = (
(220,71.667,o),
(179.333,65.667,o),
(142,57,c),
(67,114,l),
(73,127,l),
(110.333,123,o),
(143.667,121,o),
(173,121,cs),
(185.667,121,o),
(204.667,121.667,o),
(230,123,cs),
(284.667,126.333,o),
(343.667,130.333,o),
(407,135,cs),
(445,138,ls),
(457,139.333,o),
(465.667,140,o),
(471,140,cs),
(523.667,144.667,o),
(560.333,149,o),
(581,153,cs),
(601.667,157,o),
(619,163.667,o),
(633,173,c),
(636.333,174.333,o),
(639.333,174,o),
(642,172,cs),
(734,121,l),
(731,106,l),
(564.333,99.333,o),
(456.667,91,o),
(310,79,cs),
(264,75,l),
(264,75,l)
);
}
);
width = 1000;
}
);
unicode = 101496;
}
{
glyphname = u18CA2;
layers = (
{
layerId = master01;
shapes = (
{
closed = 1;
nodes = (
(536.667,494,o),
(526.667,472,o),
(520,448,cs),
(462.667,245.333,o),
(384.833,104.667,o),
(265.5,-2,cs),
(205.833,-55.333,o),
(133,-101,o),
(47,-139,c),
(33,-114,l),
(266.333,14,o),
(392.667,201.333,o),
(454,480,cs),
(461.333,514,o),
(465,539.333,o),
(465,556,cs),
(465,568.667,o),
(463.667,580.333,o),
(461,591,c),
(494,590,l),
(550,514,l),
(550,514,l)
);
},
{
closed = 1;
nodes = (
(284.667,561.333,o),
(250.333,556,o),
(211,548,c),
(135,610,l),
(140,623,l),
(170,618.333,o),
(202.333,616,o),
(237,616,cs),
(255,616,o),
(276,616.667,o),
(300,618,cs),
(456,628.667,o),
(669.667,649.333,o),
(711,656,cs),
(749.667,662.667,o),
(785,678,o),
(809,702,cs),
(812.333,705.333,o),
(815.333,705.333,o),
(818,702,cs),
(882,633,ls),
(885.333,629.667,o),
(885.333,626.333,o),
(882,623,cs),
(858,603,ls),
(848.667,595,o),
(849.333,595.333,o),
(848,586,cs),
(838,464,ls),
(819.333,210.667,o),
(803,48.667,o),
(771,-58,cs),
(759.667,-94,o),
(746.333,-121,o),
(731,-139,cs),
(727,-143.667,o),
(722.667,-143.667,o),
(718,-139,cs),
(652.667,-77.667,o),
(589.333,-26.333,o),
(528,15,c),
(543,40,l),
(691,-35,l),
(695,-36.333,o),
(697.333,-37,o),
(698,-37,cs),
(700.667,-37,o),
(703.667,-33.333,o),
(707,-26,cs),
(735,44.667,o),
(767.667,350.667,o),
(777,596,cs),
(777,604.667,o),
(773.667,608.667,o),
(767,608,cs),
(581.667,590.667,o),
(430.667,576,o),
(314,564,cs)
);
},
{
closed = 1;
nodes = (
(314.333,250.333,o),
(273.667,244,o),
(225,234,c),
(149,291,l),
(154,304,l),
(192.667,300.667,o),
(223.333,299,o),
(246,299,cs),
(268,299,o),
(290,300,o),
(312,302,cs),
(416,310,o),
(491,316.333,o),
(537,321,cs),
(601,326.333,o),
(634.333,332,o),
(665,352,c),
(668.333,353.333,o),
(671.333,353,o),
(674,351,cs),
(766,297,l),
(763,282,l),
(595,274,o),
(543,270.333,o),
(347,253,cs)
);
}
);
width = 1000;
}
);
unicode = 101538;
}
{
glyphname = u18CAD;
layers = (
{
layerId = master01;
shapes = (
{
closed = 1;
nodes = (
(191.667,599,o),
(159,591.667,o),
(121,581,c),
(42,640,l),
(48,652,l),
(78,648,o),
(105,646,o),
(129,646,cs),
(149,646,o),
(170,647,o),
(192,649,cs),
(239.333,653,o),
(284.333,657.667,o),
(327,663,cs),
(359,667,o),
(384.667,676,o),
(418,704,c),
(421.333,706,o),
(424,705.667,o),
(426,703,cs),
(481,637,ls),
(485,633,o),
(484,629.333,o),
(480,628,cs),
(460,624,o),
(445.667,613,o),
(423,593,cs),
(396,568,ls),
(323.333,499.333,o),
(278.333,456.667,o),
(261,440,c),
(242,456,l),
(287.333,514,o),
(322.667,565,o),
(348,609,c),
(352,614.333,o),
(349.667,619.333,o),
(343,618,cs),
(305,614,ls),
(269.667,610.667,o),
(241,607,o),
(219,603,cs)
);
},
{
closed = 1;
nodes = (
(307.667,407.667,o),
(306.667,390.667,o),
(308,352,cs),
(312.667,221.333,o),
(315,113.333,o),
(315,28,cs),
(315,-12,ls),
(315,-34.667,o),
(313.667,-53.667,o),
(311,-69,cs),
(304.333,-106.333,o),
(292.333,-122.667,o),
(271,-152,cs),
(267,-156.667,o),
(262.667,-157,o),
(258,-153,cs),
(206,-105.667,o),
(146.333,-59.333,o),
(79,-14,c),
(91,10,l),
(227,-49,l),
(231,-50,l),
(236.333,-50,o),
(239.333,-45,o),
(240,-35,cs),
(245.333,16.333,o),
(248,77,o),
(248,147,cs),
(248,225.667,o),
(245.667,295.333,o),
(241,356,cs),
(237,412,o),
(227.333,454,o),
(198,486,c),
(209,498,l),
(313,429,l),
(313,429,l)
);
},
{
closed = 1;
nodes = (
(737.667,437.667,o),
(736.667,420.667,o),
(738,382,cs),
(742.667,251.333,o),
(745,133.667,o),
(745,29,cs),
(745,-12,ls),
(745,-34.667,o),
(743.667,-53.667,o),
(741,-69,cs),
(734.333,-106.333,o),
(722.333,-122.667,o),
(701,-152,cs),
(697,-156.667,o),
(692.667,-157,o),
(688,-153,cs),
(636,-105.667,o),
(576.333,-59.333,o),
(509,-14,c),
(521,10,l),
(657,-49,l),
(661,-50,l),
(666.333,-50,o),
(669.333,-45,o),
(670,-35,cs),
(675.333,16.333,o),
(678,79.667,o),
(678,155,cs),
(678,252.333,o),
(673.667,352.667,o),
(671,386,cs),
(667,442,o),
(657.333,484,o),
(628,516,c),
(639,528,l),
(743,459,l),
(743,459,l)
);
},
{
closed = 1;
nodes = (
(640.667,636,o),
(608,628.667,o),
(570,618,c),
(491,677,l),
(497,689,l),
(527,685,o),
(554,683,o),
(578,683,cs),
(598,683,o),
(619,684,o),
(641,686,cs),
(688.333,690,o),
(733.333,694.667,o),
(776,700,cs),
(808,704,o),
(833.667,713,o),
(867,741,c),
(870.333,743,o),
(873,742.667,o),
(875,740,cs),
(930,674,ls),
(934,670,o),
(933,666.333,o),
(929,665,cs),
(909,661,o),
(894.667,650,o),
(872,630,cs),
(808.667,570,o),
(751.667,515,o),
(701,465,c),
(682,481,l),
(732.667,545.667,o),
(771,600.667,o),
(797,646,c),
(801,651.333,o),
(798.667,656.333,o),
(792,655,cs),
(754,651,ls),
(718.667,647.667,o),
(690,644,o),
(668,640,cs)
);
}
);
width = 1000;
}
);
unicode = 101549;
}
{
glyphname = u18CAF;
layers = (
{
layerId = master01;
shapes = (
{
closed = 1;
nodes = (
(665.333,612.667,o),
(666,615.667,o),
(666,619,cs),
(666,624.333,o),
(663,626.333,o),
(657,625,c),
(525,612,ls),
(505.667,610,o),
(482.167,607.667,o),
(454.5,605,cs),
(426.833,602.333,o),
(396.333,599,o),
(363,595,cs),
(319.667,590.333,o),
(285.333,585.333,o),
(260,580,c),
(183,635,l),
(188,648,l),
(211.333,644,o),
(240.667,642,o),
(276,642,cs),
(304,642,o),
(328,643,o),
(348,645,cs),
(449.333,654.333,o),
(552.667,664.667,o),
(598,670,cs),
(645.333,678,o),
(681,694,o),
(705,718,cs),
(708.333,721.333,o),
(711.333,721.333,o),
(714,718,cs),
(770,654,ls),
(773.333,650.667,o),
(773.333,647.333,o),
(770,644,cs),
(746,623,ls),
(740,617.667,o),
(735.333,611.333,o),
(732,604,cs),
(644,419,ls),
(643.333,417.667,o),
(643,416,o),
(643,414,cs),
(643,410,o),
(645.333,408.333,o),
(650,409,cs),
(670.667,410.333,o),
(705,414,o),
(753,420,cs),
(781,424,ls),
(826.333,430.667,o),
(834.667,435.333,o),
(864,466,cs),
(867.333,470,o),
(871.333,470.333,o),
(876,467,cs),
(935,415,ls),
(939,411.667,o),
(939,408,o),
(935,404,cs),
(918,387,ls),
(911.333,380.333,o),
(907,373,o),
(905,365,cs),
(865,179.667,o),
(831,52.333,o),
(783,-45,cs),
(764.333,-83.667,o),
(742.667,-112.333,o),
(718,-131,c),
(714.667,-134.333,o),
(710.667,-136,o),
(706,-136,cs),
(701.333,-136,o),
(696.667,-133.333,o),
(692,-128,cs),
(641.333,-68,o),
(584.667,-10.667,o),
(522,44,c),
(538,66,l),
(692,-33,ls),
(695.333,-35,o),
(698,-36,o),
(700,-36,cs),
(704,-36,o),
(708,-32.667,o),
(712,-26,cs),
(764,59.333,o),
(801.667,192,o),
(835,364,c),
(835,369,ls),
(835,376.333,o),
(830.667,379.667,o),
(822,379,cs),
(760,375,o),
(702.333,368,o),
(649,358,cs),
(633.667,354.667,o),
(620.333,350,o),
(609,344,cs),
(606.333,342,o),
(603.667,341,o),
(601,341,cs),
(598.333,341,o),
(596,342.333,o),
(594,345,cs),
(559,396,ls),
(558.333,397.333,o),
(557.5,398.833,o),
(556.5,400.5,cs),
(555.5,402.167,o),
(555,403.667,o),
(555,405,cs),
(555,407.667,o),
(557,410,o),
(561,412,cs),
(575.667,420,o),
(588.667,437.667,o),
(600,465,cs),
(664,610,l),
(664,610,l)
);
},
{
closed = 1;
nodes = (
(565.667,272.667,o),
(614,228,o),
(654,182,cs),
(657.333,178.667,o),
(658.333,174.333,o),
(657,169,cs),
(631,81,l),
(615,79,l),
(578.333,168.333,o),
(537.667,242.667,o),
(493,302,c),
(509,316,l),
(509,316,l)
);
},
{
closed = 1;
nodes = (
(364,241,o),
(397.667,184.333,o),
(429,121,cs),
(430.333,119,o),
(431,116.667,o),
(431,114,cs),
(431,111.333,o),
(430.333,109.333,o),
(429,108,c),
(378,28,l),
(363,29,l),
(357.667,105,o),
(338.667,196,o),
(308,280,c),
(328,291,l),
(328,291,l)
);
},
{
closed = 1;
nodes = (
(184,131.333,o),
(141.667,47.667,o),
(111,9,c),
(97,8,l),
(53,87,ls),
(51.667,89.667,o),
(53.333,93.667,o),
(56,95,cs),
(77.333,101.667,o),
(88.333,106.333,o),
(99,117,cs),
(131,150.333,o),
(160,202.333,o),
(160,257,cs),
(160,261.667,o),
(159.333,269.333,o),
(158,280,c),
(178,284,l),
(192.667,246.667,o),
(199,225.667,o),
(199,203,cs),
(199,195.667,o),
(198,187.333,o),
(196,178,cs)
);
}
);
width = 1000;
}
);
unicode = 101551;
}
{
glyphname = u18CB1;
layers = (
{
layerId = master01;
shapes = (
{
closed = 1;
nodes = (
(462,375.333,o),
(459.667,348.333,o),
(461,319,cs),
(464.333,244.333,o),
(466,156,o),
(466,54,cs),
(466,-11,ls),
(466,-33.667,o),
(464.667,-52.667,o),
(462,-68,cs),
(455.333,-105.333,o),
(444,-124.333,o),
(424,-151,cs),
(420,-155.667,o),
(415.667,-156,o),
(411,-152,cs),
(337,-88.667,o),
(262.333,-35.333,o),
(187,8,c),
(197,31,l),
(380,-41,l),
(384,-42,l),
(389.333,-42,o),
(392.333,-37,o),
(393,-27,cs),
(397.667,20.333,o),
(400,74.333,o),
(400,135,cs),
(400,216.333,o),
(396.667,295,o),
(394,323,cs),
(390,383,o),
(379,426.667,o),
(347,460,c),
(358,472,l),
(468,400,l),
(468,400,l)
);
},
{
closed = 1;
nodes = (
(268,586.333,o),
(239,579,o),
(201,567,c),
(111,633,l),
(117,645,l),
(147,640.333,o),
(175.667,638,o),
(203,638,cs),
(221.667,638,o),
(241,639,o),
(261,641,cs),
(339,647,o),
(414.333,654.667,o),
(487,664,cs),
(519,668,o),
(544.667,677,o),
(578,705,cs),
(580.667,707,o),
(583.333,706.667,o),
(586,704,cs),
(641,636,ls),
(645,631.333,o),
(644.667,628.333,o),
(640,627,cs),
(620,623,o),
(605.667,612,o),
(583,592,cs),
(561.667,570.667,o),
(529.667,536.667,o),
(487,490,cs),
(433,432,o),
(406,403,o),
(406,403,c),
(384,422,l),
(437.333,494,o),
(478.667,556,o),
(508,608,c),
(512,613.333,o),
(509.667,618.333,o),
(503,617,cs),
(456,612,ls),
(406,606,o),
(350,598.333,o),
(288,589,cs)
);
},
{
closed = 1;
nodes = (
(791.333,624.333,o),
(788,590,o),
(788,550,cs),
(788,433.333,o),
(787,315,o),
(785,195,cs),
(783.667,33.667,o),
(783,-84.333,o),
(783,-159,c),
(770,-165,l),
(707,-97,ls),
(705.667,-95.667,o),
(705.667,-92.667,o),
(707,-88,cs),
(715,-70,o),
(719.667,-48.333,o),
(721,-23,cs),
(725,94.333,o),
(727,234,o),
(727,396,cs),
(727,496.667,o),
(726.333,567,o),
(725,607,cs),
(723.667,648.333,o),
(711.333,695,o),
(682,727,c),
(693,739,l),
(798,653,l),
(798,653,l)
);
},
{
closed = 1;
nodes = (
(949,330,l),
(250,202,ls),
(210.667,194.667,o),
(172.333,185,o),
(135,173,c),
(43,244,l),
(49,258,l),
(77,255.333,o),
(100.333,254,o),
(119,254,cs),
(145.667,254,o),
(169.667,255.667,o),
(191,259,cs),
(944,364,l),
(944,364,l)
);
}
);
width = 1000;
}
);
unicode = 101553;
}
{
glyphname = u18CC3;
layers = (
{
layerId = master01;
shapes = (
{
closed = 1;
nodes = (
(333.333,333.333,o),
(467.333,342,o),
(648,356,cs),
(716,362.667,o),
(746,366.333,o),
(778,385,cs),
(780.667,386.333,o),
(783.667,386,o),
(787,384,cs),
(879,328,l),
(876,313,l),
(621.333,302.333,o),
(515.333,295.333,o),
(282,278,cs),
(248.667,275.333,o),
(227.667,270.667,o),
(219,264,cs),
(188,241,ls),
(183.333,237.667,o),
(180,237.667,o),
(178,241,cs),
(133,304,ls),
(130.333,308,o),
(130.333,311.333,o),
(133,314,c),
(159.667,333.333,o),
(177.333,361.333,o),
(186,398,cs),
(192,423.333,o),
(196.833,451,o),
(200.5,481,cs),
(204.167,511,o),
(206.333,528.667,o),
(207,534,cs),
(207.667,537.333,o),
(208,542.667,o),
(208,550,cs),
(208,583.333,o),
(195.667,629,o),
(177,657,c),
(190,667,l),
(290,564,l),
(282,549.333,o),
(274.333,527.667,o),
(267,499,cs),
(259.667,470.333,o),
(249.333,417.333,o),
(236,340,cs),
(235,335,ls),
(235,328.976,o),
(241.479,330,o),
(246,330,cs)
);
},
{
closed = 1;
nodes = (
(471,139,o),
(473,303.333,o),
(473,444,cs),
(473,498,o),
(472.333,559.667,o),
(471,629,cs),
(469.667,670.333,o),
(457.333,717,o),
(428,749,c),
(439,761,l),
(545,675,l),
(539,649.667,o),
(535.667,615.333,o),
(535,572,cs),
(532.333,351.333,o),
(530.667,145.667,o),
(530,-45,c),
(467,-49,l),
(467,-49,l)
);
},
{
closed = 1;
nodes = (
(184.667,-91,o),
(143.333,-96,o),
(102,-104,c),
(26,-45,l),
(31,-32,l),
(64.333,-36,o),
(100.667,-38,o),
(140,-38,cs),
(162.667,-38,o),
(179.667,-37.667,o),
(191,-37,cs),
(396.333,-28.333,o),
(580,-18,o),
(742,-6,cs),
(807.333,-0.667,o),
(839.667,3.667,o),
(873,21,cs),
(875.667,22.333,o),
(878.667,22,o),
(882,20,cs),
(974,-34,l),
(970,-49,l),
(724,-58.333,o),
(476,-71.667,o),
(226,-89,cs)
);
}
);
width = 1000;
}
);
unicode = 101571;
}
{
glyphname = u18CC8;
layers = (
{
layerId = master01;
shapes = (
{
closed = 1;
nodes = (
(327,501.667,o),
(490.667,512.667,o),
(712,530,cs),
(780,536.667,o),
(810,540.333,o),
(842,559,cs),
(844.667,560.333,o),
(847.667,560,o),
(851,558,cs),
(943,502,l),
(940,487,l),
(673.333,475,o),
(546.333,466.333,o),
(257,445,cs),
(223.667,442.333,o),
(202.667,437.667,o),
(194,431,cs),
(163,408,ls),
(158.333,404.667,o),
(155,404.667,o),
(153,408,cs),
(108,471,ls),
(105.333,475,o),
(105.333,478.333,o),
(108,481,c),
(134.667,500.333,o),
(152.333,528.333,o),
(161,565,cs),
(163.667,575.667,o),
(166.333,590.333,o),
(169,609,cs),
(169.667,612.333,o),
(170,617.667,o),
(170,625,cs),
(170,658.333,o),
(157.667,704,o),
(139,732,c),
(152,742,l),
(252,639,l),
(233.333,604.333,o),
(225.667,589.667,o),
(211,507,cs),
(210,502,ls),
(210,495.976,o),
(216.479,497,o),
(221,497,cs)
);
},
{
closed = 1;
nodes = (
(404.333,204,o),
(400.667,204,o),
(398,208,cs),
(345,277,ls),
(342.333,281,o),
(342.333,284.333,o),
(345,287,cs),
(375.667,315,o),
(381.333,341,o),
(396,413,cs),
(420,532.333,o),
(434,618,o),
(438,670,cs),
(440.667,694,o),
(434.333,726.333,o),
(417,753,c),
(429,763,l),
(516,678,l),
(507.333,662.667,o),
(500.333,642,o),
(495,616,cs),
(473.667,512,o),
(451.667,379.333,o),
(441,306,cs),
(440,300,ls),
(440,293.333,o),
(444,290.333,o),
(452,291,cs),
(497,294,ls),
(558.333,298,o),
(604.333,302,o),
(635,306,cs),
(673.667,311.333,o),
(699.333,325.333,o),
(726,352,cs),
(729.333,355.333,o),
(732.333,355.333,o),
(735,352,c),
(801,292,ls),
(804.333,289.333,o),
(804.333,286.333,o),
(801,283,cs),
(776,258,ls),
(771.149,253.149,o),
(766,250.398,o),
(766,241,cs),
(758,115.667,o),
(719,-5.667,o),
(675,-87,cs),
(657.667,-120.333,o),
(631.333,-151.333,o),
(614,-162,cs),
(612.667,-162.667,o),
(611,-163,o),
(609,-163,cs),
(605.667,-163,o),
(602.333,-161.333,o),
(599,-158,cs),
(537.667,-102,o),
(387.333,-14.333,o),
(250,51,c),
(262,78,l),
(594,-55,l),
(599.333,-56.333,o),
(602.667,-57,o),
(604,-57,cs),
(609.333,-57,o),
(613.667,-53.667,o),
(617,-47,cs),
(659.667,35.667,o),
(692.333,142.667,o),
(695,244,cs),
(695,251.333,o),
(691.333,254.667,o),
(684,254,cs),
(460,240,ls),
(452,239.333,o),
(445,236.333,o),
(439,231,cs),
(409,208,l),
(409,208,l)
);
}
);
width = 1000;
}
);
unicode = 101576;
}
{
glyphname = u18CD0;
layers = (
{
layerId = master01;
shapes = (
{
closed = 1;
nodes = (
(294,603,o),
(399.333,664,o),
(430,696,cs),
(448.667,716,o),
(452,734.333,o),
(452,761,c),
(470,768,l),
(534,675,l),
(522.667,670.333,o),
(504.667,662,o),
(480,650,cs),
(428,624.667,o),
(340,578.333,o),
(308,561,cs),
(267,539,l),
(755,579,l),
(767,545,l),
(274,487,ls),
(254.667,485,o),
(228,477,o),
(194,463,cs),
(191,462,l),
(189,462,o),
(187.333,462.833,o),
(186,464.5,cs),
(184.667,466.167,o),
(183.667,467.333,o),
(183,468,c),
(146,540,l),
(145.333,540.667,o),
(145,542,o),
(145,544,cs),
(145,548.667,o),
(147,551.333,o),
(151,552,cs),
(179,554.667,o),
(204,561,o),
(226,571,cs)
);
},
{
closed = 1;
nodes = (
(720,647,o),
(780,610,o),
(832,566,cs),
(836,562.667,o),
(838,557.333,o),
(838,550,cs),
(839,459,l),
(820,451,l),
(758.667,535,o),
(683.667,616,o),
(595,694,c),
(608,711,l),
(608,711,l)
);
},
{
closed = 1;
nodes = (
(530,435.667,o),
(526.667,401.333,o),
(526,358,cs),
(523.333,190,o),
(522,58.667,o),
(522,-36,cs),
(523,-151,l),
(511,-157,l),
(446,-89,ls),
(444.667,-87.667,o),
(444.667,-84.667,o),
(446,-80,cs),
(453.333,-61.333,o),
(457.667,-39.667,o),
(459,-15,cs),
(463,51.667,o),
(467,187,o),
(467,299,cs),
(467,331,o),
(466.333,369.667,o),
(465,415,cs),
(463.667,456.333,o),
(451,503,o),
(423,535,c),
(436,547,l),
(536,461,l),
(536,461,l)
);
},
{
closed = 1;
nodes = (
(391.333,176.333,o),
(569,267.667,o),
(673,349,c),
(676.333,352.333,o),
(678,354,o),
(678,354,c),
(678,356.667,o),
(673,357.333,o),
(663,356,cs),
(569,349,ls),
(530.333,346.333,o),
(397,336.333,o),
(317,327,cs),
(281,322.333,o),
(240.333,314.333,o),
(195,303,c),
(115,354,l),
(120,367,l),
(154,366,ls),
(195.333,366,o),
(245.333,369.667,o),
(260,371,cs),
(280,373,ls),
(423.333,383.667,o),
(543,394.667,o),
(639,406,cs),
(687,411.333,o),
(725,423.333,o),
(753,442,cs),
(757,444.667,o),
(760,446,o),
(764,442,cs),
(817,382,ls),
(819,380,o),
(820,377.833,o),
(820,375.5,cs),
(820,373.167,o),
(819,371.667,o),
(817,371,cs),
(796.333,363,o),
(778.667,354.667,o),
(764,346,cs),
(590.667,231.333,o),
(412,146.333,o),
(216,65,c),
(809,107,l),
(820,71,l),
(205,5,ls),
(183,3,o),
(158.333,-3.667,o),
(131,-15,cs),
(127,-16.333,o),
(123.667,-15,o),
(121,-11,c),
(82,69,l),
(81,73,ls),
(81,77,o),
(83.333,79.667,o),
(88,81,c),
(125.333,84.333,o),
(163.333,93,o),
(202,107,cs)
);
},
{
closed = 1;
nodes = (
(782.333,171.333,o),
(848.333,109.667,o),
(903,47,cs),
(906.333,42.333,o),
(907.667,36.667,o),
(907,30,cs),
(892,-64,l),
(871,-69,l),
(820.333,37,o),
(759.333,132.333,o),
(688,217,c),
(705,232,l),
(705,232,l)
);
}
);
width = 1000;
}
);
unicode = 101584;
}
{
glyphname = u18C5B_u18CD1;
layers = (
{
layerId = master01;
shapes = (
{
closed = 1;
nodes = (
(270,400.667,o),
(273,100,o),
(277,-4,cs),
(278.333,-28,o),
(277.333,-49.667,o),
(274,-69,cs),
(266,-113,o),
(258,-132,o),
(242,-156,cs),
(237.333,-164,o),
(233,-168,o),
(229,-168,cs),
(225.667,-168,o),
(221.667,-165.667,o),
(217,-161,cs),
(161,-109.667,o),
(91,-61.333,o),
(7,-16,c),
(20,9,l),
(190,-55,ls),
(192,-55.667,o),
(194.333,-56,o),
(197,-56,cs),
(205,-56,o),
(207.667,-50,o),
(209,-38,cs),
(211.667,-8,o),
(213,61.667,o),
(213,171,cs),
(213,344.333,o),
(210.667,560.333,o),
(208,623,cs),
(206.667,665.667,o),
(192,726,o),
(164,758,c),
(176,770,l),
(279,684,l),
(273,652.667,o),
(270,618.667,o),
(270,582,cs)
);
},
{
closed = 1;
nodes = (
(-137,562.667,o),
(-70.333,490.333,o),
(-27,433,cs),
(-25,431,o),
(-24,427.667,o),
(-24,423,cs),
(-24,419.667,o),
(-25,414.333,o),
(-27,407,cs),
(-57,298,l),
(-74,298,l),
(-106,402,o),
(-177.333,543.333,o),
(-248,634,c),
(-227,650,l),
(-227,650,l)
);
},
{
closed = 1;
nodes = (
(462,467,l),
(-151,43,ls),
(-183.667,20.333,o),
(-214.333,-4.333,o),
(-243,-31,c),
(-349,10,l),
(-350,24,l),
(-301.333,40,o),
(-257.667,60,o),
(-219,84,cs),
(444,497,l),
(444,497,l)
);
},
{
closed = 1;
nodes = (
(664,603,o),
(769.333,664,o),
(800,696,cs),
(818.667,716,o),
(822,734.333,o),
(822,761,c),
(840,768,l),
(904,675,l),
(892.667,670.333,o),
(874.667,662,o),
(850,650,cs),
(798,624.667,o),
(710,578.333,o),
(678,561,cs),
(637,539,l),
(1125,579,l),
(1137,545,l),
(646,489,ls),
(630,487.667,o),
(613.333,483.333,o),
(596,476,cs),
(578.667,468.667,o),
(568,464.333,o),
(564,463,cs),
(561,462,l),
(559,462,o),
(557.333,462.833,o),
(556,464.5,cs),
(554.667,466.167,o),
(553.667,467.333,o),
(553,468,c),
(516,540,l),
(515.333,540.667,o),
(515,542,o),
(515,544,cs),
(515,548.667,o),
(517,551.333,o),
(521,552,cs),
(549,554.667,o),
(574,561,o),
(596,571,cs)
);
},
{
closed = 1;
nodes = (
(1090,647,o),
(1150,610,o),
(1202,566,cs),
(1206,562.667,o),
(1208,557.333,o),
(1208,550,cs),
(1209,459,l),
(1190,451,l),
(1128.667,535,o),
(1053.667,616,o),
(965,694,c),
(978,711,l),
(978,711,l)
);
},
{
closed = 1;
nodes = (
(972.667,507,o),
(1089.667,396.667,o),
(1143,350,cs),
(1219,283.333,o),
(1270,257.333,o),
(1350,244,c),
(1350,220,l),
(1203,203,l),
(1200,203,ls),
(1192.667,203,o),
(1186,206.333,o),
(1180,213,cs),
(899,533,l),
(926,555,l),
(926,555,l)
);
},
{
closed = 1;
nodes = (
(529.556,244.513,o),
(672.576,369.162,o),
(710,449,cs),
(716.667,462.333,o),
(720,477.667,o),
(720,495,cs),
(720,503,o),
(719.333,509,o),
(718,513,c),
(733,519,l),
(791,429,l),
(765,403,l),
(722,362,ls),
(624.667,271.333,o),
(518.333,193.667,o),
(381,127,c),
(366,153,l),
(366,153,l)
);
},
{
closed = 1;
nodes = (
(900.333,294,o),
(897,265.333,o),
(897,240,cs),
(896.333,224.667,o),
(896,200.667,o),
(896,168,cs),
(896,118,o),
(897.333,56.333,o),
(900,-17,cs),
(902.667,-74.333,o),
(893.667,-120,o),
(859,-156,cs),
(855,-160.667,o),
(850.333,-161,o),
(845,-157,cs),
(793.667,-111,o),
(743.333,-72.333,o),
(694,-41,c),
(705,-20,l),
(819,-63,ls),
(820.333,-63.667,o),
(822.333,-64,o),
(825,-64,cs),
(830.333,-64,o),
(834,-60,o),
(836,-52,cs),
(839.333,-37.333,o),
(841,13.667,o),
(841,101,cs),
(841,197.667,o),
(840.333,249.333,o),
(839,256,c),
(836.333,314.667,o),
(831.667,351,o),
(817,379,c),
(830,390,l),
(907,326,l),
(907,326,l)
);
},
{
closed = 1;
nodes = (
(738.333,160,o),
(697.667,153.333,o),
(665,146,c),
(589,196,l),
(595,210,l),
(623,208,o),
(647,207,o),
(667,207,cs),
(692.333,207,o),
(720.667,208,o),
(752,210,cs),
(787.333,212,o),
(829.667,215.667,o),
(879,221,cs),
(956.333,229,o),
(981.667,235.333,o),
(1015,258,c),
(1018.333,259.333,o),
(1021.333,259,o),
(1024,257,c),
(1117,210,l),
(1114,195,l),
(982.667,186.333,o),
(873.667,176.667,o),
(787,166,cs)
);
},
{
closed = 1;
nodes = (
(1071.333,76,o),
(1125.333,28.667,o),
(1166,-12,cs),
(1171.333,-17.333,o),
(1173,-23.333,o),
(1171,-30,cs),
(1153,-123,l),
(1131,-126,l),
(1096.333,-47.333,o),
(1045.667,40.667,o),
(987,114,c),
(1004,130,l),
(1004,130,l)
);
},
{
closed = 1;
nodes = (
(649,-22.333,o),
(596.333,-88.333,o),
(559,-123,c),
(542,-120,l),
(518,-39,ls),
(517.333,-36.333,o),
(518.667,-34.333,o),
(522,-33,c),
(541.333,-29,o),
(555.667,-24,o),
(565,-18,cs),
(602.333,7.333,o),
(645.667,56.667,o),
(647,110,c),
(666,110,l),
(670,88,o),
(672,69.667,o),
(672,55,cs),
(672,41.667,o),
(669.667,28.333,o),
(665,15,cs)
);
}
);
width = 1000;
}
);
}
